<svg xmlns="http://www.w3.org/2000/svg" width="1080" height="560" fill="none" viewBox="0 0 1080 560">
  <g class="bandit">
    <path fill="#000" d="m50 0-8.66 15h17.32L50 0Zm1.5 560V13.5h-3V560h3Z" class="oy"/>
    <g class="oy_markers">
      <path stroke="#000" stroke-width="3" d="M41 419.5h18m-18-100h18m-18-100h18m-18-100h18" class="marker"/>
    </g>
    <g class="oy_labels">
      <g class="action">
        <path fill="#000" d="m22.48 121-.69-1.781h-.106a7.95 7.95 0 0 1-.774.914 3.79 3.79 0 0 1-.844.621 3.738 3.738 0 0 1-1.03.363 6.506 6.506 0 0 1-1.313.117 4.308 4.308 0 0 1-1.477-.246 3.33 3.33 0 0 1-1.183-.761 3.646 3.646 0 0 1-.774-1.289c-.187-.524-.281-1.141-.281-1.852 0-1.391.445-2.414 1.336-3.07.89-.664 2.222-1.032 3.996-1.102l2.086-.07v-.985c0-.539-.156-.937-.469-1.195-.313-.258-.75-.387-1.313-.387-.562 0-1.113.082-1.652.246a10.26 10.26 0 0 0-1.605.657l-1.16-2.368a9.346 9.346 0 0 1 2.18-.867 9.76 9.76 0 0 1 2.507-.316c1.633 0 2.883.383 3.75 1.148.875.766 1.313 1.93 1.313 3.493V121H22.48Zm-1.054-6.07-1.184.047c-.476.015-.879.078-1.207.187a2.168 2.168 0 0 0-.797.445 1.64 1.64 0 0 0-.433.657c-.086.25-.13.531-.13.843 0 .547.134.938.4 1.172.265.227.613.34 1.042.34.328 0 .633-.055.914-.164.282-.117.524-.285.727-.504.21-.226.375-.5.492-.82.117-.328.176-.703.176-1.125v-1.078Z" class="a"/>
        <path fill="#000" d="M33.57 117.344c0 .332-.053.635-.158.909a2.12 2.12 0 0 1-.444.711 2.36 2.36 0 0 1-.677.499 3.27 3.27 0 0 1-.882.273v.041c.807.101 1.42.358 1.839.773.42.41.629.945.629 1.606 0 .438-.075.839-.226 1.203a2.46 2.46 0 0 1-.67.944c-.3.264-.68.469-1.141.615-.46.146-1.005.219-1.634.219-.497 0-.966-.039-1.408-.116a4.207 4.207 0 0 1-1.237-.424v-1.162c.396.209.824.371 1.285.485.465.114.909.171 1.333.171.419 0 .781-.046 1.087-.137a2.02 2.02 0 0 0 .752-.39c.2-.168.346-.376.437-.622.096-.246.144-.521.144-.827 0-.31-.062-.574-.185-.793a1.445 1.445 0 0 0-.513-.547 2.403 2.403 0 0 0-.82-.321 5.241 5.241 0 0 0-1.087-.102h-.909v-1.033h.91c.368 0 .696-.045.983-.136a1.98 1.98 0 0 0 .718-.39c.196-.169.344-.369.445-.602.1-.232.15-.487.15-.765 0-.237-.041-.449-.123-.636a1.292 1.292 0 0 0-.349-.472 1.517 1.517 0 0 0-.54-.3 2.221 2.221 0 0 0-.697-.103 3.37 3.37 0 0 0-1.292.232c-.37.151-.722.349-1.06.595l-.628-.854c.173-.142.364-.274.574-.397a4.44 4.44 0 0 1 .697-.321 4.764 4.764 0 0 1 1.709-.308c.492 0 .923.062 1.292.185.374.123.686.296.936.519.251.219.44.481.568.787.127.3.191.631.191.991Z" class="3"/>
      </g>
      <g class="action">
        <path fill="#000" d="m22.48 221-.69-1.781h-.106a7.95 7.95 0 0 1-.774.914 3.79 3.79 0 0 1-.844.621 3.738 3.738 0 0 1-1.03.363 6.506 6.506 0 0 1-1.313.117 4.308 4.308 0 0 1-1.477-.246 3.33 3.33 0 0 1-1.183-.761 3.646 3.646 0 0 1-.774-1.289c-.187-.524-.281-1.141-.281-1.852 0-1.391.445-2.414 1.336-3.07.89-.664 2.222-1.032 3.996-1.102l2.086-.07v-.985c0-.539-.156-.937-.469-1.195-.313-.258-.75-.387-1.313-.387-.562 0-1.113.082-1.652.246a10.26 10.26 0 0 0-1.605.657l-1.16-2.368a9.346 9.346 0 0 1 2.18-.867 9.76 9.76 0 0 1 2.507-.316c1.633 0 2.883.383 3.75 1.148.875.766 1.313 1.93 1.313 3.493V221H22.48Zm-1.054-6.07-1.184.047c-.476.015-.879.078-1.207.187a2.168 2.168 0 0 0-.797.445 1.64 1.64 0 0 0-.433.657c-.086.25-.13.531-.13.843 0 .547.134.938.4 1.172.265.227.613.34 1.042.34.328 0 .633-.055.914-.164.282-.117.524-.285.727-.504.21-.226.375-.5.492-.82.117-.328.176-.703.176-1.125v-1.078Z" class="a"/>
        <path fill="#000" d="M33.89 225h-6.234v-1.066l2.393-2.605c.342-.369.647-.706.916-1.012a7.37 7.37 0 0 0 .683-.895c.192-.292.338-.583.438-.875.1-.296.15-.618.15-.964 0-.269-.038-.506-.116-.711a1.398 1.398 0 0 0-.335-.519 1.35 1.35 0 0 0-.506-.329 1.869 1.869 0 0 0-.656-.109c-.433 0-.825.089-1.176.267a4.714 4.714 0 0 0-.99.67l-.698-.814c.182-.164.378-.317.588-.458.21-.146.435-.271.676-.376.242-.105.497-.187.766-.246.269-.064.551-.096.848-.096.437 0 .831.062 1.182.185.356.123.657.301.903.533.246.228.435.508.567.841.137.328.205.699.205 1.114 0 .388-.061.757-.184 1.108a4.95 4.95 0 0 1-.5 1.039 8.09 8.09 0 0 1-.758 1.018c-.292.342-.609.697-.95 1.067l-1.921 2.044v.054h4.71V225Z" class="3"/>
      </g>
      <g class="action">
        <path fill="#000" d="m22.48 321-.69-1.781h-.106a7.95 7.95 0 0 1-.774.914 3.79 3.79 0 0 1-.844.621 3.738 3.738 0 0 1-1.03.363 6.506 6.506 0 0 1-1.313.117 4.308 4.308 0 0 1-1.477-.246 3.33 3.33 0 0 1-1.183-.761 3.646 3.646 0 0 1-.774-1.289c-.187-.524-.281-1.141-.281-1.852 0-1.391.445-2.414 1.336-3.07.89-.664 2.222-1.032 3.996-1.102l2.086-.07v-.985c0-.539-.156-.937-.469-1.195-.313-.258-.75-.387-1.313-.387-.562 0-1.113.082-1.652.246a10.26 10.26 0 0 0-1.605.657l-1.16-2.368a9.346 9.346 0 0 1 2.18-.867 9.76 9.76 0 0 1 2.507-.316c1.633 0 2.883.383 3.75 1.148.875.766 1.313 1.93 1.313 3.493V321H22.48Zm-1.054-6.07-1.184.047c-.476.015-.879.078-1.207.187a2.168 2.168 0 0 0-.797.445 1.64 1.64 0 0 0-.433.657c-.086.25-.13.531-.13.843 0 .547.134.938.4 1.172.265.227.613.34 1.042.34.328 0 .633-.055.914-.164.282-.117.524-.285.727-.504.21-.226.375-.5.492-.82.117-.328.176-.703.176-1.125v-1.078Z" class="a"/>
        <path fill="#000" d="M31.86 325h-1.203v-6.87l.014-.663c.009-.224.016-.435.02-.636.01-.205.016-.385.02-.54a9.906 9.906 0 0 1-.204.212c-.06.059-.12.116-.185.171l-.191.178-.246.211-1.012.828-.656-.841 2.618-2.044h1.025V325Z" class="3"/>
      </g>
      <g class="action">
        <path fill="#000" d="m22.48 421-.69-1.781h-.106a7.95 7.95 0 0 1-.774.914 3.79 3.79 0 0 1-.844.621 3.738 3.738 0 0 1-1.03.363 6.506 6.506 0 0 1-1.313.117 4.308 4.308 0 0 1-1.477-.246 3.33 3.33 0 0 1-1.183-.761 3.646 3.646 0 0 1-.774-1.289c-.187-.524-.281-1.141-.281-1.852 0-1.391.445-2.414 1.336-3.07.89-.664 2.222-1.032 3.996-1.102l2.086-.07v-.985c0-.539-.156-.937-.469-1.195-.313-.258-.75-.387-1.313-.387-.562 0-1.113.082-1.652.246a10.26 10.26 0 0 0-1.605.657l-1.16-2.368a9.346 9.346 0 0 1 2.18-.867 9.76 9.76 0 0 1 2.507-.316c1.633 0 2.883.383 3.75 1.148.875.766 1.313 1.93 1.313 3.493V421H22.48Zm-1.054-6.07-1.184.047c-.476.015-.879.078-1.207.187a2.168 2.168 0 0 0-.797.445 1.64 1.64 0 0 0-.433.657c-.086.25-.13.531-.13.843 0 .547.134.938.4 1.172.265.227.613.34 1.042.34.328 0 .633-.055.914-.164.282-.117.524-.285.727-.504.21-.226.375-.5.492-.82.117-.328.176-.703.176-1.125v-1.078Z" class="a"/>
        <path fill="#000" d="M34.055 419.989c0 .807-.06 1.529-.178 2.167-.114.638-.3 1.178-.56 1.62a2.68 2.68 0 0 1-.992 1.012c-.405.233-.898.349-1.476.349-.538 0-1.008-.116-1.409-.349a2.814 2.814 0 0 1-.99-1.012c-.26-.442-.456-.982-.589-1.62a11.105 11.105 0 0 1-.191-2.167c0-.806.057-1.529.17-2.167.12-.638.304-1.176.555-1.613a2.7 2.7 0 0 1 .984-1.012c.405-.232.895-.348 1.47-.348.542 0 1.014.116 1.415.348.4.228.733.563.998 1.005.264.438.462.975.594 1.613.133.638.199 1.363.199 2.174Zm-5.12 0c0 .684.034 1.281.102 1.791.069.511.178.937.328 1.279.15.337.347.592.588.765.246.169.545.253.896.253.35 0 .649-.084.895-.253.246-.168.447-.421.602-.759.16-.337.273-.761.342-1.271.072-.515.109-1.117.109-1.805 0-.683-.037-1.28-.11-1.791-.068-.51-.182-.934-.341-1.271-.155-.337-.356-.59-.602-.759-.246-.169-.544-.253-.895-.253s-.65.084-.896.253c-.241.169-.437.422-.588.759-.15.337-.26.761-.328 1.271a13.697 13.697 0 0 0-.102 1.791Z" class="3"/>
      </g>
    </g>
    <path fill="#000" d="m1080 520-15-8.66v17.32l15-8.66ZM0 521.5h1066.5v-3H0v3Z" class="ox"/>
    <path fill="#000" d="M526.852 554.258c.234 0 .455-.026.664-.078.213-.052.429-.118.648-.196v1.774a3.517 3.517 0 0 1-.836.281 4.656 4.656 0 0 1-1.078.117c-.38 0-.734-.044-1.062-.133a2.014 2.014 0 0 1-.852-.461c-.24-.223-.43-.52-.57-.89-.136-.375-.204-.844-.204-1.406v-4.211h-1.14v-1.008l1.312-.797.688-1.844h1.523v1.86h2.125v1.789h-2.125v4.211c0 .338.084.588.25.75.167.161.386.242.657.242Zm2.976-9.25c0-.224.034-.409.102-.555a.91.91 0 0 1 .273-.359c.12-.094.258-.159.414-.196a2.333 2.333 0 0 1 1.008 0 .986.986 0 0 1 .406.196c.12.088.214.208.281.359.073.146.11.331.11.555 0 .219-.037.403-.11.554a.938.938 0 0 1-.281.368c-.114.088-.25.153-.406.195a2.333 2.333 0 0 1-1.008 0 1.236 1.236 0 0 1-.414-.195.98.98 0 0 1-.273-.368 1.344 1.344 0 0 1-.102-.554ZM532.312 556h-2.382v-8.734h2.382V556Zm10.008 0h-2.382v-5.102c0-.63-.094-1.101-.282-1.414-.187-.317-.482-.476-.883-.476-.302 0-.554.062-.757.187-.198.125-.357.31-.477.555-.12.245-.206.547-.258.906-.052.36-.078.771-.078 1.235V556h-2.383v-8.734h1.821l.32 1.117h.133c.125-.224.273-.417.445-.578a2.528 2.528 0 0 1 1.242-.625c.235-.052.472-.078.711-.078.599 0 1.107.104 1.524.312.422.203.744.526.968.969h.196c.125-.224.276-.417.453-.578a2.45 2.45 0 0 1 .586-.399c.213-.104.437-.179.672-.226.239-.052.479-.078.718-.078.938 0 1.644.255 2.118.765.479.505.718 1.318.718 2.438V556h-2.39v-5.102c0-.63-.094-1.101-.282-1.414-.187-.317-.481-.476-.882-.476-.568 0-.972.226-1.211.68-.24.447-.36 1.091-.36 1.929V556Zm11.11-7.203c-.422 0-.774.148-1.055.445-.276.297-.435.763-.477 1.399h3.04a3.005 3.005 0 0 0-.102-.735 1.675 1.675 0 0 0-.281-.578 1.303 1.303 0 0 0-.469-.39 1.447 1.447 0 0 0-.656-.141Zm.304 7.359c-.625 0-1.2-.091-1.726-.273a3.675 3.675 0 0 1-1.36-.821 3.794 3.794 0 0 1-.89-1.39c-.209-.563-.313-1.221-.313-1.977 0-.765.097-1.435.289-2.007.193-.573.461-1.05.805-1.43a3.308 3.308 0 0 1 1.25-.867 4.396 4.396 0 0 1 1.625-.289c.578 0 1.099.088 1.563.265.468.172.864.427 1.187.766.328.338.578.755.75 1.25.177.489.266 1.052.266 1.687v1.157h-5.328c.01.333.062.635.156.906.099.265.234.492.406.679.177.183.388.323.633.422.25.099.534.149.851.149.266 0 .516-.013.75-.039a6.077 6.077 0 0 0 1.36-.344 9.29 9.29 0 0 0 .672-.305v1.844c-.209.109-.42.203-.633.281a5.46 5.46 0 0 1-1.422.297 9.374 9.374 0 0 1-.891.039Z" class="time"/>
    <g class="rewards">
      <g class="ox_markers">
        <path stroke="#000" stroke-width="3" d="M151.5 511v18m100-18v18m100-18v18m100-18v18m100-18v18m100-18v18m100-18v18m100-18v18m100-18v18" class="marker"/>
      </g>
      <g class="pos_reward t7">
        <circle cx="834" cy="321" r="18.5" fill="#59CAAF" stroke="#EBEBEB" stroke-width="5" class="reward_bg"/>
        <path fill="#005440" d="M828.555 322.219h-2.867v-1.711h2.867v-2.883h1.711v2.883h2.859v1.711h-2.859v2.843h-1.711v-2.843Zm11.64 4.781h-2.414v-7.094l.016-.594c.01-.208.018-.416.023-.624.011-.209.019-.399.024-.571a2.86 2.86 0 0 1-.133.141l-.211.211-.242.226a4.23 4.23 0 0 1-.242.211l-1.313 1.055-1.172-1.453 3.68-2.93h1.984V327Z" class="reward_val"/>
      </g>
      <g class="pos_reward t6">
        <circle cx="750" cy="321" r="18.5" fill="#59CAAF" stroke="#EBEBEB" stroke-width="5" class="reward_bg"/>
        <path fill="#005440" d="M744.555 322.219h-2.867v-1.711h2.867v-2.883h1.711v2.883h2.859v1.711h-2.859v2.843h-1.711v-2.843Zm11.64 4.781h-2.414v-7.094l.016-.594c.01-.208.018-.416.023-.624.011-.209.019-.399.024-.571a2.86 2.86 0 0 1-.133.141l-.211.211-.242.226a4.23 4.23 0 0 1-.242.211l-1.313 1.055-1.172-1.453 3.68-2.93h1.984V327Z" class="reward_val"/>
      </g>
      <g class="neg_reward t5">
        <circle cx="650" cy="121" r="18.5" fill="#CA6D59" stroke="#EBEBEB" stroke-width="5" class="reward_bg"/>
        <path fill="#542300" d="M643.477 122.688v-1.954h4.195v1.954h-4.195ZM654.539 126h-2.414v-7.094l.016-.594c.01-.208.018-.416.023-.624.01-.209.018-.399.024-.571a3.456 3.456 0 0 1-.133.141l-.211.211-.242.226a3.92 3.92 0 0 1-.243.211l-1.312 1.055-1.172-1.453 3.68-2.93h1.984V126Z" class="reward_val"/>
      </g>
      <g class="neg_reward t4">
        <circle cx="550" cy="421" r="18.5" fill="#CA6D59" stroke="#EBEBEB" stroke-width="5" class="reward_bg"/>
        <path fill="#542300" d="M543.477 422.688v-1.954h4.195v1.954h-4.195ZM554.539 426h-2.414v-7.094l.016-.594c.01-.208.018-.416.023-.624.01-.209.018-.399.024-.571a3.456 3.456 0 0 1-.133.141l-.211.211-.242.226a3.92 3.92 0 0 1-.243.211l-1.312 1.055-1.172-1.453 3.68-2.93h1.984V426Z" class="reward_val"/>
      </g>
      <g class="neg_reward t3">
        <circle cx="450" cy="322" r="18.5" fill="#CA6D59" stroke="#EBEBEB" stroke-width="5" class="reward_bg"/>
        <path fill="#542300" d="M443.477 323.688v-1.954h4.195v1.954h-4.195ZM454.539 327h-2.414v-7.094l.016-.594c.01-.208.018-.416.023-.624.01-.209.018-.399.024-.571a3.456 3.456 0 0 1-.133.141l-.211.211-.242.226a3.92 3.92 0 0 1-.243.211l-1.312 1.055-1.172-1.453 3.68-2.93h1.984V327Z" class="reward_val"/>
      </g>
      <g class="pos_reward t2">
        <circle cx="350" cy="321" r="18.5" fill="#59CAAF" stroke="#EBEBEB" stroke-width="5" class="reward_bg"/>
        <path fill="#005440" d="M344.555 322.219h-2.867v-1.711h2.867v-2.883h1.711v2.883h2.859v1.711h-2.859v2.843h-1.711v-2.843Zm11.64 4.781h-2.414v-7.094l.016-.594c.01-.208.018-.416.023-.624.011-.209.019-.399.024-.571a2.86 2.86 0 0 1-.133.141l-.211.211-.242.226a4.23 4.23 0 0 1-.242.211l-1.313 1.055-1.172-1.453 3.68-2.93h1.984V327Z" class="reward_val"/>
      </g>
      <g class="pos_reward t1">
        <circle cx="250" cy="321" r="18.5" fill="#59CAAF" stroke="#EBEBEB" stroke-width="5" class="reward_bg"/>
        <path fill="#005440" d="M244.555 322.219h-2.867v-1.711h2.867v-2.883h1.711v2.883h2.859v1.711h-2.859v2.843h-1.711v-2.843Zm11.64 4.781h-2.414v-7.094l.016-.594c.01-.208.018-.416.023-.624.011-.209.019-.399.024-.571a2.86 2.86 0 0 1-.133.141l-.211.211-.242.226a4.23 4.23 0 0 1-.242.211l-1.313 1.055-1.172-1.453 3.68-2.93h1.984V327Z" class="reward_val"/>
      </g>
      <g class="neg_reward t0">
        <circle cx="150" cy="221" r="18.5" fill="#CA6D59" stroke="#EBEBEB" stroke-width="5" class="reward_bg"/>
        <path fill="#542300" d="M143.477 223.688v-1.954h4.195v1.954h-4.195ZM154.539 227h-2.414v-7.094l.016-.594c.01-.208.018-.416.023-.624.01-.209.018-.399.024-.571a3.456 3.456 0 0 1-.133.141l-.211.211-.242.226a3.92 3.92 0 0 1-.243.211l-1.312 1.055-1.172-1.453 3.68-2.93h1.984V227Z" class="reward_val"/>
      </g>
    </g>
  </g>
</svg>
