<svg xmlns="http://www.w3.org/2000/svg" width="640" height="400" viewBox="0 0 169.33333 105.83335"><g font-family="Source Sans Pro" letter-spacing="0" word-spacing="0" text-anchor="middle"><path style="line-height:16px;-inkscape-font-specification:'Source Sans Pro Bold';text-align:center" font-weight="700" fill="#f7f6f5" d="M0 0h169.333v105.833H0z"/><g style="line-height:16px;-inkscape-font-specification:'Source Sans Pro Bold';text-align:center" font-weight="700" font-size="21.333" fill="#474747"><path style="-inkscape-font-specification:'Source Sans Pro Semi-Bold'" d="M118.502 18.207h1.356q.332 0 .61.061.283.062.486.21.204.148.32.388.118.234.118.585 0 .333-.117.58-.117.246-.327.412-.203.16-.487.24-.277.074-.603.074h-.641v1.479h-.715zm1.3 1.977q.887 0 .887-.733 0-.382-.221-.524-.222-.147-.666-.147h-.585v1.404zm3.122 3.148q-.388-.634-.603-1.312-.21-.678-.21-1.497 0-.82.21-1.497.215-.678.603-1.312l.444.197q-.351.597-.518 1.263-.16.665-.16 1.349 0 .684.16 1.35.167.664.518 1.262z" font-weight="600" font-size="17.333"/><path style="-inkscape-font-specification:'Source Sans Pro'" d="M126.477 20.1h-1.916q.045.9.252 1.281.259.47.707.47.451 0 .701-.473.22-.415.256-1.278zm-.01-.511q-.083-.855-.246-1.156-.259-.475-.7-.475-.461 0-.705.47-.192.378-.25 1.16zm-.947-2.082q.722 0 1.134.638.412.634.412 1.76 0 1.121-.412 1.76-.412.64-1.134.64-.725 0-1.134-.64-.412-.639-.412-1.76 0-1.126.412-1.76.41-.638 1.134-.638z" font-weight="400"/><path style="-inkscape-font-specification:'Source Sans Pro Semi-Bold'" d="M129.212 17.615h.474v6.16h-.474zm2.803.592h1.078q.924 0 1.441.499.518.499.518 1.497 0 .499-.136.88-.13.383-.382.641-.246.253-.603.382-.352.13-.801.13h-1.115zm1.028 3.45q.616 0 .943-.352.333-.357.333-1.102 0-.74-.333-1.078-.333-.34-.943-.34h-.314v2.872zm2.575 1.478q.352-.598.512-1.263.166-.665.166-1.349 0-.684-.166-1.35-.16-.665-.512-1.262l.444-.197q.388.634.598 1.312.215.678.215 1.497 0 .82-.215 1.497-.21.678-.598 1.312z" font-weight="600" font-size="17.333"/></g><g style="line-height:16px;-inkscape-font-specification:'Source Sans Pro Bold';text-align:center"><path style="-inkscape-font-specification:'Source Sans Pro'" d="M65.502 100.964h-1.916q.045.9.253 1.282.258.469.706.469.452 0 .701-.472.22-.416.256-1.279zm-.009-.511q-.084-.855-.247-1.155-.258-.476-.7-.476-.46 0-.704.47-.193.379-.25 1.16zm-.948-2.082q.722 0 1.134.638.413.635.413 1.76 0 1.122-.413 1.76-.412.64-1.134.64-.724 0-1.134-.64-.412-.638-.412-1.76 0-1.125.412-1.76.41-.638 1.134-.638zm2.485 1.963l.35-.58-.597-.246.092-.283.629.154.055-.665h.302l.055.659.635-.148.092.283-.597.247.345.579-.24.178-.438-.53-.437.53z" font-weight="400" font-size="17.333" fill="#474747"/></g><path style="line-height:16px;-inkscape-font-specification:'Source Sans Pro Bold';text-align:center" d="M6.032 94.73h157.501" font-weight="700" fill="#aea79f" fill-rule="evenodd" stroke="#aea79f" stroke-width=".355"/><path style="line-height:16px;-inkscape-font-specification:'Source Sans Pro Bold';text-align:center" d="M6.032 94.73l29.38.1c10.555.25 13.306-89.358 30.121-89.358 18.002 0 18.79 88.565 62.724 88.768l35.553.165" font-weight="700" fill="#fff" fill-rule="evenodd" stroke="#aea79f" stroke-width=".529"/><path style="line-height:16px;-inkscape-font-specification:'Source Sans Pro Bold';text-align:center" d="M65.28 5.818v88.903" font-weight="700" fill="none" stroke="#aea79f" stroke-width=".355"/><path style="line-height:16px;-inkscape-font-specification:'Source Sans Pro Bold';text-align:center" d="M5.84 94.83h16.336c25.087 0 25.195-89.138 42.724-89.138 17.87.005 18.263 89.138 42.724 89.138h55.666" font-weight="700" fill="#f1e9f1" fill-opacity=".743" fill-rule="evenodd" stroke="#411a35" stroke-width=".529"/><g fill="#5e2750"><path d="M118.938 29.753q0 .35.073.634.074.284.21.48.135.198.326.303.191.104.432.104.24 0 .43-.104.192-.105.327-.302.136-.197.21-.48.074-.284.074-.635 0-.678-.284-1.06-.277-.388-.757-.388t-.764.388q-.277.382-.277 1.06zm2.969 2.975q-.105.05-.271.08-.166.031-.376.031-.604 0-1.01-.283-.407-.284-.604-.727-.326-.056-.591-.222-.265-.173-.456-.437-.191-.265-.296-.623-.099-.357-.099-.794 0-.487.13-.869.13-.388.363-.653.234-.265.56-.407.327-.141.722-.141.394 0 .72.141.327.142.561.407.24.265.37.653.13.382.13.869 0 .419-.1.77-.092.345-.27.61-.18.265-.432.437-.246.173-.554.24.141.24.388.345.252.105.548.105.136 0 .24-.018.111-.019.198-.05zm.533-3.536l.357-.604-.628-.277.117-.37.672.154.067-.696h.388l.068.696.678-.154.117.37-.635.277.358.604-.314.228-.463-.536-.468.536zm3.416 3.69q-.388-.634-.604-1.312-.21-.678-.21-1.497 0-.82.21-1.497.216-.678.604-1.312l.444.197q-.352.598-.518 1.263-.16.665-.16 1.349 0 .684.16 1.35.166.665.518 1.262z" style="line-height:16px;-inkscape-font-specification:'Source Sans Pro Semi-Bold';text-align:center" font-weight="600" font-size="17.333"/><path d="M129.408 29.65h-1.916q.045.9.253 1.281.259.47.707.47.451 0 .7-.473.22-.415.256-1.278zm-.009-.511q-.084-.855-.246-1.156-.259-.475-.701-.475-.46 0-.704.47-.192.378-.25 1.16zm-.947-2.082q.722 0 1.134.638.412.634.412 1.76 0 1.121-.412 1.76-.412.64-1.134.64-.725 0-1.134-.64-.412-.639-.412-1.76 0-1.126.412-1.76.409-.638 1.134-.638z" style="line-height:16px;-inkscape-font-specification:'Source Sans Pro';text-align:center" font-weight="400"/><path d="M132.144 27.165h.474v6.16h-.474zm2.802.592h1.078q.924 0 1.442.499.517.499.517 1.497 0 .499-.135.88-.13.383-.382.641-.246.253-.604.382-.35.13-.8.13h-1.116zm1.03 3.45q.615 0 .942-.352.332-.357.332-1.102 0-.74-.332-1.078-.333-.34-.943-.34h-.314v2.872zm2.574 1.478q.351-.597.512-1.263.166-.665.166-1.349 0-.684-.166-1.35-.16-.664-.512-1.262l.444-.197q.388.634.597 1.312.216.678.216 1.497 0 .82-.216 1.497-.21.678-.597 1.312z" style="line-height:16px;-inkscape-font-specification:'Source Sans Pro Semi-Bold';text-align:center" font-weight="600" font-size="17.333"/></g></g></svg>