<svg xmlns="http://www.w3.org/2000/svg" width="1080" height="560" fill="none" viewBox="0 0 1080 560">
  <g class="epsilon_greedy">
    <path fill="#000" d="M9.797 272.789c0 .422.148.774.445 1.055.297.276.763.435 1.399.476v-3.039c-.266.005-.51.039-.735.102a1.654 1.654 0 0 0-.578.281 1.308 1.308 0 0 0-.39.469 1.444 1.444 0 0 0-.141.656Zm7.36-.305c0 .625-.092 1.201-.274 1.727a3.67 3.67 0 0 1-.82 1.359c-.37.381-.834.677-1.391.891-.563.208-1.222.312-1.977.312-.765 0-1.435-.096-2.008-.289-.572-.192-1.049-.461-1.43-.804a3.323 3.323 0 0 1-.866-1.25 4.405 4.405 0 0 1-.29-1.625c0-.578.09-1.099.266-1.563.172-.469.427-.864.766-1.187a3.345 3.345 0 0 1 1.25-.75c.49-.177 1.052-.266 1.687-.266h1.157v5.328c.333-.01.635-.062.906-.156.265-.099.492-.234.68-.406.182-.177.322-.388.421-.633.1-.25.149-.534.149-.852a6.83 6.83 0 0 0-.04-.75 5.89 5.89 0 0 0-.343-1.359 9.24 9.24 0 0 0-.305-.672h1.844c.11.208.203.419.281.633a5.393 5.393 0 0 1 .297 1.422c.026.271.04.567.04.89Zm0-10.054c0 .286-.032.544-.095.773a2.513 2.513 0 0 1-.601 1.07 3.956 3.956 0 0 1-.422.368v.125c.182-.021.354-.042.516-.063a9.99 9.99 0 0 1 .422-.039c.14-.016.25-.023.328-.023h3.539v2.382H8.266v-1.937l1.132-.336v-.109a3.574 3.574 0 0 1-.5-.375 2.395 2.395 0 0 1-.688-1.118 2.616 2.616 0 0 1-.108-.781c0-.453.096-.864.289-1.234a2.65 2.65 0 0 1 .859-.953c.38-.266.852-.472 1.414-.617.563-.146 1.214-.219 1.953-.219.745 0 1.401.075 1.969.226.562.151 1.036.365 1.422.641.38.271.666.596.86.977.192.375.288.789.288 1.242Zm-7.15.742c0 .266.05.492.15.68.093.182.236.33.429.445.193.114.437.198.734.25.292.052.633.083 1.024.094h.258c.421 0 .796-.024 1.125-.071.328-.052.604-.135.828-.25.218-.114.385-.265.5-.453.114-.193.172-.429.172-.711 0-.474-.224-.82-.672-1.039-.453-.224-1.11-.336-1.97-.336-.858 0-1.502.112-1.929.336-.432.219-.648.571-.648 1.055Zm4.4-11.703c.458 0 .859.083 1.202.25.344.166.63.403.86.711a3.2 3.2 0 0 1 .515 1.117c.115.437.172.927.172 1.469 0 .286-.01.552-.031.797a5.665 5.665 0 0 1-.242 1.328c-.063.203-.14.408-.235.617H14.68a6.83 6.83 0 0 0 .297-.688c.088-.244.166-.487.234-.726.062-.24.112-.472.148-.696.037-.229.055-.44.055-.632a2.33 2.33 0 0 0-.055-.547 1.138 1.138 0 0 0-.164-.367.627.627 0 0 0-.25-.211.72.72 0 0 0-.312-.071.723.723 0 0 0-.29.055c-.088.031-.179.107-.273.227a2.963 2.963 0 0 0-.328.531 14.53 14.53 0 0 0-.453.93c-.172.38-.341.71-.508.992a3.027 3.027 0 0 1-.57.687c-.208.177-.445.31-.711.399a3.12 3.12 0 0 1-.96.132c-.407 0-.761-.078-1.063-.234a2.088 2.088 0 0 1-.766-.664 3.006 3.006 0 0 1-.453-1.031 5.443 5.443 0 0 1-.156-1.352c0-.521.06-1.015.18-1.484.119-.469.299-.951.538-1.445l1.688.718c-.188.396-.341.774-.461 1.133a3.39 3.39 0 0 0-.18 1.078c0 .323.057.557.172.703a.57.57 0 0 0 .469.211.703.703 0 0 0 .281-.054.776.776 0 0 0 .25-.219 3.43 3.43 0 0 0 .281-.461c.1-.198.222-.456.367-.774.162-.369.323-.703.485-1 .156-.296.336-.552.539-.765a2.09 2.09 0 0 1 .71-.492c.272-.115.6-.172.985-.172Zm-8.4-1.781c-.223 0-.408-.034-.554-.102a.925.925 0 0 1-.36-.273 1.05 1.05 0 0 1-.195-.415 2.29 2.29 0 0 1-.054-.507c0-.177.018-.344.054-.5a.986.986 0 0 1 .196-.407.896.896 0 0 1 .36-.281c.145-.073.33-.109.554-.109.219 0 .403.036.554.109a.96.96 0 0 1 .368.281c.088.115.153.25.195.407a2.29 2.29 0 0 1 0 1.007 1.216 1.216 0 0 1-.195.415.994.994 0 0 1-.367.273 1.348 1.348 0 0 1-.555.102ZM17 247.203v2.383H8.266v-2.383H17Zm0-4.89v2.382H4.844v-2.382H17Zm-4.383-4.493c.87 0 1.526-.122 1.969-.367.437-.245.656-.643.656-1.195 0-.547-.221-.943-.664-1.188-.443-.244-1.096-.367-1.96-.367-.87 0-1.519.123-1.946.367-.432.245-.649.646-.649 1.203 0 .547.217.943.649 1.188.427.24 1.075.359 1.945.359Zm0-5.547c.73 0 1.375.094 1.938.282a3.853 3.853 0 0 1 1.422.797c.385.343.68.765.882 1.265.198.495.297 1.052.297 1.672 0 .578-.099 1.109-.297 1.594a3.567 3.567 0 0 1-.882 1.258c-.386.349-.86.622-1.422.82-.563.198-1.209.297-1.938.297-.724 0-1.367-.091-1.93-.274a3.931 3.931 0 0 1-1.414-.796 3.372 3.372 0 0 1-.875-1.266c-.197-.495-.296-1.055-.296-1.68 0-.578.099-1.109.296-1.594.198-.484.49-.901.875-1.25.38-.354.852-.63 1.415-.828.562-.198 1.205-.297 1.93-.297Zm4.383-9.64v2.383h-5.102c-.63 0-1.101.096-1.414.289-.317.187-.476.489-.476.906 0 .312.062.573.187.781.125.209.31.375.555.5.245.12.547.206.906.258.36.052.771.078 1.235.078H17v2.383H8.266v-1.82l1.117-.321v-.132a2.28 2.28 0 0 1-.578-.454 2.636 2.636 0 0 1-.625-1.273 3.446 3.446 0 0 1-.078-.734c0-.428.062-.816.187-1.164.12-.349.31-.649.57-.899.26-.25.594-.443 1-.578.401-.135.883-.203 1.446-.203H17Z" class="epsilon"/>
    <path fill="#000" d="m50 0-8.66 15h17.32L50 0Zm1.5 560V13.5h-3V560h3Z" class="oy"/>
    <g class="oy markers">
      <path stroke="#000" stroke-width="3" d="M41 419.5h18m-18-100h18m-18-100h18m-18-100h18" class="marker"/>
    </g>
    <path fill="#000" d="M526.852 554.258c.234 0 .455-.026.664-.078.213-.052.429-.118.648-.196v1.774a3.517 3.517 0 0 1-.836.281 4.656 4.656 0 0 1-1.078.117c-.38 0-.734-.044-1.062-.133a2.014 2.014 0 0 1-.852-.461c-.24-.223-.43-.52-.57-.89-.136-.375-.204-.844-.204-1.406v-4.211h-1.14v-1.008l1.312-.797.688-1.844h1.523v1.86h2.125v1.789h-2.125v4.211c0 .338.084.588.25.75.167.161.386.242.657.242Zm2.976-9.25c0-.224.034-.409.102-.555a.91.91 0 0 1 .273-.359c.12-.094.258-.159.414-.196a2.333 2.333 0 0 1 1.008 0 .986.986 0 0 1 .406.196c.12.088.214.208.281.359.073.146.11.331.11.555 0 .219-.037.403-.11.554a.938.938 0 0 1-.281.368c-.114.088-.25.153-.406.195a2.333 2.333 0 0 1-1.008 0 1.236 1.236 0 0 1-.414-.195.98.98 0 0 1-.273-.368 1.344 1.344 0 0 1-.102-.554ZM532.312 556h-2.382v-8.734h2.382V556Zm10.008 0h-2.382v-5.102c0-.63-.094-1.101-.282-1.414-.187-.317-.482-.476-.883-.476-.302 0-.554.062-.757.187-.198.125-.357.31-.477.555-.12.245-.206.547-.258.906-.052.36-.078.771-.078 1.235V556h-2.383v-8.734h1.821l.32 1.117h.133c.125-.224.273-.417.445-.578a2.528 2.528 0 0 1 1.242-.625c.235-.052.472-.078.711-.078.599 0 1.107.104 1.524.312.422.203.744.526.968.969h.196c.125-.224.276-.417.453-.578a2.45 2.45 0 0 1 .586-.399c.213-.104.437-.179.672-.226.239-.052.479-.078.718-.078.938 0 1.644.255 2.118.765.479.505.718 1.318.718 2.438V556h-2.39v-5.102c0-.63-.094-1.101-.282-1.414-.187-.317-.481-.476-.882-.476-.568 0-.972.226-1.211.68-.24.447-.36 1.091-.36 1.929V556Zm11.11-7.203c-.422 0-.774.148-1.055.445-.276.297-.435.763-.477 1.399h3.04a3.005 3.005 0 0 0-.102-.735 1.675 1.675 0 0 0-.281-.578 1.303 1.303 0 0 0-.469-.39 1.447 1.447 0 0 0-.656-.141Zm.304 7.359c-.625 0-1.2-.091-1.726-.273a3.675 3.675 0 0 1-1.36-.821 3.794 3.794 0 0 1-.89-1.39c-.209-.563-.313-1.221-.313-1.977 0-.765.097-1.435.289-2.007.193-.573.461-1.05.805-1.43a3.308 3.308 0 0 1 1.25-.867 4.396 4.396 0 0 1 1.625-.289c.578 0 1.099.088 1.563.265.468.172.864.427 1.187.766.328.338.578.755.75 1.25.177.489.266 1.052.266 1.687v1.157h-5.328c.01.333.062.635.156.906.099.265.234.492.406.679.177.183.388.323.633.422.25.099.534.149.851.149.266 0 .516-.013.75-.039a6.077 6.077 0 0 0 1.36-.344 9.29 9.29 0 0 0 .672-.305v1.844c-.209.109-.42.203-.633.281a5.46 5.46 0 0 1-1.422.297 9.374 9.374 0 0 1-.891.039Z" class="time"/>
    <path fill="#000" d="m1080 520-15-8.66v17.32l15-8.66ZM0 521.5h1066.5v-3H0v3Z" class="ox"/>
    <g class="ox markers">
      <path stroke="#000" stroke-width="3" d="M151.5 511v18m100-18v18m100-18v18m100-18v18m100-18v18m100-18v18m100-18v18m100-18v18m100-18v18" class="marker"/>
    </g>
    <path stroke="#59CAAF" stroke-width="5" d="m73 15 78 481h913" class="epsilon"/>
  </g>
</svg>
