<svg width="540" height="247" viewBox="0 0 540 247" fill="none" xmlns="http://www.w3.org/2000/svg">
<mask id="path-1-inside-1_123_127" fill="white">
<path fill-rule="evenodd" clip-rule="evenodd" d="M295.104 17.1131C287.94 6.88902 276.07 0.204224 262.639 0.204224C247.654 0.204224 234.613 8.52414 227.882 20.7965C223.188 19.478 218.238 18.7729 213.122 18.7729C183.04 18.7729 158.654 43.159 158.654 73.2408C158.654 99.4227 177.127 121.29 201.75 126.52C199.902 131.199 198.886 136.299 198.886 141.635C198.886 164.368 217.314 182.796 240.047 182.796C253.734 182.796 265.862 176.115 273.345 165.835C281.723 171.091 291.632 174.13 302.252 174.13C332.333 174.13 356.72 149.744 356.72 119.662L356.72 119.559L356.719 119.446C357.937 119.589 359.177 119.662 360.433 119.662C377.867 119.662 392 105.53 392 88.0957C392 70.662 377.867 56.5291 360.433 56.5291C360.066 56.5291 359.699 56.5354 359.335 56.5478C360.053 53.5641 360.433 50.4489 360.433 47.2447C360.433 25.367 342.698 7.63167 320.82 7.63167C311.005 7.63167 302.024 11.2013 295.104 17.1131Z"/>
</mask>
<path d="M295.104 17.1131L286.914 22.8513L293.23 31.8661L301.599 24.7164L295.104 17.1131ZM227.882 20.7965L225.178 30.4239L232.829 32.5728L236.65 25.6051L227.882 20.7965ZM201.75 126.52L211.051 130.194L215.396 119.195L203.828 116.738L201.75 126.52ZM273.345 165.835L278.659 157.365L270.754 152.405L265.26 159.95L273.345 165.835ZM356.72 119.662L366.72 119.662L366.72 119.652L356.72 119.662ZM356.72 119.559L366.72 119.549L366.72 119.54L366.719 119.53L356.72 119.559ZM356.719 119.446L357.883 109.514L346.687 108.202L346.719 119.475L356.719 119.446ZM359.335 56.5478L349.612 54.2078L346.536 66.9914L359.677 66.542L359.335 56.5478ZM303.294 11.375C294.339 -1.40576 279.469 -9.79578 262.639 -9.79578V10.2042C272.671 10.2042 281.542 15.1838 286.914 22.8513L303.294 11.375ZM262.639 -9.79578C243.858 -9.79578 227.53 0.643234 219.114 15.9878L236.65 25.6051C241.696 16.405 251.45 10.2042 262.639 10.2042V-9.79578ZM230.586 11.169C225.021 9.60577 219.161 8.77286 213.122 8.77286V28.7729C217.315 28.7729 221.356 29.3503 225.178 30.4239L230.586 11.169ZM213.122 8.77286C177.518 8.77286 148.654 37.6362 148.654 73.2408H168.654C168.654 48.6819 188.563 28.7729 213.122 28.7729V8.77286ZM148.654 73.2408C148.654 104.242 170.526 130.111 199.673 136.302L203.828 116.738C183.729 112.469 168.654 94.6039 168.654 73.2408H148.654ZM192.45 122.846C190.147 128.676 188.886 135.021 188.886 141.635H208.886C208.886 137.577 209.657 133.723 211.051 130.194L192.45 122.846ZM188.886 141.635C188.886 169.89 211.792 192.796 240.047 192.796V172.796C222.837 172.796 208.886 158.845 208.886 141.635H188.886ZM240.047 192.796C257.067 192.796 272.145 184.474 281.429 171.721L265.26 159.95C259.578 167.755 250.402 172.796 240.047 172.796V192.796ZM268.031 174.306C277.954 180.532 289.698 184.13 302.252 184.13V164.13C293.566 164.13 285.491 161.651 278.659 157.365L268.031 174.306ZM302.252 184.13C337.856 184.13 366.72 155.267 366.72 119.662H346.72C346.72 144.221 326.811 164.13 302.252 164.13V184.13ZM366.72 119.652L366.72 119.549L346.72 119.569L346.72 119.673L366.72 119.652ZM366.719 119.53L366.719 119.418L346.719 119.475L346.72 119.587L366.719 119.53ZM355.555 129.378C357.159 129.566 358.787 129.662 360.433 129.662V109.662C359.567 109.662 358.716 109.612 357.883 109.514L355.555 129.378ZM360.433 129.662C383.39 129.662 402 111.052 402 88.0957H382C382 100.007 372.344 109.662 360.433 109.662V129.662ZM402 88.0957C402 65.1391 383.39 46.5291 360.433 46.5291V66.5291C372.344 66.5291 382 76.1848 382 88.0957H402ZM360.433 46.5291C359.952 46.5291 359.471 46.5373 358.993 46.5537L359.677 66.542C359.927 66.5334 360.18 66.5291 360.433 66.5291V46.5291ZM350.433 47.2447C350.433 49.6548 350.147 51.9847 349.612 54.2078L369.057 58.8878C369.958 55.1435 370.433 51.243 370.433 47.2447H350.433ZM320.82 17.6317C337.175 17.6317 350.433 30.8899 350.433 47.2447H370.433C370.433 19.8442 348.221 -2.36833 320.82 -2.36833V17.6317ZM301.599 24.7164C306.777 20.293 313.475 17.6317 320.82 17.6317V-2.36833C308.535 -2.36833 297.271 2.1096 288.608 9.50985L301.599 24.7164Z" fill="#12161E" mask="url(#path-1-inside-1_123_127)"/>
<path d="M264 91L252.691 77.8812L246.984 94.2346L264 91ZM71.5058 25.4162L250.76 87.9683L251.748 85.1358L72.4942 22.5838L71.5058 25.4162Z" fill="#C8C8C8"/>
<path d="M452 24L434.906 21.2108L441.037 37.4097L452 24ZM275.531 92.4029L439.905 30.1821L438.843 27.3764L274.469 89.5971L275.531 92.4029Z" fill="#C8C8C8"/>
<path d="M410 152L398.336 139.196L393.079 155.699L410 152ZM274.545 110.429L396.682 149.332L397.592 146.474L275.455 107.571L274.545 110.429Z" fill="#C8C8C8"/>
<path d="M264 109L247.265 104.534L251.765 121.26L264 109ZM67.3897 163.448L251.353 113.956L250.574 111.059L66.6103 160.552L67.3897 163.448Z" fill="#C8C8C8"/>
<path d="M219.518 212.46H217.838V218H215.198V204.18H219.318C222.971 204.18 224.798 205.533 224.798 208.24C224.798 209.16 224.571 209.92 224.118 210.52C223.665 211.12 222.958 211.607 221.998 211.98L225.618 218H222.578L219.518 212.46ZM217.838 210.56H219.478C220.318 210.56 220.951 210.38 221.378 210.02C221.818 209.647 222.038 209.053 222.038 208.24C222.038 207.493 221.811 206.953 221.358 206.62C220.918 206.273 220.218 206.1 219.258 206.1H217.838V210.56ZM235.732 212.46C235.732 212.593 235.712 212.94 235.672 213.5H229.032C229.112 214.527 229.378 215.26 229.832 215.7C230.285 216.14 230.885 216.36 231.632 216.36C232.098 216.36 232.538 216.287 232.952 216.14C233.365 215.98 233.805 215.74 234.272 215.42L235.332 216.88C234.158 217.827 232.852 218.3 231.412 218.3C229.798 218.3 228.552 217.807 227.672 216.82C226.805 215.833 226.372 214.487 226.372 212.78C226.372 211.7 226.558 210.733 226.932 209.88C227.305 209.013 227.845 208.34 228.552 207.86C229.258 207.367 230.098 207.12 231.072 207.12C232.552 207.12 233.698 207.593 234.512 208.54C235.325 209.473 235.732 210.78 235.732 212.46ZM233.192 211.72C233.192 209.867 232.505 208.94 231.132 208.94C230.505 208.94 230.012 209.173 229.652 209.64C229.305 210.093 229.098 210.827 229.032 211.84H233.192V211.72ZM243.508 207.12C244.842 207.12 245.828 207.607 246.468 208.58C247.108 209.553 247.428 210.92 247.428 212.68C247.428 213.773 247.262 214.747 246.928 215.6C246.608 216.44 246.128 217.1 245.488 217.58C244.862 218.06 244.115 218.3 243.248 218.3C242.128 218.3 241.242 217.913 240.588 217.14V222.08L238.028 222.36V207.42H240.268L240.408 208.72C240.822 208.187 241.295 207.787 241.828 207.52C242.362 207.253 242.922 207.12 243.508 207.12ZM242.528 216.34C244.008 216.34 244.748 215.127 244.748 212.7C244.748 211.407 244.582 210.473 244.248 209.9C243.915 209.327 243.415 209.04 242.748 209.04C242.322 209.04 241.922 209.173 241.548 209.44C241.175 209.693 240.855 210.04 240.588 210.48V215.24C241.082 215.973 241.728 216.34 242.528 216.34ZM255.162 207.14C255.549 207.14 255.902 207.187 256.222 207.28L255.782 209.76C255.462 209.68 255.149 209.64 254.842 209.64C254.216 209.64 253.722 209.867 253.362 210.32C253.002 210.76 252.716 211.44 252.502 212.36V218H249.942V207.42H252.162L252.402 209.5C252.656 208.74 253.022 208.16 253.502 207.76C253.982 207.347 254.536 207.14 255.162 207.14ZM265.888 212.46C265.888 212.593 265.868 212.94 265.828 213.5H259.188C259.268 214.527 259.535 215.26 259.988 215.7C260.441 216.14 261.041 216.36 261.788 216.36C262.255 216.36 262.695 216.287 263.108 216.14C263.521 215.98 263.961 215.74 264.428 215.42L265.488 216.88C264.315 217.827 263.008 218.3 261.568 218.3C259.955 218.3 258.708 217.807 257.828 216.82C256.961 215.833 256.528 214.487 256.528 212.78C256.528 211.7 256.715 210.733 257.088 209.88C257.461 209.013 258.001 208.34 258.708 207.86C259.415 207.367 260.255 207.12 261.228 207.12C262.708 207.12 263.855 207.593 264.668 208.54C265.481 209.473 265.888 210.78 265.888 212.46ZM263.348 211.72C263.348 209.867 262.661 208.94 261.288 208.94C260.661 208.94 260.168 209.173 259.808 209.64C259.461 210.093 259.255 210.827 259.188 211.84H263.348V211.72ZM271.525 207.12C272.951 207.12 274.205 207.54 275.285 208.38L274.285 209.88C273.378 209.307 272.491 209.02 271.625 209.02C271.118 209.02 270.725 209.12 270.445 209.32C270.165 209.507 270.025 209.76 270.025 210.08C270.025 210.32 270.085 210.52 270.205 210.68C270.325 210.84 270.538 210.993 270.845 211.14C271.165 211.273 271.631 211.427 272.245 211.6C273.391 211.907 274.238 212.313 274.785 212.82C275.345 213.327 275.625 214.033 275.625 214.94C275.625 215.993 275.198 216.82 274.345 217.42C273.491 218.007 272.431 218.3 271.165 218.3C270.298 218.3 269.505 218.167 268.785 217.9C268.078 217.633 267.465 217.267 266.945 216.8L268.225 215.36C269.145 216.053 270.105 216.4 271.105 216.4C271.678 216.4 272.131 216.287 272.465 216.06C272.811 215.833 272.985 215.52 272.985 215.12C272.985 214.813 272.918 214.573 272.785 214.4C272.665 214.213 272.438 214.053 272.105 213.92C271.785 213.773 271.278 213.6 270.585 213.4C269.505 213.107 268.711 212.7 268.205 212.18C267.698 211.647 267.445 210.987 267.445 210.2C267.445 209.613 267.611 209.087 267.945 208.62C268.291 208.153 268.771 207.787 269.385 207.52C270.011 207.253 270.725 207.12 271.525 207.12ZM286.376 212.46C286.376 212.593 286.356 212.94 286.316 213.5H279.676C279.756 214.527 280.023 215.26 280.476 215.7C280.93 216.14 281.53 216.36 282.276 216.36C282.743 216.36 283.183 216.287 283.596 216.14C284.01 215.98 284.45 215.74 284.916 215.42L285.976 216.88C284.803 217.827 283.496 218.3 282.056 218.3C280.443 218.3 279.196 217.807 278.316 216.82C277.45 215.833 277.016 214.487 277.016 212.78C277.016 211.7 277.203 210.733 277.576 209.88C277.95 209.013 278.49 208.34 279.196 207.86C279.903 207.367 280.743 207.12 281.716 207.12C283.196 207.12 284.343 207.593 285.156 208.54C285.97 209.473 286.376 210.78 286.376 212.46ZM283.836 211.72C283.836 209.867 283.15 208.94 281.776 208.94C281.15 208.94 280.656 209.173 280.296 209.64C279.95 210.093 279.743 210.827 279.676 211.84H283.836V211.72ZM294.313 207.12C295.259 207.12 295.993 207.407 296.513 207.98C297.046 208.54 297.313 209.327 297.313 210.34V218H294.753V210.74C294.753 210.113 294.639 209.673 294.413 209.42C294.199 209.167 293.879 209.04 293.453 209.04C293.013 209.04 292.613 209.18 292.253 209.46C291.906 209.727 291.566 210.12 291.233 210.64V218H288.673V207.42H290.893L291.093 208.8C291.959 207.68 293.033 207.12 294.313 207.12ZM306.354 217.5C305.981 217.767 305.561 217.967 305.094 218.1C304.641 218.233 304.174 218.3 303.694 218.3C302.654 218.287 301.861 217.993 301.314 217.42C300.781 216.833 300.514 215.973 300.514 214.84V209.26H298.854V207.42H300.514V205.08L303.074 204.78V207.42H305.534L305.274 209.26H303.074V214.78C303.074 215.3 303.161 215.673 303.334 215.9C303.521 216.127 303.807 216.24 304.194 216.24C304.581 216.24 305.001 216.113 305.454 215.86L306.354 217.5ZM315.419 215.2C315.419 215.613 315.479 215.92 315.599 216.12C315.732 216.307 315.939 216.453 316.219 216.56L315.679 218.26C315.079 218.207 314.585 218.06 314.199 217.82C313.825 217.58 313.539 217.213 313.339 216.72C312.979 217.253 312.525 217.653 311.979 217.92C311.445 218.173 310.845 218.3 310.179 218.3C309.125 218.3 308.292 218 307.679 217.4C307.065 216.8 306.759 216.013 306.759 215.04C306.759 213.893 307.172 213.02 307.999 212.42C308.839 211.807 310.032 211.5 311.579 211.5H312.899V210.9C312.899 210.22 312.739 209.747 312.419 209.48C312.112 209.2 311.612 209.06 310.919 209.06C310.145 209.06 309.212 209.247 308.119 209.62L307.519 207.88C308.839 207.373 310.119 207.12 311.359 207.12C314.065 207.12 315.419 208.333 315.419 210.76V215.2ZM310.859 216.44C311.725 216.44 312.405 216.007 312.899 215.14V213H311.839C310.185 213 309.359 213.613 309.359 214.84C309.359 215.347 309.485 215.74 309.739 216.02C309.992 216.3 310.365 216.44 310.859 216.44ZM324.577 217.5C324.203 217.767 323.783 217.967 323.317 218.1C322.863 218.233 322.397 218.3 321.917 218.3C320.877 218.287 320.083 217.993 319.537 217.42C319.003 216.833 318.737 215.973 318.737 214.84V209.26H317.077V207.42H318.737V205.08L321.297 204.78V207.42H323.757L323.497 209.26H321.297V214.78C321.297 215.3 321.383 215.673 321.557 215.9C321.743 216.127 322.03 216.24 322.417 216.24C322.803 216.24 323.223 216.113 323.677 215.86L324.577 217.5ZM328.577 207.42V218H326.017V207.42H328.577ZM327.277 202.06C327.757 202.06 328.143 202.213 328.437 202.52C328.743 202.813 328.897 203.18 328.897 203.62C328.897 204.06 328.743 204.427 328.437 204.72C328.143 205.013 327.757 205.16 327.277 205.16C326.81 205.16 326.423 205.013 326.117 204.72C325.823 204.427 325.677 204.06 325.677 203.62C325.677 203.18 325.823 202.813 326.117 202.52C326.423 202.213 326.81 202.06 327.277 202.06ZM335.981 207.12C337.541 207.12 338.754 207.62 339.621 208.62C340.501 209.607 340.941 210.967 340.941 212.7C340.941 213.807 340.741 214.787 340.341 215.64C339.941 216.48 339.368 217.133 338.621 217.6C337.874 218.067 336.988 218.3 335.961 218.3C334.401 218.3 333.181 217.807 332.301 216.82C331.421 215.82 330.981 214.447 330.981 212.7C330.981 211.593 331.181 210.62 331.581 209.78C331.981 208.94 332.554 208.287 333.301 207.82C334.061 207.353 334.954 207.12 335.981 207.12ZM335.981 209.06C334.448 209.06 333.681 210.273 333.681 212.7C333.681 213.953 333.868 214.88 334.241 215.48C334.628 216.067 335.201 216.36 335.961 216.36C336.721 216.36 337.288 216.06 337.661 215.46C338.048 214.86 338.241 213.94 338.241 212.7C338.241 211.46 338.048 210.547 337.661 209.96C337.288 209.36 336.728 209.06 335.981 209.06ZM348.981 207.12C349.927 207.12 350.661 207.407 351.181 207.98C351.714 208.54 351.981 209.327 351.981 210.34V218H349.421V210.74C349.421 210.113 349.307 209.673 349.081 209.42C348.867 209.167 348.547 209.04 348.121 209.04C347.681 209.04 347.281 209.18 346.921 209.46C346.574 209.727 346.234 210.12 345.901 210.64V218H343.341V207.42H345.561L345.761 208.8C346.627 207.68 347.701 207.12 348.981 207.12ZM225.161 231.42L221.721 242H218.661L215.161 231.42H217.941L220.201 239.94L222.521 231.42H225.161ZM235.302 236.46C235.302 236.593 235.282 236.94 235.242 237.5H228.602C228.682 238.527 228.949 239.26 229.402 239.7C229.855 240.14 230.455 240.36 231.202 240.36C231.669 240.36 232.109 240.287 232.522 240.14C232.935 239.98 233.375 239.74 233.842 239.42L234.902 240.88C233.729 241.827 232.422 242.3 230.982 242.3C229.369 242.3 228.122 241.807 227.242 240.82C226.375 239.833 225.942 238.487 225.942 236.78C225.942 235.7 226.129 234.733 226.502 233.88C226.875 233.013 227.415 232.34 228.122 231.86C228.829 231.367 229.669 231.12 230.642 231.12C232.122 231.12 233.269 231.593 234.082 232.54C234.895 233.473 235.302 234.78 235.302 236.46ZM232.762 235.72C232.762 233.867 232.075 232.94 230.702 232.94C230.075 232.94 229.582 233.173 229.222 233.64C228.875 234.093 228.669 234.827 228.602 235.84H232.762V235.72ZM241.859 231.12C242.552 231.12 243.172 231.22 243.719 231.42C244.279 231.62 244.805 231.933 245.299 232.36L244.159 233.9C243.799 233.633 243.452 233.44 243.119 233.32C242.785 233.2 242.419 233.14 242.019 233.14C240.432 233.14 239.639 234.347 239.639 236.76C239.639 237.987 239.845 238.873 240.259 239.42C240.672 239.953 241.259 240.22 242.019 240.22C242.392 240.22 242.732 240.16 243.039 240.04C243.359 239.92 243.732 239.727 244.159 239.46L245.299 241.08C244.299 241.893 243.159 242.3 241.879 242.3C240.865 242.3 239.985 242.08 239.239 241.64C238.492 241.187 237.919 240.547 237.519 239.72C237.119 238.893 236.919 237.92 236.919 236.8C236.919 235.68 237.119 234.693 237.519 233.84C237.919 232.973 238.492 232.307 239.239 231.84C239.985 231.36 240.859 231.12 241.859 231.12ZM253.209 241.5C252.836 241.767 252.416 241.967 251.949 242.1C251.496 242.233 251.029 242.3 250.549 242.3C249.509 242.287 248.716 241.993 248.169 241.42C247.636 240.833 247.369 239.973 247.369 238.84V233.26H245.709V231.42H247.369V229.08L249.929 228.78V231.42H252.389L252.129 233.26H249.929V238.78C249.929 239.3 250.016 239.673 250.189 239.9C250.376 240.127 250.663 240.24 251.049 240.24C251.436 240.24 251.856 240.113 252.309 239.86L253.209 241.5ZM258.637 231.12C260.197 231.12 261.411 231.62 262.277 232.62C263.157 233.607 263.597 234.967 263.597 236.7C263.597 237.807 263.397 238.787 262.997 239.64C262.597 240.48 262.024 241.133 261.277 241.6C260.531 242.067 259.644 242.3 258.617 242.3C257.057 242.3 255.837 241.807 254.957 240.82C254.077 239.82 253.637 238.447 253.637 236.7C253.637 235.593 253.837 234.62 254.237 233.78C254.637 232.94 255.211 232.287 255.957 231.82C256.717 231.353 257.611 231.12 258.637 231.12ZM258.637 233.06C257.104 233.06 256.337 234.273 256.337 236.7C256.337 237.953 256.524 238.88 256.897 239.48C257.284 240.067 257.857 240.36 258.617 240.36C259.377 240.36 259.944 240.06 260.317 239.46C260.704 238.86 260.897 237.94 260.897 236.7C260.897 235.46 260.704 234.547 260.317 233.96C259.944 233.36 259.384 233.06 258.637 233.06ZM271.217 231.14C271.604 231.14 271.957 231.187 272.277 231.28L271.837 233.76C271.517 233.68 271.204 233.64 270.897 233.64C270.27 233.64 269.777 233.867 269.417 234.32C269.057 234.76 268.77 235.44 268.557 236.36V242H265.997V231.42H268.217L268.457 233.5C268.71 232.74 269.077 232.16 269.557 231.76C270.037 231.347 270.59 231.14 271.217 231.14ZM276.428 231.42V242H273.868V231.42H276.428ZM275.128 226.06C275.608 226.06 275.995 226.213 276.288 226.52C276.595 226.813 276.748 227.18 276.748 227.62C276.748 228.06 276.595 228.427 276.288 228.72C275.995 229.013 275.608 229.16 275.128 229.16C274.661 229.16 274.275 229.013 273.968 228.72C273.675 228.427 273.528 228.06 273.528 227.62C273.528 227.18 273.675 226.813 273.968 226.52C274.275 226.213 274.661 226.06 275.128 226.06ZM287.333 239.2C287.333 239.613 287.393 239.92 287.513 240.12C287.646 240.307 287.853 240.453 288.133 240.56L287.593 242.26C286.993 242.207 286.499 242.06 286.113 241.82C285.739 241.58 285.453 241.213 285.253 240.72C284.893 241.253 284.439 241.653 283.893 241.92C283.359 242.173 282.759 242.3 282.093 242.3C281.039 242.3 280.206 242 279.593 241.4C278.979 240.8 278.673 240.013 278.673 239.04C278.673 237.893 279.086 237.02 279.913 236.42C280.753 235.807 281.946 235.5 283.493 235.5H284.813V234.9C284.813 234.22 284.653 233.747 284.333 233.48C284.026 233.2 283.526 233.06 282.833 233.06C282.059 233.06 281.126 233.247 280.033 233.62L279.433 231.88C280.753 231.373 282.033 231.12 283.273 231.12C285.979 231.12 287.333 232.333 287.333 234.76V239.2ZM282.773 240.44C283.639 240.44 284.319 240.007 284.813 239.14V237H283.753C282.099 237 281.273 237.613 281.273 238.84C281.273 239.347 281.399 239.74 281.653 240.02C281.906 240.3 282.279 240.44 282.773 240.44ZM292.735 242.3C291.922 242.3 291.282 242.067 290.815 241.6C290.362 241.12 290.135 240.447 290.135 239.58V227.18L292.695 226.9V239.5C292.695 239.993 292.895 240.24 293.295 240.24C293.495 240.24 293.695 240.207 293.895 240.14L294.435 241.94C293.902 242.18 293.335 242.3 292.735 242.3ZM304.474 231.12C305.9 231.12 307.154 231.54 308.234 232.38L307.234 233.88C306.327 233.307 305.44 233.02 304.574 233.02C304.067 233.02 303.674 233.12 303.394 233.32C303.114 233.507 302.974 233.76 302.974 234.08C302.974 234.32 303.034 234.52 303.154 234.68C303.274 234.84 303.487 234.993 303.794 235.14C304.114 235.273 304.58 235.427 305.194 235.6C306.34 235.907 307.187 236.313 307.734 236.82C308.294 237.327 308.574 238.033 308.574 238.94C308.574 239.993 308.147 240.82 307.294 241.42C306.44 242.007 305.38 242.3 304.114 242.3C303.247 242.3 302.454 242.167 301.734 241.9C301.027 241.633 300.414 241.267 299.894 240.8L301.174 239.36C302.094 240.053 303.054 240.4 304.054 240.4C304.627 240.4 305.08 240.287 305.414 240.06C305.76 239.833 305.934 239.52 305.934 239.12C305.934 238.813 305.867 238.573 305.734 238.4C305.614 238.213 305.387 238.053 305.054 237.92C304.734 237.773 304.227 237.6 303.534 237.4C302.454 237.107 301.66 236.7 301.154 236.18C300.647 235.647 300.394 234.987 300.394 234.2C300.394 233.613 300.56 233.087 300.894 232.62C301.24 232.153 301.72 231.787 302.334 231.52C302.96 231.253 303.674 231.12 304.474 231.12ZM316.125 231.12C317.459 231.12 318.445 231.607 319.085 232.58C319.725 233.553 320.045 234.92 320.045 236.68C320.045 237.773 319.879 238.747 319.545 239.6C319.225 240.44 318.745 241.1 318.105 241.58C317.479 242.06 316.732 242.3 315.865 242.3C314.745 242.3 313.859 241.913 313.205 241.14V246.08L310.645 246.36V231.42H312.885L313.025 232.72C313.439 232.187 313.912 231.787 314.445 231.52C314.979 231.253 315.539 231.12 316.125 231.12ZM315.145 240.34C316.625 240.34 317.365 239.127 317.365 236.7C317.365 235.407 317.199 234.473 316.865 233.9C316.532 233.327 316.032 233.04 315.365 233.04C314.939 233.04 314.539 233.173 314.165 233.44C313.792 233.693 313.472 234.04 313.205 234.48V239.24C313.699 239.973 314.345 240.34 315.145 240.34ZM330.184 239.2C330.184 239.613 330.244 239.92 330.364 240.12C330.498 240.307 330.704 240.453 330.984 240.56L330.444 242.26C329.844 242.207 329.351 242.06 328.964 241.82C328.591 241.58 328.304 241.213 328.104 240.72C327.744 241.253 327.291 241.653 326.744 241.92C326.211 242.173 325.611 242.3 324.944 242.3C323.891 242.3 323.058 242 322.444 241.4C321.831 240.8 321.524 240.013 321.524 239.04C321.524 237.893 321.938 237.02 322.764 236.42C323.604 235.807 324.798 235.5 326.344 235.5H327.664V234.9C327.664 234.22 327.504 233.747 327.184 233.48C326.878 233.2 326.378 233.06 325.684 233.06C324.911 233.06 323.978 233.247 322.884 233.62L322.284 231.88C323.604 231.373 324.884 231.12 326.124 231.12C328.831 231.12 330.184 232.333 330.184 234.76V239.2ZM325.624 240.44C326.491 240.44 327.171 240.007 327.664 239.14V237H326.604C324.951 237 324.124 237.613 324.124 238.84C324.124 239.347 324.251 239.74 324.504 240.02C324.758 240.3 325.131 240.44 325.624 240.44ZM337.542 231.12C338.236 231.12 338.856 231.22 339.402 231.42C339.962 231.62 340.489 231.933 340.982 232.36L339.842 233.9C339.482 233.633 339.136 233.44 338.802 233.32C338.469 233.2 338.102 233.14 337.702 233.14C336.116 233.14 335.322 234.347 335.322 236.76C335.322 237.987 335.529 238.873 335.942 239.42C336.356 239.953 336.942 240.22 337.702 240.22C338.076 240.22 338.416 240.16 338.722 240.04C339.042 239.92 339.416 239.727 339.842 239.46L340.982 241.08C339.982 241.893 338.842 242.3 337.562 242.3C336.549 242.3 335.669 242.08 334.922 241.64C334.176 241.187 333.602 240.547 333.202 239.72C332.802 238.893 332.602 237.92 332.602 236.8C332.602 235.68 332.802 234.693 333.202 233.84C333.602 232.973 334.176 232.307 334.922 231.84C335.669 231.36 336.542 231.12 337.542 231.12ZM351.122 236.46C351.122 236.593 351.102 236.94 351.062 237.5H344.422C344.502 238.527 344.769 239.26 345.222 239.7C345.676 240.14 346.276 240.36 347.022 240.36C347.489 240.36 347.929 240.287 348.342 240.14C348.756 239.98 349.196 239.74 349.662 239.42L350.722 240.88C349.549 241.827 348.242 242.3 346.802 242.3C345.189 242.3 343.942 241.807 343.062 240.82C342.196 239.833 341.762 238.487 341.762 236.78C341.762 235.7 341.949 234.733 342.322 233.88C342.696 233.013 343.236 232.34 343.942 231.86C344.649 231.367 345.489 231.12 346.462 231.12C347.942 231.12 349.089 231.593 349.902 232.54C350.716 233.473 351.122 234.78 351.122 236.46ZM348.582 235.72C348.582 233.867 347.896 232.94 346.522 232.94C345.896 232.94 345.402 233.173 345.042 233.64C344.696 234.093 344.489 234.827 344.422 235.84H348.582V235.72Z" fill="black"/>
<path d="M4.88 18.12C6.30667 18.12 7.56 18.54 8.64 19.38L7.64 20.88C6.73333 20.3067 5.84667 20.02 4.98 20.02C4.47333 20.02 4.08 20.12 3.8 20.32C3.52 20.5067 3.38 20.76 3.38 21.08C3.38 21.32 3.44 21.52 3.56 21.68C3.68 21.84 3.89333 21.9933 4.2 22.14C4.52 22.2733 4.98667 22.4267 5.6 22.6C6.74667 22.9067 7.59333 23.3133 8.14 23.82C8.7 24.3267 8.98 25.0333 8.98 25.94C8.98 26.9933 8.55333 27.82 7.7 28.42C6.84667 29.0067 5.78667 29.3 4.52 29.3C3.65333 29.3 2.86 29.1667 2.14 28.9C1.43333 28.6333 0.82 28.2667 0.3 27.8L1.58 26.36C2.5 27.0533 3.46 27.4 4.46 27.4C5.03333 27.4 5.48667 27.2867 5.82 27.06C6.16667 26.8333 6.34 26.52 6.34 26.12C6.34 25.8133 6.27333 25.5733 6.14 25.4C6.02 25.2133 5.79333 25.0533 5.46 24.92C5.14 24.7733 4.63333 24.6 3.94 24.4C2.86 24.1067 2.06667 23.7 1.56 23.18C1.05333 22.6467 0.8 21.9867 0.8 21.2C0.8 20.6133 0.966667 20.0867 1.3 19.62C1.64667 19.1533 2.12667 18.7867 2.74 18.52C3.36667 18.2533 4.08 18.12 4.88 18.12ZM13.5517 29.3C12.7384 29.3 12.0984 29.0667 11.6317 28.6C11.1784 28.12 10.9517 27.4467 10.9517 26.58V14.18L13.5117 13.9V26.5C13.5117 26.9933 13.7117 27.24 14.1117 27.24C14.3117 27.24 14.5117 27.2067 14.7117 27.14L15.2517 28.94C14.7184 29.18 14.1517 29.3 13.5517 29.3ZM25.5325 23.46C25.5325 23.5933 25.5125 23.94 25.4725 24.5H18.8325C18.9125 25.5267 19.1792 26.26 19.6325 26.7C20.0858 27.14 20.6858 27.36 21.4325 27.36C21.8992 27.36 22.3392 27.2867 22.7525 27.14C23.1658 26.98 23.6058 26.74 24.0725 26.42L25.1325 27.88C23.9592 28.8267 22.6525 29.3 21.2125 29.3C19.5992 29.3 18.3525 28.8067 17.4725 27.82C16.6058 26.8333 16.1725 25.4867 16.1725 23.78C16.1725 22.7 16.3592 21.7333 16.7325 20.88C17.1058 20.0133 17.6458 19.34 18.3525 18.86C19.0592 18.3667 19.8992 18.12 20.8725 18.12C22.3525 18.12 23.4992 18.5933 24.3125 19.54C25.1258 20.4733 25.5325 21.78 25.5325 23.46ZM22.9925 22.72C22.9925 20.8667 22.3058 19.94 20.9325 19.94C20.3058 19.94 19.8125 20.1733 19.4525 20.64C19.1058 21.0933 18.8992 21.8267 18.8325 22.84H22.9925V22.72ZM36.5091 23.46C36.5091 23.5933 36.4891 23.94 36.4491 24.5H29.8091C29.8891 25.5267 30.1557 26.26 30.6091 26.7C31.0624 27.14 31.6624 27.36 32.4091 27.36C32.8757 27.36 33.3157 27.2867 33.7291 27.14C34.1424 26.98 34.5824 26.74 35.0491 26.42L36.1091 27.88C34.9357 28.8267 33.6291 29.3 32.1891 29.3C30.5757 29.3 29.3291 28.8067 28.4491 27.82C27.5824 26.8333 27.1491 25.4867 27.1491 23.78C27.1491 22.7 27.3357 21.7333 27.7091 20.88C28.0824 20.0133 28.6224 19.34 29.3291 18.86C30.0357 18.3667 30.8757 18.12 31.8491 18.12C33.3291 18.12 34.4757 18.5933 35.2891 19.54C36.1024 20.4733 36.5091 21.78 36.5091 23.46ZM33.9691 22.72C33.9691 20.8667 33.2824 19.94 31.9091 19.94C31.2824 19.94 30.7891 20.1733 30.4291 20.64C30.0824 21.0933 29.8757 21.8267 29.8091 22.84H33.9691V22.72ZM44.2856 18.12C45.619 18.12 46.6056 18.6067 47.2456 19.58C47.8856 20.5533 48.2056 21.92 48.2056 23.68C48.2056 24.7733 48.039 25.7467 47.7056 26.6C47.3856 27.44 46.9056 28.1 46.2656 28.58C45.639 29.06 44.8923 29.3 44.0256 29.3C42.9056 29.3 42.019 28.9133 41.3656 28.14V33.08L38.8056 33.36V18.42H41.0456L41.1856 19.72C41.599 19.1867 42.0723 18.7867 42.6056 18.52C43.139 18.2533 43.699 18.12 44.2856 18.12ZM43.3056 27.34C44.7856 27.34 45.5256 26.1267 45.5256 23.7C45.5256 22.4067 45.359 21.4733 45.0256 20.9C44.6923 20.3267 44.1923 20.04 43.5256 20.04C43.099 20.04 42.699 20.1733 42.3256 20.44C41.9523 20.6933 41.6323 21.04 41.3656 21.48V26.24C41.859 26.9733 42.5056 27.34 43.3056 27.34Z" fill="#3CB371"/>
<path d="M465.273 15.84C464.766 15.84 464.4 15.96 464.173 16.2C463.96 16.4267 463.853 16.7933 463.853 17.3V18.42H466.393L466.113 20.26H463.853V29H461.293V20.26H459.573V18.42H461.293V17.26C461.293 16.26 461.613 15.4533 462.253 14.84C462.906 14.2133 463.826 13.9 465.013 13.9C465.946 13.9 466.86 14.1067 467.753 14.52L467.013 16.24C466.44 15.9733 465.86 15.84 465.273 15.84ZM476.387 29H474.167L474.027 27.52C473.64 28.12 473.18 28.5667 472.647 28.86C472.127 29.1533 471.507 29.3 470.787 29.3C469.84 29.3 469.107 29.0133 468.587 28.44C468.08 27.8533 467.827 27.0467 467.827 26.02V18.42H470.387V25.7C470.387 26.3 470.487 26.7267 470.687 26.98C470.9 27.2333 471.233 27.36 471.687 27.36C472.5 27.36 473.213 26.86 473.827 25.86V18.42H476.387V29ZM484.69 18.14C485.076 18.14 485.43 18.1867 485.75 18.28L485.31 20.76C484.99 20.68 484.676 20.64 484.37 20.64C483.743 20.64 483.25 20.8667 482.89 21.32C482.53 21.76 482.243 22.44 482.03 23.36V29H479.47V18.42H481.69L481.93 20.5C482.183 19.74 482.55 19.16 483.03 18.76C483.51 18.3467 484.063 18.14 484.69 18.14ZM489.901 18.42V29H487.341V18.42H489.901ZM488.601 13.06C489.081 13.06 489.467 13.2133 489.761 13.52C490.067 13.8133 490.221 14.18 490.221 14.62C490.221 15.06 490.067 15.4267 489.761 15.72C489.467 16.0133 489.081 16.16 488.601 16.16C488.134 16.16 487.747 16.0133 487.441 15.72C487.147 15.4267 487.001 15.06 487.001 14.62C487.001 14.18 487.147 13.8133 487.441 13.52C487.747 13.2133 488.134 13.06 488.601 13.06ZM497.305 18.12C498.865 18.12 500.079 18.62 500.945 19.62C501.825 20.6067 502.265 21.9667 502.265 23.7C502.265 24.8067 502.065 25.7867 501.665 26.64C501.265 27.48 500.692 28.1333 499.945 28.6C499.199 29.0667 498.312 29.3 497.285 29.3C495.725 29.3 494.505 28.8067 493.625 27.82C492.745 26.82 492.305 25.4467 492.305 23.7C492.305 22.5933 492.505 21.62 492.905 20.78C493.305 19.94 493.879 19.2867 494.625 18.82C495.385 18.3533 496.279 18.12 497.305 18.12ZM497.305 20.06C495.772 20.06 495.005 21.2733 495.005 23.7C495.005 24.9533 495.192 25.88 495.565 26.48C495.952 27.0667 496.525 27.36 497.285 27.36C498.045 27.36 498.612 27.06 498.985 26.46C499.372 25.86 499.565 24.94 499.565 23.7C499.565 22.46 499.372 21.5467 498.985 20.96C498.612 20.36 498.052 20.06 497.305 20.06ZM513.125 29H510.905L510.765 27.52C510.378 28.12 509.918 28.5667 509.385 28.86C508.865 29.1533 508.245 29.3 507.525 29.3C506.578 29.3 505.845 29.0133 505.325 28.44C504.818 27.8533 504.565 27.0467 504.565 26.02V18.42H507.125V25.7C507.125 26.3 507.225 26.7267 507.425 26.98C507.638 27.2333 507.972 27.36 508.425 27.36C509.238 27.36 509.952 26.86 510.565 25.86V18.42H513.125V29ZM519.548 18.12C520.975 18.12 522.228 18.54 523.308 19.38L522.308 20.88C521.401 20.3067 520.515 20.02 519.648 20.02C519.141 20.02 518.748 20.12 518.468 20.32C518.188 20.5067 518.048 20.76 518.048 21.08C518.048 21.32 518.108 21.52 518.228 21.68C518.348 21.84 518.561 21.9933 518.868 22.14C519.188 22.2733 519.655 22.4267 520.268 22.6C521.415 22.9067 522.261 23.3133 522.808 23.82C523.368 24.3267 523.648 25.0333 523.648 25.94C523.648 26.9933 523.221 27.82 522.368 28.42C521.515 29.0067 520.455 29.3 519.188 29.3C518.321 29.3 517.528 29.1667 516.808 28.9C516.101 28.6333 515.488 28.2667 514.968 27.8L516.248 26.36C517.168 27.0533 518.128 27.4 519.128 27.4C519.701 27.4 520.155 27.2867 520.488 27.06C520.835 26.8333 521.008 26.52 521.008 26.12C521.008 25.8133 520.941 25.5733 520.808 25.4C520.688 25.2133 520.461 25.0533 520.128 24.92C519.808 24.7733 519.301 24.6 518.608 24.4C517.528 24.1067 516.735 23.7 516.228 23.18C515.721 22.6467 515.468 21.9867 515.468 21.2C515.468 20.6133 515.635 20.0867 515.968 19.62C516.315 19.1533 516.795 18.7867 517.408 18.52C518.035 18.2533 518.748 18.12 519.548 18.12ZM528.22 29.3C527.406 29.3 526.766 29.0667 526.3 28.6C525.846 28.12 525.62 27.4467 525.62 26.58V14.18L528.18 13.9V26.5C528.18 26.9933 528.38 27.24 528.78 27.24C528.98 27.24 529.18 27.2067 529.38 27.14L529.92 28.94C529.386 29.18 528.82 29.3 528.22 29.3ZM536.543 29.04C536.116 30.3467 535.469 31.36 534.603 32.08C533.736 32.8133 532.549 33.24 531.043 33.36L530.783 31.5C531.476 31.3933 532.029 31.24 532.443 31.04C532.869 30.8533 533.209 30.6 533.463 30.28C533.716 29.96 533.949 29.5333 534.163 29H533.283L529.923 18.42H532.643L534.943 27.3L537.343 18.42H539.983L536.543 29.04Z" fill="#006EFF"/>
<path d="M426.545 156.5C426.172 156.767 425.752 156.967 425.285 157.1C424.832 157.233 424.365 157.3 423.885 157.3C422.845 157.287 422.052 156.993 421.505 156.42C420.972 155.833 420.705 154.973 420.705 153.84V148.26H419.045V146.42H420.705V144.08L423.265 143.78V146.42H425.725L425.465 148.26H423.265V153.78C423.265 154.3 423.352 154.673 423.525 154.9C423.712 155.127 423.999 155.24 424.385 155.24C424.772 155.24 425.192 155.113 425.645 154.86L426.545 156.5ZM433.625 146.12C434.559 146.12 435.292 146.407 435.825 146.98C436.359 147.553 436.625 148.34 436.625 149.34V157H434.065V149.74C434.065 149.113 433.952 148.673 433.725 148.42C433.512 148.167 433.192 148.04 432.765 148.04C432.339 148.04 431.945 148.18 431.585 148.46C431.225 148.727 430.879 149.113 430.545 149.62V157H427.985V142.2L430.545 141.94V147.68C431.399 146.64 432.425 146.12 433.625 146.12ZM448.066 157H445.846L445.706 155.52C445.32 156.12 444.86 156.567 444.326 156.86C443.806 157.153 443.186 157.3 442.466 157.3C441.52 157.3 440.786 157.013 440.266 156.44C439.76 155.853 439.506 155.047 439.506 154.02V146.42H442.066V153.7C442.066 154.3 442.166 154.727 442.366 154.98C442.58 155.233 442.913 155.36 443.366 155.36C444.18 155.36 444.893 154.86 445.506 153.86V146.42H448.066V157ZM456.789 146.12C457.736 146.12 458.469 146.407 458.989 146.98C459.523 147.54 459.789 148.327 459.789 149.34V157H457.229V149.74C457.229 149.113 457.116 148.673 456.889 148.42C456.676 148.167 456.356 148.04 455.929 148.04C455.489 148.04 455.089 148.18 454.729 148.46C454.383 148.727 454.043 149.12 453.709 149.64V157H451.149V146.42H453.369L453.569 147.8C454.436 146.68 455.509 146.12 456.789 146.12ZM471.67 142.18V157H469.41L469.23 155.66C468.897 156.167 468.47 156.567 467.95 156.86C467.444 157.153 466.864 157.3 466.21 157.3C464.917 157.3 463.924 156.8 463.23 155.8C462.537 154.8 462.19 153.44 462.19 151.72C462.19 150.64 462.364 149.68 462.71 148.84C463.057 147.987 463.55 147.32 464.19 146.84C464.844 146.36 465.597 146.12 466.45 146.12C467.464 146.12 468.35 146.5 469.11 147.26V141.9L471.67 142.18ZM466.93 155.36C467.384 155.36 467.784 155.253 468.13 155.04C468.477 154.813 468.804 154.467 469.11 154V149.16C468.804 148.787 468.49 148.507 468.17 148.32C467.864 148.133 467.504 148.04 467.09 148.04C466.41 148.04 465.87 148.347 465.47 148.96C465.084 149.56 464.89 150.473 464.89 151.7C464.89 153.007 465.064 153.947 465.41 154.52C465.757 155.08 466.264 155.36 466.93 155.36ZM483.423 151.46C483.423 151.593 483.403 151.94 483.363 152.5H476.723C476.803 153.527 477.07 154.26 477.523 154.7C477.976 155.14 478.576 155.36 479.323 155.36C479.79 155.36 480.23 155.287 480.643 155.14C481.056 154.98 481.496 154.74 481.963 154.42L483.023 155.88C481.85 156.827 480.543 157.3 479.103 157.3C477.49 157.3 476.243 156.807 475.363 155.82C474.496 154.833 474.063 153.487 474.063 151.78C474.063 150.7 474.25 149.733 474.623 148.88C474.996 148.013 475.536 147.34 476.243 146.86C476.95 146.367 477.79 146.12 478.763 146.12C480.243 146.12 481.39 146.593 482.203 147.54C483.016 148.473 483.423 149.78 483.423 151.46ZM480.883 150.72C480.883 148.867 480.196 147.94 478.823 147.94C478.196 147.94 477.703 148.173 477.343 148.64C476.996 149.093 476.79 149.827 476.723 150.84H480.883V150.72ZM490.94 146.14C491.326 146.14 491.68 146.187 492 146.28L491.56 148.76C491.24 148.68 490.926 148.64 490.62 148.64C489.993 148.64 489.5 148.867 489.14 149.32C488.78 149.76 488.493 150.44 488.28 151.36V157H485.72V146.42H487.94L488.18 148.5C488.433 147.74 488.8 147.16 489.28 146.76C489.76 146.347 490.313 146.14 490.94 146.14ZM497.305 146.12C498.865 146.12 500.079 146.62 500.945 147.62C501.825 148.607 502.265 149.967 502.265 151.7C502.265 152.807 502.065 153.787 501.665 154.64C501.265 155.48 500.692 156.133 499.945 156.6C499.199 157.067 498.312 157.3 497.285 157.3C495.725 157.3 494.505 156.807 493.625 155.82C492.745 154.82 492.305 153.447 492.305 151.7C492.305 150.593 492.505 149.62 492.905 148.78C493.305 147.94 493.879 147.287 494.625 146.82C495.385 146.353 496.279 146.12 497.305 146.12ZM497.305 148.06C495.772 148.06 495.005 149.273 495.005 151.7C495.005 152.953 495.192 153.88 495.565 154.48C495.952 155.067 496.525 155.36 497.285 155.36C498.045 155.36 498.612 155.06 498.985 154.46C499.372 153.86 499.565 152.94 499.565 151.7C499.565 150.46 499.372 149.547 498.985 148.96C498.612 148.36 498.052 148.06 497.305 148.06ZM513.125 157H510.905L510.765 155.52C510.378 156.12 509.918 156.567 509.385 156.86C508.865 157.153 508.245 157.3 507.525 157.3C506.578 157.3 505.845 157.013 505.325 156.44C504.818 155.853 504.565 155.047 504.565 154.02V146.42H507.125V153.7C507.125 154.3 507.225 154.727 507.425 154.98C507.638 155.233 507.972 155.36 508.425 155.36C509.238 155.36 509.952 154.86 510.565 153.86V146.42H513.125V157ZM519.548 146.12C520.975 146.12 522.228 146.54 523.308 147.38L522.308 148.88C521.401 148.307 520.515 148.02 519.648 148.02C519.141 148.02 518.748 148.12 518.468 148.32C518.188 148.507 518.048 148.76 518.048 149.08C518.048 149.32 518.108 149.52 518.228 149.68C518.348 149.84 518.561 149.993 518.868 150.14C519.188 150.273 519.655 150.427 520.268 150.6C521.415 150.907 522.261 151.313 522.808 151.82C523.368 152.327 523.648 153.033 523.648 153.94C523.648 154.993 523.221 155.82 522.368 156.42C521.515 157.007 520.455 157.3 519.188 157.3C518.321 157.3 517.528 157.167 516.808 156.9C516.101 156.633 515.488 156.267 514.968 155.8L516.248 154.36C517.168 155.053 518.128 155.4 519.128 155.4C519.701 155.4 520.155 155.287 520.488 155.06C520.835 154.833 521.008 154.52 521.008 154.12C521.008 153.813 520.941 153.573 520.808 153.4C520.688 153.213 520.461 153.053 520.128 152.92C519.808 152.773 519.301 152.6 518.608 152.4C517.528 152.107 516.735 151.7 516.228 151.18C515.721 150.647 515.468 149.987 515.468 149.2C515.468 148.613 515.635 148.087 515.968 147.62C516.315 147.153 516.795 146.787 517.408 146.52C518.035 146.253 518.748 146.12 519.548 146.12ZM528.22 157.3C527.406 157.3 526.766 157.067 526.3 156.6C525.846 156.12 525.62 155.447 525.62 154.58V142.18L528.18 141.9V154.5C528.18 154.993 528.38 155.24 528.78 155.24C528.98 155.24 529.18 155.207 529.38 155.14L529.92 156.94C529.386 157.18 528.82 157.3 528.22 157.3ZM536.543 157.04C536.116 158.347 535.469 159.36 534.603 160.08C533.736 160.813 532.549 161.24 531.043 161.36L530.783 159.5C531.476 159.393 532.029 159.24 532.443 159.04C532.869 158.853 533.209 158.6 533.463 158.28C533.716 157.96 533.949 157.533 534.163 157H533.283L529.923 146.42H532.643L534.943 155.3L537.343 146.42H539.983L536.543 157.04Z" fill="#98319B"/>
<path d="M7.02 151.12C8.35333 151.12 9.34 151.607 9.98 152.58C10.62 153.553 10.94 154.92 10.94 156.68C10.94 157.773 10.7733 158.747 10.44 159.6C10.12 160.44 9.64 161.1 9 161.58C8.37333 162.06 7.62667 162.3 6.76 162.3C5.64 162.3 4.75333 161.913 4.1 161.14V166.08L1.54 166.36V151.42H3.78L3.92 152.72C4.33333 152.187 4.80667 151.787 5.34 151.52C5.87333 151.253 6.43333 151.12 7.02 151.12ZM6.04 160.34C7.52 160.34 8.26 159.127 8.26 156.7C8.26 155.407 8.09333 154.473 7.76 153.9C7.42667 153.327 6.92667 153.04 6.26 153.04C5.83333 153.04 5.43333 153.173 5.06 153.44C4.68667 153.693 4.36667 154.04 4.1 154.48V159.24C4.59333 159.973 5.24 160.34 6.04 160.34ZM15.9541 162.3C15.1407 162.3 14.5007 162.067 14.0341 161.6C13.5807 161.12 13.3541 160.447 13.3541 159.58V147.18L15.9141 146.9V159.5C15.9141 159.993 16.1141 160.24 16.5141 160.24C16.7141 160.24 16.9141 160.207 17.1141 160.14L17.6541 161.94C17.1207 162.18 16.5541 162.3 15.9541 162.3ZM27.0748 159.2C27.0748 159.613 27.1348 159.92 27.2548 160.12C27.3882 160.307 27.5948 160.453 27.8748 160.56L27.3348 162.26C26.7348 162.207 26.2415 162.06 25.8548 161.82C25.4815 161.58 25.1948 161.213 24.9948 160.72C24.6348 161.253 24.1815 161.653 23.6348 161.92C23.1015 162.173 22.5015 162.3 21.8348 162.3C20.7815 162.3 19.9482 162 19.3348 161.4C18.7215 160.8 18.4148 160.013 18.4148 159.04C18.4148 157.893 18.8282 157.02 19.6548 156.42C20.4948 155.807 21.6882 155.5 23.2348 155.5H24.5548V154.9C24.5548 154.22 24.3948 153.747 24.0748 153.48C23.7682 153.2 23.2682 153.06 22.5748 153.06C21.8015 153.06 20.8682 153.247 19.7748 153.62L19.1748 151.88C20.4948 151.373 21.7748 151.12 23.0148 151.12C25.7215 151.12 27.0748 152.333 27.0748 154.76V159.2ZM22.5148 160.44C23.3815 160.44 24.0615 160.007 24.5548 159.14V157H23.4948C21.8415 157 21.0148 157.613 21.0148 158.84C21.0148 159.347 21.1415 159.74 21.3948 160.02C21.6482 160.3 22.0215 160.44 22.5148 160.44ZM34.9998 162.04C34.5732 163.347 33.9265 164.36 33.0598 165.08C32.1932 165.813 31.0065 166.24 29.4998 166.36L29.2398 164.5C29.9332 164.393 30.4865 164.24 30.8998 164.04C31.3265 163.853 31.6665 163.6 31.9198 163.28C32.1732 162.96 32.4065 162.533 32.6198 162H31.7398L28.3798 151.42H31.0998L33.3998 160.3L35.7998 151.42H38.4398L34.9998 162.04Z" fill="#F3A712"/>
</svg>
