<svg width="992" height="172" viewBox="0 0 992 172" fill="none" xmlns="http://www.w3.org/2000/svg">
<g id="function">
<g id="behaviour">
<path id="stimuli" d="M180.146 156.12C181.572 156.12 182.826 156.54 183.906 157.38L182.906 158.88C181.999 158.307 181.112 158.02 180.246 158.02C179.739 158.02 179.346 158.12 179.066 158.32C178.786 158.507 178.646 158.76 178.646 159.08C178.646 159.32 178.706 159.52 178.826 159.68C178.946 159.84 179.159 159.993 179.466 160.14C179.786 160.273 180.252 160.427 180.866 160.6C182.012 160.907 182.859 161.313 183.406 161.82C183.966 162.327 184.246 163.033 184.246 163.94C184.246 164.993 183.819 165.82 182.966 166.42C182.112 167.007 181.052 167.3 179.786 167.3C178.919 167.3 178.126 167.167 177.406 166.9C176.699 166.633 176.086 166.267 175.566 165.8L176.846 164.36C177.766 165.053 178.726 165.4 179.726 165.4C180.299 165.4 180.752 165.287 181.086 165.06C181.432 164.833 181.606 164.52 181.606 164.12C181.606 163.813 181.539 163.573 181.406 163.4C181.286 163.213 181.059 163.053 180.726 162.92C180.406 162.773 179.899 162.6 179.206 162.4C178.126 162.107 177.332 161.7 176.826 161.18C176.319 160.647 176.066 159.987 176.066 159.2C176.066 158.613 176.232 158.087 176.566 157.62C176.912 157.153 177.392 156.787 178.006 156.52C178.632 156.253 179.346 156.12 180.146 156.12ZM192.377 166.5C192.004 166.767 191.584 166.967 191.117 167.1C190.664 167.233 190.197 167.3 189.717 167.3C188.677 167.287 187.884 166.993 187.337 166.42C186.804 165.833 186.537 164.973 186.537 163.84V158.26H184.877V156.42H186.537V154.08L189.097 153.78V156.42H191.557L191.297 158.26H189.097V163.78C189.097 164.3 189.184 164.673 189.357 164.9C189.544 165.127 189.831 165.24 190.217 165.24C190.604 165.24 191.024 165.113 191.477 164.86L192.377 166.5ZM196.377 156.42V167H193.817V156.42H196.377ZM195.077 151.06C195.557 151.06 195.944 151.213 196.237 151.52C196.544 151.813 196.697 152.18 196.697 152.62C196.697 153.06 196.544 153.427 196.237 153.72C195.944 154.013 195.557 154.16 195.077 154.16C194.611 154.16 194.224 154.013 193.917 153.72C193.624 153.427 193.477 153.06 193.477 152.62C193.477 152.18 193.624 151.813 193.917 151.52C194.224 151.213 194.611 151.06 195.077 151.06ZM210.682 156.12C211.535 156.12 212.215 156.413 212.722 157C213.229 157.573 213.482 158.353 213.482 159.34V167H210.922V159.74C210.922 158.607 210.535 158.04 209.762 158.04C209.349 158.04 208.989 158.173 208.682 158.44C208.389 158.693 208.082 159.093 207.762 159.64V167H205.202V159.74C205.202 158.607 204.815 158.04 204.042 158.04C203.615 158.04 203.249 158.173 202.942 158.44C202.649 158.693 202.342 159.093 202.022 159.64V167H199.462V156.42H201.682L201.882 157.8C202.682 156.68 203.702 156.12 204.942 156.12C205.555 156.12 206.082 156.28 206.522 156.6C206.975 156.907 207.302 157.34 207.502 157.9C207.929 157.327 208.395 156.887 208.902 156.58C209.422 156.273 210.015 156.12 210.682 156.12ZM224.914 167H222.694L222.554 165.52C222.167 166.12 221.707 166.567 221.174 166.86C220.654 167.153 220.034 167.3 219.314 167.3C218.367 167.3 217.634 167.013 217.114 166.44C216.607 165.853 216.354 165.047 216.354 164.02V156.42H218.914V163.7C218.914 164.3 219.014 164.727 219.214 164.98C219.427 165.233 219.761 165.36 220.214 165.36C221.027 165.36 221.741 164.86 222.354 163.86V156.42H224.914V167ZM230.497 167.3C229.684 167.3 229.044 167.067 228.577 166.6C228.124 166.12 227.897 165.447 227.897 164.58V152.18L230.457 151.9V164.5C230.457 164.993 230.657 165.24 231.057 165.24C231.257 165.24 231.457 165.207 231.657 165.14L232.197 166.94C231.664 167.18 231.097 167.3 230.497 167.3ZM236.455 156.42V167H233.895V156.42H236.455ZM235.155 151.06C235.635 151.06 236.022 151.213 236.315 151.52C236.622 151.813 236.775 152.18 236.775 152.62C236.775 153.06 236.622 153.427 236.315 153.72C236.022 154.013 235.635 154.16 235.155 154.16C234.689 154.16 234.302 154.013 233.995 153.72C233.702 153.427 233.555 153.06 233.555 152.62C233.555 152.18 233.702 151.813 233.995 151.52C234.302 151.213 234.689 151.06 235.155 151.06Z" fill="black"/>
<path id="behaviour_2" d="M745.02 156.12C746.247 156.12 747.207 156.613 747.9 157.6C748.593 158.573 748.94 159.94 748.94 161.7C748.94 162.793 748.767 163.767 748.42 164.62C748.087 165.46 747.607 166.12 746.98 166.6C746.353 167.067 745.613 167.3 744.76 167.3C744.187 167.3 743.66 167.18 743.18 166.94C742.713 166.7 742.307 166.36 741.96 165.92L741.8 167H739.54V152.18L742.1 151.9V157.62C742.447 157.14 742.867 156.773 743.36 156.52C743.867 156.253 744.42 156.12 745.02 156.12ZM744.06 165.38C744.753 165.38 745.293 165.087 745.68 164.5C746.067 163.9 746.26 162.967 746.26 161.7C746.26 160.367 746.08 159.427 745.72 158.88C745.36 158.32 744.853 158.04 744.2 158.04C743.387 158.04 742.687 158.52 742.1 159.48V164.16C742.327 164.547 742.607 164.847 742.94 165.06C743.287 165.273 743.66 165.38 744.06 165.38ZM760.134 161.46C760.134 161.593 760.114 161.94 760.074 162.5H753.434C753.514 163.527 753.781 164.26 754.234 164.7C754.687 165.14 755.287 165.36 756.034 165.36C756.501 165.36 756.941 165.287 757.354 165.14C757.767 164.98 758.207 164.74 758.674 164.42L759.734 165.88C758.561 166.827 757.254 167.3 755.814 167.3C754.201 167.3 752.954 166.807 752.074 165.82C751.207 164.833 750.774 163.487 750.774 161.78C750.774 160.7 750.961 159.733 751.334 158.88C751.707 158.013 752.247 157.34 752.954 156.86C753.661 156.367 754.501 156.12 755.474 156.12C756.954 156.12 758.101 156.593 758.914 157.54C759.727 158.473 760.134 159.78 760.134 161.46ZM757.594 160.72C757.594 158.867 756.907 157.94 755.534 157.94C754.907 157.94 754.414 158.173 754.054 158.64C753.707 159.093 753.501 159.827 753.434 160.84H757.594V160.72ZM768.071 156.12C769.004 156.12 769.737 156.407 770.271 156.98C770.804 157.553 771.071 158.34 771.071 159.34V167H768.511V159.74C768.511 159.113 768.397 158.673 768.171 158.42C767.957 158.167 767.637 158.04 767.211 158.04C766.784 158.04 766.391 158.18 766.031 158.46C765.671 158.727 765.324 159.113 764.991 159.62V167H762.431V152.2L764.991 151.94V157.68C765.844 156.64 766.871 156.12 768.071 156.12ZM781.872 164.2C781.872 164.613 781.932 164.92 782.052 165.12C782.185 165.307 782.392 165.453 782.672 165.56L782.132 167.26C781.532 167.207 781.038 167.06 780.652 166.82C780.278 166.58 779.992 166.213 779.792 165.72C779.432 166.253 778.978 166.653 778.432 166.92C777.898 167.173 777.298 167.3 776.632 167.3C775.578 167.3 774.745 167 774.132 166.4C773.518 165.8 773.212 165.013 773.212 164.04C773.212 162.893 773.625 162.02 774.452 161.42C775.292 160.807 776.485 160.5 778.032 160.5H779.352V159.9C779.352 159.22 779.192 158.747 778.872 158.48C778.565 158.2 778.065 158.06 777.372 158.06C776.598 158.06 775.665 158.247 774.572 158.62L773.972 156.88C775.292 156.373 776.572 156.12 777.812 156.12C780.518 156.12 781.872 157.333 781.872 159.76V164.2ZM777.312 165.44C778.178 165.44 778.858 165.007 779.352 164.14V162H778.292C776.638 162 775.812 162.613 775.812 163.84C775.812 164.347 775.938 164.74 776.192 165.02C776.445 165.3 776.818 165.44 777.312 165.44ZM793.177 156.42L789.737 167H786.677L783.177 156.42H785.957L788.217 164.94L790.537 156.42H793.177ZM797.315 156.42V167H794.755V156.42H797.315ZM796.015 151.06C796.495 151.06 796.882 151.213 797.175 151.52C797.482 151.813 797.635 152.18 797.635 152.62C797.635 153.06 797.482 153.427 797.175 153.72C796.882 154.013 796.495 154.16 796.015 154.16C795.548 154.16 795.162 154.013 794.855 153.72C794.562 153.427 794.415 153.06 794.415 152.62C794.415 152.18 794.562 151.813 794.855 151.52C795.162 151.213 795.548 151.06 796.015 151.06ZM804.719 156.12C806.279 156.12 807.493 156.62 808.359 157.62C809.239 158.607 809.679 159.967 809.679 161.7C809.679 162.807 809.479 163.787 809.079 164.64C808.679 165.48 808.106 166.133 807.359 166.6C806.613 167.067 805.726 167.3 804.699 167.3C803.139 167.3 801.919 166.807 801.039 165.82C800.159 164.82 799.719 163.447 799.719 161.7C799.719 160.593 799.919 159.62 800.319 158.78C800.719 157.94 801.293 157.287 802.039 156.82C802.799 156.353 803.693 156.12 804.719 156.12ZM804.719 158.06C803.186 158.06 802.419 159.273 802.419 161.7C802.419 162.953 802.606 163.88 802.979 164.48C803.366 165.067 803.939 165.36 804.699 165.36C805.459 165.36 806.026 165.06 806.399 164.46C806.786 163.86 806.979 162.94 806.979 161.7C806.979 160.46 806.786 159.547 806.399 158.96C806.026 158.36 805.466 158.06 804.719 158.06ZM820.539 167H818.319L818.179 165.52C817.792 166.12 817.332 166.567 816.799 166.86C816.279 167.153 815.659 167.3 814.939 167.3C813.992 167.3 813.259 167.013 812.739 166.44C812.232 165.853 811.979 165.047 811.979 164.02V156.42H814.539V163.7C814.539 164.3 814.639 164.727 814.839 164.98C815.052 165.233 815.386 165.36 815.839 165.36C816.652 165.36 817.366 164.86 817.979 163.86V156.42H820.539V167ZM828.842 156.14C829.229 156.14 829.582 156.187 829.902 156.28L829.462 158.76C829.142 158.68 828.829 158.64 828.522 158.64C827.895 158.64 827.402 158.867 827.042 159.32C826.682 159.76 826.395 160.44 826.182 161.36V167H823.622V156.42H825.842L826.082 158.5C826.335 157.74 826.702 157.16 827.182 156.76C827.662 156.347 828.215 156.14 828.842 156.14Z" fill="black"/>
</g>
<g id="protein">
<path id="protein structure" d="M90.4888 109.12C91.8221 109.12 92.8088 109.607 93.4488 110.58C94.0888 111.553 94.4088 112.92 94.4088 114.68C94.4088 115.773 94.2421 116.747 93.9088 117.6C93.5888 118.44 93.1088 119.1 92.4688 119.58C91.8421 120.06 91.0954 120.3 90.2288 120.3C89.1088 120.3 88.2221 119.913 87.5688 119.14V124.08L85.0088 124.36V109.42H87.2488L87.3888 110.72C87.8021 110.187 88.2754 109.787 88.8088 109.52C89.3421 109.253 89.9021 109.12 90.4888 109.12ZM89.5088 118.34C90.9888 118.34 91.7288 117.127 91.7288 114.7C91.7288 113.407 91.5621 112.473 91.2288 111.9C90.8954 111.327 90.3954 111.04 89.7288 111.04C89.3021 111.04 88.9021 111.173 88.5288 111.44C88.1554 111.693 87.8354 112.04 87.5688 112.48V117.24C88.0621 117.973 88.7088 118.34 89.5088 118.34ZM102.143 109.14C102.529 109.14 102.883 109.187 103.203 109.28L102.763 111.76C102.443 111.68 102.129 111.64 101.823 111.64C101.196 111.64 100.703 111.867 100.343 112.32C99.9828 112.76 99.6961 113.44 99.4828 114.36V120H96.9228V109.42H99.1428L99.3828 111.5C99.6361 110.74 100.003 110.16 100.483 109.76C100.963 109.347 101.516 109.14 102.143 109.14ZM108.508 109.12C110.068 109.12 111.282 109.62 112.148 110.62C113.028 111.607 113.468 112.967 113.468 114.7C113.468 115.807 113.268 116.787 112.868 117.64C112.468 118.48 111.895 119.133 111.148 119.6C110.402 120.067 109.515 120.3 108.488 120.3C106.928 120.3 105.708 119.807 104.828 118.82C103.948 117.82 103.508 116.447 103.508 114.7C103.508 113.593 103.708 112.62 104.108 111.78C104.508 110.94 105.082 110.287 105.828 109.82C106.588 109.353 107.482 109.12 108.508 109.12ZM108.508 111.06C106.975 111.06 106.208 112.273 106.208 114.7C106.208 115.953 106.395 116.88 106.768 117.48C107.155 118.067 107.728 118.36 108.488 118.36C109.248 118.36 109.815 118.06 110.188 117.46C110.575 116.86 110.768 115.94 110.768 114.7C110.768 113.46 110.575 112.547 110.188 111.96C109.815 111.36 109.255 111.06 108.508 111.06ZM121.928 119.5C121.555 119.767 121.135 119.967 120.668 120.1C120.215 120.233 119.748 120.3 119.268 120.3C118.228 120.287 117.435 119.993 116.888 119.42C116.355 118.833 116.088 117.973 116.088 116.84V111.26H114.428V109.42H116.088V107.08L118.648 106.78V109.42H121.108L120.848 111.26H118.648V116.78C118.648 117.3 118.735 117.673 118.908 117.9C119.095 118.127 119.381 118.24 119.768 118.24C120.155 118.24 120.575 118.113 121.028 117.86L121.928 119.5ZM131.716 114.46C131.716 114.593 131.696 114.94 131.656 115.5H125.016C125.096 116.527 125.363 117.26 125.816 117.7C126.269 118.14 126.869 118.36 127.616 118.36C128.083 118.36 128.523 118.287 128.936 118.14C129.349 117.98 129.789 117.74 130.256 117.42L131.316 118.88C130.143 119.827 128.836 120.3 127.396 120.3C125.783 120.3 124.536 119.807 123.656 118.82C122.789 117.833 122.356 116.487 122.356 114.78C122.356 113.7 122.543 112.733 122.916 111.88C123.289 111.013 123.829 110.34 124.536 109.86C125.243 109.367 126.083 109.12 127.056 109.12C128.536 109.12 129.683 109.593 130.496 110.54C131.309 111.473 131.716 112.78 131.716 114.46ZM129.176 113.72C129.176 111.867 128.489 110.94 127.116 110.94C126.489 110.94 125.996 111.173 125.636 111.64C125.289 112.093 125.083 112.827 125.016 113.84H129.176V113.72ZM136.573 109.42V120H134.013V109.42H136.573ZM135.273 104.06C135.753 104.06 136.139 104.213 136.433 104.52C136.739 104.813 136.893 105.18 136.893 105.62C136.893 106.06 136.739 106.427 136.433 106.72C136.139 107.013 135.753 107.16 135.273 107.16C134.806 107.16 134.419 107.013 134.113 106.72C133.819 106.427 133.673 106.06 133.673 105.62C133.673 105.18 133.819 104.813 134.113 104.52C134.419 104.213 134.806 104.06 135.273 104.06ZM145.297 109.12C146.244 109.12 146.977 109.407 147.497 109.98C148.031 110.54 148.297 111.327 148.297 112.34V120H145.737V112.74C145.737 112.113 145.624 111.673 145.397 111.42C145.184 111.167 144.864 111.04 144.437 111.04C143.997 111.04 143.597 111.18 143.237 111.46C142.891 111.727 142.551 112.12 142.217 112.64V120H139.657V109.42H141.877L142.077 110.8C142.944 109.68 144.017 109.12 145.297 109.12ZM159.618 109.12C161.045 109.12 162.298 109.54 163.378 110.38L162.378 111.88C161.472 111.307 160.585 111.02 159.718 111.02C159.212 111.02 158.818 111.12 158.538 111.32C158.258 111.507 158.118 111.76 158.118 112.08C158.118 112.32 158.178 112.52 158.298 112.68C158.418 112.84 158.632 112.993 158.938 113.14C159.258 113.273 159.725 113.427 160.338 113.6C161.485 113.907 162.332 114.313 162.878 114.82C163.438 115.327 163.718 116.033 163.718 116.94C163.718 117.993 163.292 118.82 162.438 119.42C161.585 120.007 160.525 120.3 159.258 120.3C158.392 120.3 157.598 120.167 156.878 119.9C156.172 119.633 155.558 119.267 155.038 118.8L156.318 117.36C157.238 118.053 158.198 118.4 159.198 118.4C159.772 118.4 160.225 118.287 160.558 118.06C160.905 117.833 161.078 117.52 161.078 117.12C161.078 116.813 161.012 116.573 160.878 116.4C160.758 116.213 160.532 116.053 160.198 115.92C159.878 115.773 159.372 115.6 158.678 115.4C157.598 115.107 156.805 114.7 156.298 114.18C155.792 113.647 155.538 112.987 155.538 112.2C155.538 111.613 155.705 111.087 156.038 110.62C156.385 110.153 156.865 109.787 157.478 109.52C158.105 109.253 158.818 109.12 159.618 109.12ZM171.85 119.5C171.477 119.767 171.057 119.967 170.59 120.1C170.137 120.233 169.67 120.3 169.19 120.3C168.15 120.287 167.357 119.993 166.81 119.42C166.277 118.833 166.01 117.973 166.01 116.84V111.26H164.35V109.42H166.01V107.08L168.57 106.78V109.42H171.03L170.77 111.26H168.57V116.78C168.57 117.3 168.657 117.673 168.83 117.9C169.017 118.127 169.303 118.24 169.69 118.24C170.077 118.24 170.497 118.113 170.95 117.86L171.85 119.5ZM178.51 109.14C178.897 109.14 179.25 109.187 179.57 109.28L179.13 111.76C178.81 111.68 178.497 111.64 178.19 111.64C177.563 111.64 177.07 111.867 176.71 112.32C176.35 112.76 176.063 113.44 175.85 114.36V120H173.29V109.42H175.51L175.75 111.5C176.003 110.74 176.37 110.16 176.85 109.76C177.33 109.347 177.883 109.14 178.51 109.14ZM189.621 120H187.401L187.261 118.52C186.874 119.12 186.414 119.567 185.881 119.86C185.361 120.153 184.741 120.3 184.021 120.3C183.074 120.3 182.341 120.013 181.821 119.44C181.314 118.853 181.061 118.047 181.061 117.02V109.42H183.621V116.7C183.621 117.3 183.721 117.727 183.921 117.98C184.134 118.233 184.468 118.36 184.921 118.36C185.734 118.36 186.448 117.86 187.061 116.86V109.42H189.621V120ZM196.964 109.12C197.657 109.12 198.277 109.22 198.824 109.42C199.384 109.62 199.911 109.933 200.404 110.36L199.264 111.9C198.904 111.633 198.557 111.44 198.224 111.32C197.891 111.2 197.524 111.14 197.124 111.14C195.537 111.14 194.744 112.347 194.744 114.76C194.744 115.987 194.951 116.873 195.364 117.42C195.777 117.953 196.364 118.22 197.124 118.22C197.497 118.22 197.837 118.16 198.144 118.04C198.464 117.92 198.837 117.727 199.264 117.46L200.404 119.08C199.404 119.893 198.264 120.3 196.984 120.3C195.971 120.3 195.091 120.08 194.344 119.64C193.597 119.187 193.024 118.547 192.624 117.72C192.224 116.893 192.024 115.92 192.024 114.8C192.024 113.68 192.224 112.693 192.624 111.84C193.024 110.973 193.597 110.307 194.344 109.84C195.091 109.36 195.964 109.12 196.964 109.12ZM208.315 119.5C207.942 119.767 207.522 119.967 207.055 120.1C206.602 120.233 206.135 120.3 205.655 120.3C204.615 120.287 203.822 119.993 203.275 119.42C202.742 118.833 202.475 117.973 202.475 116.84V111.26H200.815V109.42H202.475V107.08L205.035 106.78V109.42H207.495L207.235 111.26H205.035V116.78C205.035 117.3 205.122 117.673 205.295 117.9C205.482 118.127 205.768 118.24 206.155 118.24C206.542 118.24 206.962 118.113 207.415 117.86L208.315 119.5ZM218.215 120H215.995L215.855 118.52C215.468 119.12 215.008 119.567 214.475 119.86C213.955 120.153 213.335 120.3 212.615 120.3C211.668 120.3 210.935 120.013 210.415 119.44C209.908 118.853 209.655 118.047 209.655 117.02V109.42H212.215V116.7C212.215 117.3 212.315 117.727 212.515 117.98C212.728 118.233 213.062 118.36 213.515 118.36C214.328 118.36 215.042 117.86 215.655 116.86V109.42H218.215V120ZM226.518 109.14C226.904 109.14 227.258 109.187 227.578 109.28L227.138 111.76C226.818 111.68 226.504 111.64 226.198 111.64C225.571 111.64 225.078 111.867 224.718 112.32C224.358 112.76 224.071 113.44 223.858 114.36V120H221.298V109.42H223.518L223.758 111.5C224.011 110.74 224.378 110.16 224.858 109.76C225.338 109.347 225.891 109.14 226.518 109.14ZM237.243 114.46C237.243 114.593 237.223 114.94 237.183 115.5H230.543C230.623 116.527 230.89 117.26 231.343 117.7C231.797 118.14 232.397 118.36 233.143 118.36C233.61 118.36 234.05 118.287 234.463 118.14C234.877 117.98 235.317 117.74 235.783 117.42L236.843 118.88C235.67 119.827 234.363 120.3 232.923 120.3C231.31 120.3 230.063 119.807 229.183 118.82C228.317 117.833 227.883 116.487 227.883 114.78C227.883 113.7 228.07 112.733 228.443 111.88C228.817 111.013 229.357 110.34 230.063 109.86C230.77 109.367 231.61 109.12 232.583 109.12C234.063 109.12 235.21 109.593 236.023 110.54C236.837 111.473 237.243 112.78 237.243 114.46ZM234.703 113.72C234.703 111.867 234.017 110.94 232.643 110.94C232.017 110.94 231.523 111.173 231.163 111.64C230.817 112.093 230.61 112.827 230.543 113.84H234.703V113.72Z" fill="black"/>
<path id="protein function" d="M745.02 109.12C746.353 109.12 747.34 109.607 747.98 110.58C748.62 111.553 748.94 112.92 748.94 114.68C748.94 115.773 748.773 116.747 748.44 117.6C748.12 118.44 747.64 119.1 747 119.58C746.373 120.06 745.627 120.3 744.76 120.3C743.64 120.3 742.753 119.913 742.1 119.14V124.08L739.54 124.36V109.42H741.78L741.92 110.72C742.333 110.187 742.807 109.787 743.34 109.52C743.873 109.253 744.433 109.12 745.02 109.12ZM744.04 118.34C745.52 118.34 746.26 117.127 746.26 114.7C746.26 113.407 746.093 112.473 745.76 111.9C745.427 111.327 744.927 111.04 744.26 111.04C743.833 111.04 743.433 111.173 743.06 111.44C742.687 111.693 742.367 112.04 742.1 112.48V117.24C742.593 117.973 743.24 118.34 744.04 118.34ZM756.674 109.14C757.061 109.14 757.414 109.187 757.734 109.28L757.294 111.76C756.974 111.68 756.661 111.64 756.354 111.64C755.727 111.64 755.234 111.867 754.874 112.32C754.514 112.76 754.227 113.44 754.014 114.36V120H751.454V109.42H753.674L753.914 111.5C754.167 110.74 754.534 110.16 755.014 109.76C755.494 109.347 756.047 109.14 756.674 109.14ZM763.04 109.12C764.6 109.12 765.813 109.62 766.68 110.62C767.56 111.607 768 112.967 768 114.7C768 115.807 767.8 116.787 767.4 117.64C767 118.48 766.426 119.133 765.68 119.6C764.933 120.067 764.046 120.3 763.02 120.3C761.46 120.3 760.24 119.807 759.36 118.82C758.48 117.82 758.04 116.447 758.04 114.7C758.04 113.593 758.24 112.62 758.64 111.78C759.04 110.94 759.613 110.287 760.36 109.82C761.12 109.353 762.013 109.12 763.04 109.12ZM763.04 111.06C761.506 111.06 760.74 112.273 760.74 114.7C760.74 115.953 760.926 116.88 761.3 117.48C761.686 118.067 762.26 118.36 763.02 118.36C763.78 118.36 764.346 118.06 764.72 117.46C765.106 116.86 765.3 115.94 765.3 114.7C765.3 113.46 765.106 112.547 764.72 111.96C764.346 111.36 763.786 111.06 763.04 111.06ZM776.459 119.5C776.086 119.767 775.666 119.967 775.199 120.1C774.746 120.233 774.279 120.3 773.799 120.3C772.759 120.287 771.966 119.993 771.419 119.42C770.886 118.833 770.619 117.973 770.619 116.84V111.26H768.959V109.42H770.619V107.08L773.179 106.78V109.42H775.639L775.379 111.26H773.179V116.78C773.179 117.3 773.266 117.673 773.439 117.9C773.626 118.127 773.913 118.24 774.299 118.24C774.686 118.24 775.106 118.113 775.559 117.86L776.459 119.5ZM786.247 114.46C786.247 114.593 786.227 114.94 786.187 115.5H779.547C779.627 116.527 779.894 117.26 780.347 117.7C780.801 118.14 781.401 118.36 782.147 118.36C782.614 118.36 783.054 118.287 783.467 118.14C783.881 117.98 784.321 117.74 784.787 117.42L785.847 118.88C784.674 119.827 783.367 120.3 781.927 120.3C780.314 120.3 779.067 119.807 778.187 118.82C777.321 117.833 776.887 116.487 776.887 114.78C776.887 113.7 777.074 112.733 777.447 111.88C777.821 111.013 778.361 110.34 779.067 109.86C779.774 109.367 780.614 109.12 781.587 109.12C783.067 109.12 784.214 109.593 785.027 110.54C785.841 111.473 786.247 112.78 786.247 114.46ZM783.707 113.72C783.707 111.867 783.021 110.94 781.647 110.94C781.021 110.94 780.527 111.173 780.167 111.64C779.821 112.093 779.614 112.827 779.547 113.84H783.707V113.72ZM791.104 109.42V120H788.544V109.42H791.104ZM789.804 104.06C790.284 104.06 790.671 104.213 790.964 104.52C791.271 104.813 791.424 105.18 791.424 105.62C791.424 106.06 791.271 106.427 790.964 106.72C790.671 107.013 790.284 107.16 789.804 107.16C789.337 107.16 788.951 107.013 788.644 106.72C788.351 106.427 788.204 106.06 788.204 105.62C788.204 105.18 788.351 104.813 788.644 104.52C788.951 104.213 789.337 104.06 789.804 104.06ZM799.828 109.12C800.775 109.12 801.508 109.407 802.028 109.98C802.562 110.54 802.828 111.327 802.828 112.34V120H800.268V112.74C800.268 112.113 800.155 111.673 799.928 111.42C799.715 111.167 799.395 111.04 798.968 111.04C798.528 111.04 798.128 111.18 797.768 111.46C797.422 111.727 797.082 112.12 796.748 112.64V120H794.188V109.42H796.408L796.608 110.8C797.475 109.68 798.548 109.12 799.828 109.12ZM815.09 106.84C814.583 106.84 814.216 106.96 813.99 107.2C813.776 107.427 813.67 107.793 813.67 108.3V109.42H816.21L815.93 111.26H813.67V120H811.11V111.26H809.39V109.42H811.11V108.26C811.11 107.26 811.43 106.453 812.07 105.84C812.723 105.213 813.643 104.9 814.83 104.9C815.763 104.9 816.676 105.107 817.57 105.52L816.83 107.24C816.256 106.973 815.676 106.84 815.09 106.84ZM826.203 120H823.983L823.843 118.52C823.456 119.12 822.996 119.567 822.463 119.86C821.943 120.153 821.323 120.3 820.603 120.3C819.656 120.3 818.923 120.013 818.403 119.44C817.896 118.853 817.643 118.047 817.643 117.02V109.42H820.203V116.7C820.203 117.3 820.303 117.727 820.503 117.98C820.716 118.233 821.05 118.36 821.503 118.36C822.316 118.36 823.03 117.86 823.643 116.86V109.42H826.203V120ZM834.926 109.12C835.873 109.12 836.606 109.407 837.126 109.98C837.659 110.54 837.926 111.327 837.926 112.34V120H835.366V112.74C835.366 112.113 835.253 111.673 835.026 111.42C834.813 111.167 834.493 111.04 834.066 111.04C833.626 111.04 833.226 111.18 832.866 111.46C832.519 111.727 832.179 112.12 831.846 112.64V120H829.286V109.42H831.506L831.706 110.8C832.573 109.68 833.646 109.12 834.926 109.12ZM845.167 109.12C845.861 109.12 846.481 109.22 847.027 109.42C847.587 109.62 848.114 109.933 848.607 110.36L847.467 111.9C847.107 111.633 846.761 111.44 846.427 111.32C846.094 111.2 845.727 111.14 845.327 111.14C843.741 111.14 842.947 112.347 842.947 114.76C842.947 115.987 843.154 116.873 843.567 117.42C843.981 117.953 844.567 118.22 845.327 118.22C845.701 118.22 846.041 118.16 846.347 118.04C846.667 117.92 847.041 117.727 847.467 117.46L848.607 119.08C847.607 119.893 846.467 120.3 845.187 120.3C844.174 120.3 843.294 120.08 842.547 119.64C841.801 119.187 841.227 118.547 840.827 117.72C840.427 116.893 840.227 115.92 840.227 114.8C840.227 113.68 840.427 112.693 840.827 111.84C841.227 110.973 841.801 110.307 842.547 109.84C843.294 109.36 844.167 109.12 845.167 109.12ZM856.518 119.5C856.145 119.767 855.725 119.967 855.258 120.1C854.805 120.233 854.338 120.3 853.858 120.3C852.818 120.287 852.025 119.993 851.478 119.42C850.945 118.833 850.678 117.973 850.678 116.84V111.26H849.018V109.42H850.678V107.08L853.238 106.78V109.42H855.698L855.438 111.26H853.238V116.78C853.238 117.3 853.325 117.673 853.498 117.9C853.685 118.127 853.971 118.24 854.358 118.24C854.745 118.24 855.165 118.113 855.618 117.86L856.518 119.5ZM860.518 109.42V120H857.958V109.42H860.518ZM859.218 104.06C859.698 104.06 860.085 104.213 860.378 104.52C860.685 104.813 860.838 105.18 860.838 105.62C860.838 106.06 860.685 106.427 860.378 106.72C860.085 107.013 859.698 107.16 859.218 107.16C858.751 107.16 858.365 107.013 858.058 106.72C857.765 106.427 857.618 106.06 857.618 105.62C857.618 105.18 857.765 104.813 858.058 104.52C858.365 104.213 858.751 104.06 859.218 104.06ZM867.923 109.12C869.483 109.12 870.696 109.62 871.563 110.62C872.443 111.607 872.883 112.967 872.883 114.7C872.883 115.807 872.683 116.787 872.283 117.64C871.883 118.48 871.309 119.133 870.563 119.6C869.816 120.067 868.929 120.3 867.903 120.3C866.343 120.3 865.123 119.807 864.243 118.82C863.363 117.82 862.923 116.447 862.923 114.7C862.923 113.593 863.123 112.62 863.523 111.78C863.923 110.94 864.496 110.287 865.243 109.82C866.003 109.353 866.896 109.12 867.923 109.12ZM867.923 111.06C866.389 111.06 865.623 112.273 865.623 114.7C865.623 115.953 865.809 116.88 866.183 117.48C866.569 118.067 867.143 118.36 867.903 118.36C868.663 118.36 869.229 118.06 869.603 117.46C869.989 116.86 870.183 115.94 870.183 114.7C870.183 113.46 869.989 112.547 869.603 111.96C869.229 111.36 868.669 111.06 867.923 111.06ZM880.922 109.12C881.869 109.12 882.602 109.407 883.122 109.98C883.656 110.54 883.922 111.327 883.922 112.34V120H881.362V112.74C881.362 112.113 881.249 111.673 881.022 111.42C880.809 111.167 880.489 111.04 880.062 111.04C879.622 111.04 879.222 111.18 878.862 111.46C878.516 111.727 878.176 112.12 877.842 112.64V120H875.282V109.42H877.502L877.702 110.8C878.569 109.68 879.642 109.12 880.922 109.12Z" fill="black"/>
</g>
<g id="population">
<path id="population size at time t" d="M22.813 62.12C24.1463 62.12 25.133 62.6067 25.773 63.58C26.413 64.5533 26.733 65.92 26.733 67.68C26.733 68.7733 26.5663 69.7467 26.233 70.6C25.913 71.44 25.433 72.1 24.793 72.58C24.1663 73.06 23.4196 73.3 22.553 73.3C21.433 73.3 20.5463 72.9133 19.893 72.14V77.08L17.333 77.36V62.42H19.573L19.713 63.72C20.1263 63.1867 20.5996 62.7867 21.133 62.52C21.6663 62.2533 22.2263 62.12 22.813 62.12ZM21.833 71.34C23.313 71.34 24.053 70.1267 24.053 67.7C24.053 66.4067 23.8863 65.4733 23.553 64.9C23.2196 64.3267 22.7196 64.04 22.053 64.04C21.6263 64.04 21.2263 64.1733 20.853 64.44C20.4796 64.6933 20.1596 65.04 19.893 65.48V70.24C20.3863 70.9733 21.033 71.34 21.833 71.34ZM33.567 62.12C35.127 62.12 36.3404 62.62 37.207 63.62C38.087 64.6067 38.527 65.9667 38.527 67.7C38.527 68.8067 38.327 69.7867 37.927 70.64C37.527 71.48 36.9537 72.1333 36.207 72.6C35.4604 73.0667 34.5737 73.3 33.547 73.3C31.987 73.3 30.767 72.8067 29.887 71.82C29.007 70.82 28.567 69.4467 28.567 67.7C28.567 66.5933 28.767 65.62 29.167 64.78C29.567 63.94 30.1404 63.2867 30.887 62.82C31.647 62.3533 32.5404 62.12 33.567 62.12ZM33.567 64.06C32.0337 64.06 31.267 65.2733 31.267 67.7C31.267 68.9533 31.4537 69.88 31.827 70.48C32.2137 71.0667 32.787 71.36 33.547 71.36C34.307 71.36 34.8737 71.06 35.247 70.46C35.6337 69.86 35.827 68.94 35.827 67.7C35.827 66.46 35.6337 65.5467 35.247 64.96C34.8737 64.36 34.3137 64.06 33.567 64.06ZM46.4067 62.12C47.7401 62.12 48.7267 62.6067 49.3667 63.58C50.0067 64.5533 50.3267 65.92 50.3267 67.68C50.3267 68.7733 50.1601 69.7467 49.8267 70.6C49.5067 71.44 49.0267 72.1 48.3867 72.58C47.7601 73.06 47.0134 73.3 46.1467 73.3C45.0267 73.3 44.1401 72.9133 43.4867 72.14V77.08L40.9267 77.36V62.42H43.1667L43.3067 63.72C43.7201 63.1867 44.1934 62.7867 44.7267 62.52C45.2601 62.2533 45.8201 62.12 46.4067 62.12ZM45.4267 71.34C46.9067 71.34 47.6467 70.1267 47.6467 67.7C47.6467 66.4067 47.4801 65.4733 47.1467 64.9C46.8134 64.3267 46.3134 64.04 45.6467 64.04C45.2201 64.04 44.8201 64.1733 44.4467 64.44C44.0734 64.6933 43.7534 65.04 43.4867 65.48V70.24C43.9801 70.9733 44.6267 71.34 45.4267 71.34ZM61.3008 73H59.0808L58.9408 71.52C58.5541 72.12 58.0941 72.5667 57.5608 72.86C57.0408 73.1533 56.4208 73.3 55.7008 73.3C54.7541 73.3 54.0208 73.0133 53.5008 72.44C52.9941 71.8533 52.7408 71.0467 52.7408 70.02V62.42H55.3008V69.7C55.3008 70.3 55.4008 70.7267 55.6008 70.98C55.8141 71.2333 56.1474 71.36 56.6008 71.36C57.4141 71.36 58.1274 70.86 58.7408 69.86V62.42H61.3008V73ZM66.8838 73.3C66.0704 73.3 65.4304 73.0667 64.9638 72.6C64.5104 72.12 64.2838 71.4467 64.2838 70.58V58.18L66.8438 57.9V70.5C66.8438 70.9933 67.0438 71.24 67.4438 71.24C67.6438 71.24 67.8438 71.2067 68.0438 71.14L68.5838 72.94C68.0504 73.18 67.4838 73.3 66.8838 73.3ZM78.0045 70.2C78.0045 70.6133 78.0645 70.92 78.1845 71.12C78.3179 71.3067 78.5245 71.4533 78.8045 71.56L78.2645 73.26C77.6645 73.2067 77.1712 73.06 76.7845 72.82C76.4112 72.58 76.1245 72.2133 75.9245 71.72C75.5645 72.2533 75.1112 72.6533 74.5645 72.92C74.0312 73.1733 73.4312 73.3 72.7645 73.3C71.7112 73.3 70.8779 73 70.2645 72.4C69.6512 71.8 69.3445 71.0133 69.3445 70.04C69.3445 68.8933 69.7579 68.02 70.5845 67.42C71.4245 66.8067 72.6179 66.5 74.1645 66.5H75.4845V65.9C75.4845 65.22 75.3245 64.7467 75.0045 64.48C74.6979 64.2 74.1979 64.06 73.5045 64.06C72.7312 64.06 71.7979 64.2467 70.7045 64.62L70.1045 62.88C71.4245 62.3733 72.7045 62.12 73.9445 62.12C76.6512 62.12 78.0045 63.3333 78.0045 65.76V70.2ZM73.4445 71.44C74.3112 71.44 74.9912 71.0067 75.4845 70.14V68H74.4245C72.7712 68 71.9445 68.6133 71.9445 69.84C71.9445 70.3467 72.0712 70.74 72.3245 71.02C72.5779 71.3 72.9512 71.44 73.4445 71.44ZM87.1625 72.5C86.7892 72.7667 86.3692 72.9667 85.9025 73.1C85.4492 73.2333 84.9825 73.3 84.5025 73.3C83.4625 73.2867 82.6692 72.9933 82.1225 72.42C81.5892 71.8333 81.3225 70.9733 81.3225 69.84V64.26H79.6625V62.42H81.3225V60.08L83.8825 59.78V62.42H86.3425L86.0825 64.26H83.8825V69.78C83.8825 70.3 83.9692 70.6733 84.1425 70.9C84.3292 71.1267 84.6158 71.24 85.0025 71.24C85.3892 71.24 85.8092 71.1133 86.2625 70.86L87.1625 72.5ZM91.1625 62.42V73H88.6025V62.42H91.1625ZM89.8625 57.06C90.3425 57.06 90.7292 57.2133 91.0225 57.52C91.3292 57.8133 91.4825 58.18 91.4825 58.62C91.4825 59.06 91.3292 59.4267 91.0225 59.72C90.7292 60.0133 90.3425 60.16 89.8625 60.16C89.3958 60.16 89.0092 60.0133 88.7025 59.72C88.4092 59.4267 88.2625 59.06 88.2625 58.62C88.2625 58.18 88.4092 57.8133 88.7025 57.52C89.0092 57.2133 89.3958 57.06 89.8625 57.06ZM98.567 62.12C100.127 62.12 101.34 62.62 102.207 63.62C103.087 64.6067 103.527 65.9667 103.527 67.7C103.527 68.8067 103.327 69.7867 102.927 70.64C102.527 71.48 101.954 72.1333 101.207 72.6C100.46 73.0667 99.5737 73.3 98.547 73.3C96.987 73.3 95.767 72.8067 94.887 71.82C94.007 70.82 93.567 69.4467 93.567 67.7C93.567 66.5933 93.767 65.62 94.167 64.78C94.567 63.94 95.1404 63.2867 95.887 62.82C96.647 62.3533 97.5404 62.12 98.567 62.12ZM98.567 64.06C97.0337 64.06 96.267 65.2733 96.267 67.7C96.267 68.9533 96.4537 69.88 96.827 70.48C97.2137 71.0667 97.787 71.36 98.547 71.36C99.307 71.36 99.8737 71.06 100.247 70.46C100.634 69.86 100.827 68.94 100.827 67.7C100.827 66.46 100.634 65.5467 100.247 64.96C99.8737 64.36 99.3137 64.06 98.567 64.06ZM111.567 62.12C112.513 62.12 113.247 62.4067 113.767 62.98C114.3 63.54 114.567 64.3267 114.567 65.34V73H112.007V65.74C112.007 65.1133 111.893 64.6733 111.667 64.42C111.453 64.1667 111.133 64.04 110.707 64.04C110.267 64.04 109.867 64.18 109.507 64.46C109.16 64.7267 108.82 65.12 108.487 65.64V73H105.927V62.42H108.147L108.347 63.8C109.213 62.68 110.287 62.12 111.567 62.12ZM125.888 62.12C127.314 62.12 128.568 62.54 129.648 63.38L128.648 64.88C127.741 64.3067 126.854 64.02 125.988 64.02C125.481 64.02 125.088 64.12 124.808 64.32C124.528 64.5067 124.388 64.76 124.388 65.08C124.388 65.32 124.448 65.52 124.568 65.68C124.688 65.84 124.901 65.9933 125.208 66.14C125.528 66.2733 125.994 66.4267 126.608 66.6C127.754 66.9067 128.601 67.3133 129.148 67.82C129.708 68.3267 129.988 69.0333 129.988 69.94C129.988 70.9933 129.561 71.82 128.708 72.42C127.854 73.0067 126.794 73.3 125.528 73.3C124.661 73.3 123.868 73.1667 123.148 72.9C122.441 72.6333 121.828 72.2667 121.308 71.8L122.588 70.36C123.508 71.0533 124.468 71.4 125.468 71.4C126.041 71.4 126.494 71.2867 126.828 71.06C127.174 70.8333 127.348 70.52 127.348 70.12C127.348 69.8133 127.281 69.5733 127.148 69.4C127.028 69.2133 126.801 69.0533 126.468 68.92C126.148 68.7733 125.641 68.6 124.948 68.4C123.868 68.1067 123.074 67.7 122.568 67.18C122.061 66.6467 121.808 65.9867 121.808 65.2C121.808 64.6133 121.974 64.0867 122.308 63.62C122.654 63.1533 123.134 62.7867 123.748 62.52C124.374 62.2533 125.088 62.12 125.888 62.12ZM134.62 62.42V73H132.06V62.42H134.62ZM133.32 57.06C133.8 57.06 134.186 57.2133 134.48 57.52C134.786 57.8133 134.94 58.18 134.94 58.62C134.94 59.06 134.786 59.4267 134.48 59.72C134.186 60.0133 133.8 60.16 133.32 60.16C132.853 60.16 132.466 60.0133 132.16 59.72C131.866 59.4267 131.72 59.06 131.72 58.62C131.72 58.18 131.866 57.8133 132.16 57.52C132.466 57.2133 132.853 57.06 133.32 57.06ZM144.584 62.42V64.26L139.464 71H144.684L144.424 73H136.524V71.16L141.664 64.42H136.964V62.42H144.584ZM155.212 67.46C155.212 67.5933 155.192 67.94 155.152 68.5H148.512C148.592 69.5267 148.859 70.26 149.312 70.7C149.766 71.14 150.366 71.36 151.112 71.36C151.579 71.36 152.019 71.2867 152.432 71.14C152.846 70.98 153.286 70.74 153.752 70.42L154.812 71.88C153.639 72.8267 152.332 73.3 150.892 73.3C149.279 73.3 148.032 72.8067 147.152 71.82C146.286 70.8333 145.852 69.4867 145.852 67.78C145.852 66.7 146.039 65.7333 146.412 64.88C146.786 64.0133 147.326 63.34 148.032 62.86C148.739 62.3667 149.579 62.12 150.552 62.12C152.032 62.12 153.179 62.5933 153.992 63.54C154.806 64.4733 155.212 65.78 155.212 67.46ZM152.672 66.72C152.672 64.8667 151.986 63.94 150.612 63.94C149.986 63.94 149.492 64.1733 149.132 64.64C148.786 65.0933 148.579 65.8267 148.512 66.84H152.672V66.72ZM170.329 70.2C170.329 70.6133 170.389 70.92 170.509 71.12C170.642 71.3067 170.849 71.4533 171.129 71.56L170.589 73.26C169.989 73.2067 169.495 73.06 169.109 72.82C168.735 72.58 168.449 72.2133 168.249 71.72C167.889 72.2533 167.435 72.6533 166.889 72.92C166.355 73.1733 165.755 73.3 165.089 73.3C164.035 73.3 163.202 73 162.589 72.4C161.975 71.8 161.669 71.0133 161.669 70.04C161.669 68.8933 162.082 68.02 162.909 67.42C163.749 66.8067 164.942 66.5 166.489 66.5H167.809V65.9C167.809 65.22 167.649 64.7467 167.329 64.48C167.022 64.2 166.522 64.06 165.829 64.06C165.055 64.06 164.122 64.2467 163.029 64.62L162.429 62.88C163.749 62.3733 165.029 62.12 166.269 62.12C168.975 62.12 170.329 63.3333 170.329 65.76V70.2ZM165.769 71.44C166.635 71.44 167.315 71.0067 167.809 70.14V68H166.749C165.095 68 164.269 68.6133 164.269 69.84C164.269 70.3467 164.395 70.74 164.649 71.02C164.902 71.3 165.275 71.44 165.769 71.44ZM179.487 72.5C179.113 72.7667 178.693 72.9667 178.227 73.1C177.773 73.2333 177.307 73.3 176.827 73.3C175.787 73.2867 174.993 72.9933 174.447 72.42C173.913 71.8333 173.647 70.9733 173.647 69.84V64.26H171.987V62.42H173.647V60.08L176.207 59.78V62.42H178.667L178.407 64.26H176.207V69.78C176.207 70.3 176.293 70.6733 176.467 70.9C176.653 71.1267 176.94 71.24 177.327 71.24C177.713 71.24 178.133 71.1133 178.587 70.86L179.487 72.5ZM191.987 72.5C191.613 72.7667 191.193 72.9667 190.727 73.1C190.273 73.2333 189.807 73.3 189.327 73.3C188.287 73.2867 187.493 72.9933 186.947 72.42C186.413 71.8333 186.147 70.9733 186.147 69.84V64.26H184.487V62.42H186.147V60.08L188.707 59.78V62.42H191.167L190.907 64.26H188.707V69.78C188.707 70.3 188.793 70.6733 188.967 70.9C189.153 71.1267 189.44 71.24 189.827 71.24C190.213 71.24 190.633 71.1133 191.087 70.86L191.987 72.5ZM195.987 62.42V73H193.427V62.42H195.987ZM194.687 57.06C195.167 57.06 195.553 57.2133 195.847 57.52C196.153 57.8133 196.307 58.18 196.307 58.62C196.307 59.06 196.153 59.4267 195.847 59.72C195.553 60.0133 195.167 60.16 194.687 60.16C194.22 60.16 193.833 60.0133 193.527 59.72C193.233 59.4267 193.087 59.06 193.087 58.62C193.087 58.18 193.233 57.8133 193.527 57.52C193.833 57.2133 194.22 57.06 194.687 57.06ZM210.291 62.12C211.145 62.12 211.825 62.4133 212.331 63C212.838 63.5733 213.091 64.3533 213.091 65.34V73H210.531V65.74C210.531 64.6067 210.145 64.04 209.371 64.04C208.958 64.04 208.598 64.1733 208.291 64.44C207.998 64.6933 207.691 65.0933 207.371 65.64V73H204.811V65.74C204.811 64.6067 204.425 64.04 203.651 64.04C203.225 64.04 202.858 64.1733 202.551 64.44C202.258 64.6933 201.951 65.0933 201.631 65.64V73H199.071V62.42H201.291L201.491 63.8C202.291 62.68 203.311 62.12 204.551 62.12C205.165 62.12 205.691 62.28 206.131 62.6C206.585 62.9067 206.911 63.34 207.111 63.9C207.538 63.3267 208.005 62.8867 208.511 62.58C209.031 62.2733 209.625 62.12 210.291 62.12ZM224.743 67.46C224.743 67.5933 224.723 67.94 224.683 68.5H218.043C218.123 69.5267 218.39 70.26 218.843 70.7C219.297 71.14 219.897 71.36 220.643 71.36C221.11 71.36 221.55 71.2867 221.963 71.14C222.377 70.98 222.817 70.74 223.283 70.42L224.343 71.88C223.17 72.8267 221.863 73.3 220.423 73.3C218.81 73.3 217.563 72.8067 216.683 71.82C215.817 70.8333 215.383 69.4867 215.383 67.78C215.383 66.7 215.57 65.7333 215.943 64.88C216.317 64.0133 216.857 63.34 217.563 62.86C218.27 62.3667 219.11 62.12 220.083 62.12C221.563 62.12 222.71 62.5933 223.523 63.54C224.337 64.4733 224.743 65.78 224.743 67.46ZM222.203 66.72C222.203 64.8667 221.517 63.94 220.143 63.94C219.517 63.94 219.023 64.1733 218.663 64.64C218.317 65.0933 218.11 65.8267 218.043 66.84H222.203V66.72ZM238.1 72.5C237.727 72.7667 237.307 72.9667 236.84 73.1C236.387 73.2333 235.92 73.3 235.44 73.3C234.4 73.2867 233.607 72.9933 233.06 72.42C232.527 71.8333 232.26 70.9733 232.26 69.84V64.26H230.6V62.42H232.26V60.08L234.82 59.78V62.42H237.28L237.02 64.26H234.82V69.78C234.82 70.3 234.907 70.6733 235.08 70.9C235.267 71.1267 235.553 71.24 235.94 71.24C236.327 71.24 236.747 71.1133 237.2 70.86L238.1 72.5Z" fill="black"/>
<path id="population size at time t+1" d="M745.02 62.12C746.353 62.12 747.34 62.6067 747.98 63.58C748.62 64.5533 748.94 65.92 748.94 67.68C748.94 68.7733 748.773 69.7467 748.44 70.6C748.12 71.44 747.64 72.1 747 72.58C746.373 73.06 745.627 73.3 744.76 73.3C743.64 73.3 742.753 72.9133 742.1 72.14V77.08L739.54 77.36V62.42H741.78L741.92 63.72C742.333 63.1867 742.807 62.7867 743.34 62.52C743.873 62.2533 744.433 62.12 745.02 62.12ZM744.04 71.34C745.52 71.34 746.26 70.1267 746.26 67.7C746.26 66.4067 746.093 65.4733 745.76 64.9C745.427 64.3267 744.927 64.04 744.26 64.04C743.833 64.04 743.433 64.1733 743.06 64.44C742.687 64.6933 742.367 65.04 742.1 65.48V70.24C742.593 70.9733 743.24 71.34 744.04 71.34ZM755.774 62.12C757.334 62.12 758.547 62.62 759.414 63.62C760.294 64.6067 760.734 65.9667 760.734 67.7C760.734 68.8067 760.534 69.7867 760.134 70.64C759.734 71.48 759.161 72.1333 758.414 72.6C757.667 73.0667 756.781 73.3 755.754 73.3C754.194 73.3 752.974 72.8067 752.094 71.82C751.214 70.82 750.774 69.4467 750.774 67.7C750.774 66.5933 750.974 65.62 751.374 64.78C751.774 63.94 752.347 63.2867 753.094 62.82C753.854 62.3533 754.747 62.12 755.774 62.12ZM755.774 64.06C754.241 64.06 753.474 65.2733 753.474 67.7C753.474 68.9533 753.661 69.88 754.034 70.48C754.421 71.0667 754.994 71.36 755.754 71.36C756.514 71.36 757.081 71.06 757.454 70.46C757.841 69.86 758.034 68.94 758.034 67.7C758.034 66.46 757.841 65.5467 757.454 64.96C757.081 64.36 756.521 64.06 755.774 64.06ZM768.614 62.12C769.947 62.12 770.934 62.6067 771.574 63.58C772.214 64.5533 772.534 65.92 772.534 67.68C772.534 68.7733 772.367 69.7467 772.034 70.6C771.714 71.44 771.234 72.1 770.594 72.58C769.967 73.06 769.22 73.3 768.354 73.3C767.234 73.3 766.347 72.9133 765.694 72.14V77.08L763.134 77.36V62.42H765.374L765.514 63.72C765.927 63.1867 766.4 62.7867 766.934 62.52C767.467 62.2533 768.027 62.12 768.614 62.12ZM767.634 71.34C769.114 71.34 769.854 70.1267 769.854 67.7C769.854 66.4067 769.687 65.4733 769.354 64.9C769.02 64.3267 768.52 64.04 767.854 64.04C767.427 64.04 767.027 64.1733 766.654 64.44C766.28 64.6933 765.96 65.04 765.694 65.48V70.24C766.187 70.9733 766.834 71.34 767.634 71.34ZM783.508 73H781.288L781.148 71.52C780.761 72.12 780.301 72.5667 779.768 72.86C779.248 73.1533 778.628 73.3 777.908 73.3C776.961 73.3 776.228 73.0133 775.708 72.44C775.201 71.8533 774.948 71.0467 774.948 70.02V62.42H777.508V69.7C777.508 70.3 777.608 70.7267 777.808 70.98C778.021 71.2333 778.354 71.36 778.808 71.36C779.621 71.36 780.334 70.86 780.948 69.86V62.42H783.508V73ZM789.091 73.3C788.277 73.3 787.637 73.0667 787.171 72.6C786.717 72.12 786.491 71.4467 786.491 70.58V58.18L789.051 57.9V70.5C789.051 70.9933 789.251 71.24 789.651 71.24C789.851 71.24 790.051 71.2067 790.251 71.14L790.791 72.94C790.257 73.18 789.691 73.3 789.091 73.3ZM800.212 70.2C800.212 70.6133 800.272 70.92 800.392 71.12C800.525 71.3067 800.732 71.4533 801.012 71.56L800.472 73.26C799.872 73.2067 799.378 73.06 798.992 72.82C798.618 72.58 798.332 72.2133 798.132 71.72C797.772 72.2533 797.318 72.6533 796.772 72.92C796.238 73.1733 795.638 73.3 794.972 73.3C793.918 73.3 793.085 73 792.472 72.4C791.858 71.8 791.552 71.0133 791.552 70.04C791.552 68.8933 791.965 68.02 792.792 67.42C793.632 66.8067 794.825 66.5 796.372 66.5H797.692V65.9C797.692 65.22 797.532 64.7467 797.212 64.48C796.905 64.2 796.405 64.06 795.712 64.06C794.938 64.06 794.005 64.2467 792.912 64.62L792.312 62.88C793.632 62.3733 794.912 62.12 796.152 62.12C798.858 62.12 800.212 63.3333 800.212 65.76V70.2ZM795.652 71.44C796.518 71.44 797.198 71.0067 797.692 70.14V68H796.632C794.978 68 794.152 68.6133 794.152 69.84C794.152 70.3467 794.278 70.74 794.532 71.02C794.785 71.3 795.158 71.44 795.652 71.44ZM809.37 72.5C808.996 72.7667 808.576 72.9667 808.11 73.1C807.656 73.2333 807.19 73.3 806.71 73.3C805.67 73.2867 804.876 72.9933 804.33 72.42C803.796 71.8333 803.53 70.9733 803.53 69.84V64.26H801.87V62.42H803.53V60.08L806.09 59.78V62.42H808.55L808.29 64.26H806.09V69.78C806.09 70.3 806.176 70.6733 806.35 70.9C806.536 71.1267 806.823 71.24 807.21 71.24C807.596 71.24 808.016 71.1133 808.47 70.86L809.37 72.5ZM813.37 62.42V73H810.81V62.42H813.37ZM812.07 57.06C812.55 57.06 812.936 57.2133 813.23 57.52C813.536 57.8133 813.69 58.18 813.69 58.62C813.69 59.06 813.536 59.4267 813.23 59.72C812.936 60.0133 812.55 60.16 812.07 60.16C811.603 60.16 811.216 60.0133 810.91 59.72C810.616 59.4267 810.47 59.06 810.47 58.62C810.47 58.18 810.616 57.8133 810.91 57.52C811.216 57.2133 811.603 57.06 812.07 57.06ZM820.774 62.12C822.334 62.12 823.547 62.62 824.414 63.62C825.294 64.6067 825.734 65.9667 825.734 67.7C825.734 68.8067 825.534 69.7867 825.134 70.64C824.734 71.48 824.161 72.1333 823.414 72.6C822.667 73.0667 821.781 73.3 820.754 73.3C819.194 73.3 817.974 72.8067 817.094 71.82C816.214 70.82 815.774 69.4467 815.774 67.7C815.774 66.5933 815.974 65.62 816.374 64.78C816.774 63.94 817.347 63.2867 818.094 62.82C818.854 62.3533 819.747 62.12 820.774 62.12ZM820.774 64.06C819.241 64.06 818.474 65.2733 818.474 67.7C818.474 68.9533 818.661 69.88 819.034 70.48C819.421 71.0667 819.994 71.36 820.754 71.36C821.514 71.36 822.081 71.06 822.454 70.46C822.841 69.86 823.034 68.94 823.034 67.7C823.034 66.46 822.841 65.5467 822.454 64.96C822.081 64.36 821.521 64.06 820.774 64.06ZM833.774 62.12C834.72 62.12 835.454 62.4067 835.974 62.98C836.507 63.54 836.774 64.3267 836.774 65.34V73H834.214V65.74C834.214 65.1133 834.1 64.6733 833.874 64.42C833.66 64.1667 833.34 64.04 832.914 64.04C832.474 64.04 832.074 64.18 831.714 64.46C831.367 64.7267 831.027 65.12 830.694 65.64V73H828.134V62.42H830.354L830.554 63.8C831.42 62.68 832.494 62.12 833.774 62.12ZM848.095 62.12C849.522 62.12 850.775 62.54 851.855 63.38L850.855 64.88C849.948 64.3067 849.062 64.02 848.195 64.02C847.688 64.02 847.295 64.12 847.015 64.32C846.735 64.5067 846.595 64.76 846.595 65.08C846.595 65.32 846.655 65.52 846.775 65.68C846.895 65.84 847.108 65.9933 847.415 66.14C847.735 66.2733 848.202 66.4267 848.815 66.6C849.962 66.9067 850.808 67.3133 851.355 67.82C851.915 68.3267 852.195 69.0333 852.195 69.94C852.195 70.9933 851.768 71.82 850.915 72.42C850.062 73.0067 849.002 73.3 847.735 73.3C846.868 73.3 846.075 73.1667 845.355 72.9C844.648 72.6333 844.035 72.2667 843.515 71.8L844.795 70.36C845.715 71.0533 846.675 71.4 847.675 71.4C848.248 71.4 848.702 71.2867 849.035 71.06C849.382 70.8333 849.555 70.52 849.555 70.12C849.555 69.8133 849.488 69.5733 849.355 69.4C849.235 69.2133 849.008 69.0533 848.675 68.92C848.355 68.7733 847.848 68.6 847.155 68.4C846.075 68.1067 845.282 67.7 844.775 67.18C844.268 66.6467 844.015 65.9867 844.015 65.2C844.015 64.6133 844.182 64.0867 844.515 63.62C844.862 63.1533 845.342 62.7867 845.955 62.52C846.582 62.2533 847.295 62.12 848.095 62.12ZM856.827 62.42V73H854.267V62.42H856.827ZM855.527 57.06C856.007 57.06 856.393 57.2133 856.687 57.52C856.993 57.8133 857.147 58.18 857.147 58.62C857.147 59.06 856.993 59.4267 856.687 59.72C856.393 60.0133 856.007 60.16 855.527 60.16C855.06 60.16 854.673 60.0133 854.367 59.72C854.073 59.4267 853.927 59.06 853.927 58.62C853.927 58.18 854.073 57.8133 854.367 57.52C854.673 57.2133 855.06 57.06 855.527 57.06ZM866.791 62.42V64.26L861.671 71H866.891L866.631 73H858.731V71.16L863.871 64.42H859.171V62.42H866.791ZM877.419 67.46C877.419 67.5933 877.399 67.94 877.359 68.5H870.719C870.799 69.5267 871.066 70.26 871.519 70.7C871.973 71.14 872.573 71.36 873.319 71.36C873.786 71.36 874.226 71.2867 874.639 71.14C875.053 70.98 875.493 70.74 875.959 70.42L877.019 71.88C875.846 72.8267 874.539 73.3 873.099 73.3C871.486 73.3 870.239 72.8067 869.359 71.82C868.493 70.8333 868.059 69.4867 868.059 67.78C868.059 66.7 868.246 65.7333 868.619 64.88C868.993 64.0133 869.533 63.34 870.239 62.86C870.946 62.3667 871.786 62.12 872.759 62.12C874.239 62.12 875.386 62.5933 876.199 63.54C877.013 64.4733 877.419 65.78 877.419 67.46ZM874.879 66.72C874.879 64.8667 874.193 63.94 872.819 63.94C872.193 63.94 871.699 64.1733 871.339 64.64C870.993 65.0933 870.786 65.8267 870.719 66.84H874.879V66.72ZM892.536 70.2C892.536 70.6133 892.596 70.92 892.716 71.12C892.849 71.3067 893.056 71.4533 893.336 71.56L892.796 73.26C892.196 73.2067 891.702 73.06 891.316 72.82C890.942 72.58 890.656 72.2133 890.456 71.72C890.096 72.2533 889.642 72.6533 889.096 72.92C888.562 73.1733 887.962 73.3 887.296 73.3C886.242 73.3 885.409 73 884.796 72.4C884.182 71.8 883.876 71.0133 883.876 70.04C883.876 68.8933 884.289 68.02 885.116 67.42C885.956 66.8067 887.149 66.5 888.696 66.5H890.016V65.9C890.016 65.22 889.856 64.7467 889.536 64.48C889.229 64.2 888.729 64.06 888.036 64.06C887.262 64.06 886.329 64.2467 885.236 64.62L884.636 62.88C885.956 62.3733 887.236 62.12 888.476 62.12C891.182 62.12 892.536 63.3333 892.536 65.76V70.2ZM887.976 71.44C888.842 71.44 889.522 71.0067 890.016 70.14V68H888.956C887.302 68 886.476 68.6133 886.476 69.84C886.476 70.3467 886.602 70.74 886.856 71.02C887.109 71.3 887.482 71.44 887.976 71.44ZM901.694 72.5C901.32 72.7667 900.9 72.9667 900.434 73.1C899.98 73.2333 899.514 73.3 899.034 73.3C897.994 73.2867 897.2 72.9933 896.654 72.42C896.12 71.8333 895.854 70.9733 895.854 69.84V64.26H894.194V62.42H895.854V60.08L898.414 59.78V62.42H900.874L900.614 64.26H898.414V69.78C898.414 70.3 898.5 70.6733 898.674 70.9C898.86 71.1267 899.147 71.24 899.534 71.24C899.92 71.24 900.34 71.1133 900.794 70.86L901.694 72.5ZM914.194 72.5C913.82 72.7667 913.4 72.9667 912.934 73.1C912.48 73.2333 912.014 73.3 911.534 73.3C910.494 73.2867 909.7 72.9933 909.154 72.42C908.62 71.8333 908.354 70.9733 908.354 69.84V64.26H906.694V62.42H908.354V60.08L910.914 59.78V62.42H913.374L913.114 64.26H910.914V69.78C910.914 70.3 911 70.6733 911.174 70.9C911.36 71.1267 911.647 71.24 912.034 71.24C912.42 71.24 912.84 71.1133 913.294 70.86L914.194 72.5ZM918.194 62.42V73H915.634V62.42H918.194ZM916.894 57.06C917.374 57.06 917.76 57.2133 918.054 57.52C918.36 57.8133 918.514 58.18 918.514 58.62C918.514 59.06 918.36 59.4267 918.054 59.72C917.76 60.0133 917.374 60.16 916.894 60.16C916.427 60.16 916.04 60.0133 915.734 59.72C915.44 59.4267 915.294 59.06 915.294 58.62C915.294 58.18 915.44 57.8133 915.734 57.52C916.04 57.2133 916.427 57.06 916.894 57.06ZM932.498 62.12C933.352 62.12 934.032 62.4133 934.538 63C935.045 63.5733 935.298 64.3533 935.298 65.34V73H932.738V65.74C932.738 64.6067 932.352 64.04 931.578 64.04C931.165 64.04 930.805 64.1733 930.498 64.44C930.205 64.6933 929.898 65.0933 929.578 65.64V73H927.018V65.74C927.018 64.6067 926.632 64.04 925.858 64.04C925.432 64.04 925.065 64.1733 924.758 64.44C924.465 64.6933 924.158 65.0933 923.838 65.64V73H921.278V62.42H923.498L923.698 63.8C924.498 62.68 925.518 62.12 926.758 62.12C927.372 62.12 927.898 62.28 928.338 62.6C928.792 62.9067 929.118 63.34 929.318 63.9C929.745 63.3267 930.212 62.8867 930.718 62.58C931.238 62.2733 931.832 62.12 932.498 62.12ZM946.95 67.46C946.95 67.5933 946.93 67.94 946.89 68.5H940.25C940.33 69.5267 940.597 70.26 941.05 70.7C941.504 71.14 942.104 71.36 942.85 71.36C943.317 71.36 943.757 71.2867 944.17 71.14C944.584 70.98 945.024 70.74 945.49 70.42L946.55 71.88C945.377 72.8267 944.07 73.3 942.63 73.3C941.017 73.3 939.77 72.8067 938.89 71.82C938.024 70.8333 937.59 69.4867 937.59 67.78C937.59 66.7 937.777 65.7333 938.15 64.88C938.524 64.0133 939.064 63.34 939.77 62.86C940.477 62.3667 941.317 62.12 942.29 62.12C943.77 62.12 944.917 62.5933 945.73 63.54C946.544 64.4733 946.95 65.78 946.95 67.46ZM944.41 66.72C944.41 64.8667 943.724 63.94 942.35 63.94C941.724 63.94 941.23 64.1733 940.87 64.64C940.524 65.0933 940.317 65.8267 940.25 66.84H944.41V66.72ZM960.307 72.5C959.934 72.7667 959.514 72.9667 959.047 73.1C958.594 73.2333 958.127 73.3 957.647 73.3C956.607 73.2867 955.814 72.9933 955.267 72.42C954.734 71.8333 954.467 70.9733 954.467 69.84V64.26H952.807V62.42H954.467V60.08L957.027 59.78V62.42H959.487L959.227 64.26H957.027V69.78C957.027 70.3 957.114 70.6733 957.287 70.9C957.474 71.1267 957.76 71.24 958.147 71.24C958.534 71.24 958.954 71.1133 959.407 70.86L960.307 72.5ZM965.666 62.3V65.36H968.646V67.38H965.666V70.44H963.466V67.38H960.506V65.36H963.466V62.3H965.666ZM975.413 59.54V73H972.893V62.12L969.893 63.94L968.773 62.22L973.153 59.54H975.413Z" fill="black"/>
</g>
<g id="position">
<path id="position at time t" d="M87.7934 15.12C89.1268 15.12 90.1134 15.6067 90.7534 16.58C91.3934 17.5533 91.7134 18.92 91.7134 20.68C91.7134 21.7733 91.5468 22.7467 91.2134 23.6C90.8934 24.44 90.4134 25.1 89.7734 25.58C89.1468 26.06 88.4001 26.3 87.5334 26.3C86.4134 26.3 85.5268 25.9133 84.8734 25.14V30.08L82.3134 30.36V15.42H84.5534L84.6934 16.72C85.1068 16.1867 85.5801 15.7867 86.1134 15.52C86.6468 15.2533 87.2068 15.12 87.7934 15.12ZM86.8134 24.34C88.2934 24.34 89.0334 23.1267 89.0334 20.7C89.0334 19.4067 88.8668 18.4733 88.5334 17.9C88.2001 17.3267 87.7001 17.04 87.0334 17.04C86.6068 17.04 86.2068 17.1733 85.8334 17.44C85.4601 17.6933 85.1401 18.04 84.8734 18.48V23.24C85.3668 23.9733 86.0134 24.34 86.8134 24.34ZM98.5475 15.12C100.108 15.12 101.321 15.62 102.188 16.62C103.068 17.6067 103.508 18.9667 103.508 20.7C103.508 21.8067 103.308 22.7867 102.908 23.64C102.508 24.48 101.934 25.1333 101.188 25.6C100.441 26.0667 99.5542 26.3 98.5275 26.3C96.9675 26.3 95.7475 25.8067 94.8675 24.82C93.9875 23.82 93.5475 22.4467 93.5475 20.7C93.5475 19.5933 93.7475 18.62 94.1475 17.78C94.5475 16.94 95.1208 16.2867 95.8675 15.82C96.6275 15.3533 97.5208 15.12 98.5475 15.12ZM98.5475 17.06C97.0142 17.06 96.2475 18.2733 96.2475 20.7C96.2475 21.9533 96.4342 22.88 96.8075 23.48C97.1942 24.0667 97.7675 24.36 98.5275 24.36C99.2875 24.36 99.8542 24.06 100.228 23.46C100.614 22.86 100.808 21.94 100.808 20.7C100.808 19.46 100.614 18.5467 100.228 17.96C99.8542 17.36 99.2942 17.06 98.5475 17.06ZM109.247 15.12C110.674 15.12 111.927 15.54 113.007 16.38L112.007 17.88C111.101 17.3067 110.214 17.02 109.347 17.02C108.841 17.02 108.447 17.12 108.167 17.32C107.887 17.5067 107.747 17.76 107.747 18.08C107.747 18.32 107.807 18.52 107.927 18.68C108.047 18.84 108.261 18.9933 108.567 19.14C108.887 19.2733 109.354 19.4267 109.967 19.6C111.114 19.9067 111.961 20.3133 112.507 20.82C113.067 21.3267 113.347 22.0333 113.347 22.94C113.347 23.9933 112.921 24.82 112.067 25.42C111.214 26.0067 110.154 26.3 108.887 26.3C108.021 26.3 107.227 26.1667 106.507 25.9C105.801 25.6333 105.187 25.2667 104.667 24.8L105.947 23.36C106.867 24.0533 107.827 24.4 108.827 24.4C109.401 24.4 109.854 24.2867 110.187 24.06C110.534 23.8333 110.707 23.52 110.707 23.12C110.707 22.8133 110.641 22.5733 110.507 22.4C110.387 22.2133 110.161 22.0533 109.827 21.92C109.507 21.7733 109.001 21.6 108.307 21.4C107.227 21.1067 106.434 20.7 105.927 20.18C105.421 19.6467 105.167 18.9867 105.167 18.2C105.167 17.6133 105.334 17.0867 105.667 16.62C106.014 16.1533 106.494 15.7867 107.107 15.52C107.734 15.2533 108.447 15.12 109.247 15.12ZM117.979 15.42V26H115.419V15.42H117.979ZM116.679 10.06C117.159 10.06 117.546 10.2133 117.839 10.52C118.146 10.8133 118.299 11.18 118.299 11.62C118.299 12.06 118.146 12.4267 117.839 12.72C117.546 13.0133 117.159 13.16 116.679 13.16C116.212 13.16 115.826 13.0133 115.519 12.72C115.226 12.4267 115.079 12.06 115.079 11.62C115.079 11.18 115.226 10.8133 115.519 10.52C115.826 10.2133 116.212 10.06 116.679 10.06ZM127.123 25.5C126.75 25.7667 126.33 25.9667 125.863 26.1C125.41 26.2333 124.943 26.3 124.463 26.3C123.423 26.2867 122.63 25.9933 122.083 25.42C121.55 24.8333 121.283 23.9733 121.283 22.84V17.26H119.623V15.42H121.283V13.08L123.843 12.78V15.42H126.303L126.043 17.26H123.843V22.78C123.843 23.3 123.93 23.6733 124.103 23.9C124.29 24.1267 124.577 24.24 124.963 24.24C125.35 24.24 125.77 24.1133 126.223 23.86L127.123 25.5ZM131.123 15.42V26H128.563V15.42H131.123ZM129.823 10.06C130.303 10.06 130.69 10.2133 130.983 10.52C131.29 10.8133 131.443 11.18 131.443 11.62C131.443 12.06 131.29 12.4267 130.983 12.72C130.69 13.0133 130.303 13.16 129.823 13.16C129.357 13.16 128.97 13.0133 128.663 12.72C128.37 12.4267 128.223 12.06 128.223 11.62C128.223 11.18 128.37 10.8133 128.663 10.52C128.97 10.2133 129.357 10.06 129.823 10.06ZM138.528 15.12C140.088 15.12 141.301 15.62 142.168 16.62C143.048 17.6067 143.488 18.9667 143.488 20.7C143.488 21.8067 143.288 22.7867 142.888 23.64C142.488 24.48 141.915 25.1333 141.168 25.6C140.421 26.0667 139.535 26.3 138.508 26.3C136.948 26.3 135.728 25.8067 134.848 24.82C133.968 23.82 133.528 22.4467 133.528 20.7C133.528 19.5933 133.728 18.62 134.128 17.78C134.528 16.94 135.101 16.2867 135.848 15.82C136.608 15.3533 137.501 15.12 138.528 15.12ZM138.528 17.06C136.995 17.06 136.228 18.2733 136.228 20.7C136.228 21.9533 136.415 22.88 136.788 23.48C137.175 24.0667 137.748 24.36 138.508 24.36C139.268 24.36 139.835 24.06 140.208 23.46C140.595 22.86 140.788 21.94 140.788 20.7C140.788 19.46 140.595 18.5467 140.208 17.96C139.835 17.36 139.275 17.06 138.528 17.06ZM151.528 15.12C152.474 15.12 153.208 15.4067 153.728 15.98C154.261 16.54 154.528 17.3267 154.528 18.34V26H151.968V18.74C151.968 18.1133 151.854 17.6733 151.628 17.42C151.414 17.1667 151.094 17.04 150.668 17.04C150.228 17.04 149.828 17.18 149.468 17.46C149.121 17.7267 148.781 18.12 148.448 18.64V26H145.888V15.42H148.108L148.308 16.8C149.174 15.68 150.248 15.12 151.528 15.12ZM170.329 23.2C170.329 23.6133 170.389 23.92 170.509 24.12C170.642 24.3067 170.849 24.4533 171.129 24.56L170.589 26.26C169.989 26.2067 169.495 26.06 169.109 25.82C168.735 25.58 168.449 25.2133 168.249 24.72C167.889 25.2533 167.435 25.6533 166.889 25.92C166.355 26.1733 165.755 26.3 165.089 26.3C164.035 26.3 163.202 26 162.589 25.4C161.975 24.8 161.669 24.0133 161.669 23.04C161.669 21.8933 162.082 21.02 162.909 20.42C163.749 19.8067 164.942 19.5 166.489 19.5H167.809V18.9C167.809 18.22 167.649 17.7467 167.329 17.48C167.022 17.2 166.522 17.06 165.829 17.06C165.055 17.06 164.122 17.2467 163.029 17.62L162.429 15.88C163.749 15.3733 165.029 15.12 166.269 15.12C168.975 15.12 170.329 16.3333 170.329 18.76V23.2ZM165.769 24.44C166.635 24.44 167.315 24.0067 167.809 23.14V21H166.749C165.095 21 164.269 21.6133 164.269 22.84C164.269 23.3467 164.395 23.74 164.649 24.02C164.902 24.3 165.275 24.44 165.769 24.44ZM179.487 25.5C179.113 25.7667 178.693 25.9667 178.227 26.1C177.773 26.2333 177.307 26.3 176.827 26.3C175.787 26.2867 174.993 25.9933 174.447 25.42C173.913 24.8333 173.647 23.9733 173.647 22.84V17.26H171.987V15.42H173.647V13.08L176.207 12.78V15.42H178.667L178.407 17.26H176.207V22.78C176.207 23.3 176.293 23.6733 176.467 23.9C176.653 24.1267 176.94 24.24 177.327 24.24C177.713 24.24 178.133 24.1133 178.587 23.86L179.487 25.5ZM191.987 25.5C191.613 25.7667 191.193 25.9667 190.727 26.1C190.273 26.2333 189.807 26.3 189.327 26.3C188.287 26.2867 187.493 25.9933 186.947 25.42C186.413 24.8333 186.147 23.9733 186.147 22.84V17.26H184.487V15.42H186.147V13.08L188.707 12.78V15.42H191.167L190.907 17.26H188.707V22.78C188.707 23.3 188.793 23.6733 188.967 23.9C189.153 24.1267 189.44 24.24 189.827 24.24C190.213 24.24 190.633 24.1133 191.087 23.86L191.987 25.5ZM195.987 15.42V26H193.427V15.42H195.987ZM194.687 10.06C195.167 10.06 195.553 10.2133 195.847 10.52C196.153 10.8133 196.307 11.18 196.307 11.62C196.307 12.06 196.153 12.4267 195.847 12.72C195.553 13.0133 195.167 13.16 194.687 13.16C194.22 13.16 193.833 13.0133 193.527 12.72C193.233 12.4267 193.087 12.06 193.087 11.62C193.087 11.18 193.233 10.8133 193.527 10.52C193.833 10.2133 194.22 10.06 194.687 10.06ZM210.291 15.12C211.145 15.12 211.825 15.4133 212.331 16C212.838 16.5733 213.091 17.3533 213.091 18.34V26H210.531V18.74C210.531 17.6067 210.145 17.04 209.371 17.04C208.958 17.04 208.598 17.1733 208.291 17.44C207.998 17.6933 207.691 18.0933 207.371 18.64V26H204.811V18.74C204.811 17.6067 204.425 17.04 203.651 17.04C203.225 17.04 202.858 17.1733 202.551 17.44C202.258 17.6933 201.951 18.0933 201.631 18.64V26H199.071V15.42H201.291L201.491 16.8C202.291 15.68 203.311 15.12 204.551 15.12C205.165 15.12 205.691 15.28 206.131 15.6C206.585 15.9067 206.911 16.34 207.111 16.9C207.538 16.3267 208.005 15.8867 208.511 15.58C209.031 15.2733 209.625 15.12 210.291 15.12ZM224.743 20.46C224.743 20.5933 224.723 20.94 224.683 21.5H218.043C218.123 22.5267 218.39 23.26 218.843 23.7C219.297 24.14 219.897 24.36 220.643 24.36C221.11 24.36 221.55 24.2867 221.963 24.14C222.377 23.98 222.817 23.74 223.283 23.42L224.343 24.88C223.17 25.8267 221.863 26.3 220.423 26.3C218.81 26.3 217.563 25.8067 216.683 24.82C215.817 23.8333 215.383 22.4867 215.383 20.78C215.383 19.7 215.57 18.7333 215.943 17.88C216.317 17.0133 216.857 16.34 217.563 15.86C218.27 15.3667 219.11 15.12 220.083 15.12C221.563 15.12 222.71 15.5933 223.523 16.54C224.337 17.4733 224.743 18.78 224.743 20.46ZM222.203 19.72C222.203 17.8667 221.517 16.94 220.143 16.94C219.517 16.94 219.023 17.1733 218.663 17.64C218.317 18.0933 218.11 18.8267 218.043 19.84H222.203V19.72ZM238.1 25.5C237.727 25.7667 237.307 25.9667 236.84 26.1C236.387 26.2333 235.92 26.3 235.44 26.3C234.4 26.2867 233.607 25.9933 233.06 25.42C232.527 24.8333 232.26 23.9733 232.26 22.84V17.26H230.6V15.42H232.26V13.08L234.82 12.78V15.42H237.28L237.02 17.26H234.82V22.78C234.82 23.3 234.907 23.6733 235.08 23.9C235.267 24.1267 235.553 24.24 235.94 24.24C236.327 24.24 236.747 24.1133 237.2 23.86L238.1 25.5Z" fill="black"/>
<path id="position at time t+1" d="M745.02 15.12C746.353 15.12 747.34 15.6067 747.98 16.58C748.62 17.5533 748.94 18.92 748.94 20.68C748.94 21.7733 748.773 22.7467 748.44 23.6C748.12 24.44 747.64 25.1 747 25.58C746.373 26.06 745.627 26.3 744.76 26.3C743.64 26.3 742.753 25.9133 742.1 25.14V30.08L739.54 30.36V15.42H741.78L741.92 16.72C742.333 16.1867 742.807 15.7867 743.34 15.52C743.873 15.2533 744.433 15.12 745.02 15.12ZM744.04 24.34C745.52 24.34 746.26 23.1267 746.26 20.7C746.26 19.4067 746.093 18.4733 745.76 17.9C745.427 17.3267 744.927 17.04 744.26 17.04C743.833 17.04 743.433 17.1733 743.06 17.44C742.687 17.6933 742.367 18.04 742.1 18.48V23.24C742.593 23.9733 743.24 24.34 744.04 24.34ZM755.774 15.12C757.334 15.12 758.547 15.62 759.414 16.62C760.294 17.6067 760.734 18.9667 760.734 20.7C760.734 21.8067 760.534 22.7867 760.134 23.64C759.734 24.48 759.161 25.1333 758.414 25.6C757.667 26.0667 756.781 26.3 755.754 26.3C754.194 26.3 752.974 25.8067 752.094 24.82C751.214 23.82 750.774 22.4467 750.774 20.7C750.774 19.5933 750.974 18.62 751.374 17.78C751.774 16.94 752.347 16.2867 753.094 15.82C753.854 15.3533 754.747 15.12 755.774 15.12ZM755.774 17.06C754.241 17.06 753.474 18.2733 753.474 20.7C753.474 21.9533 753.661 22.88 754.034 23.48C754.421 24.0667 754.994 24.36 755.754 24.36C756.514 24.36 757.081 24.06 757.454 23.46C757.841 22.86 758.034 21.94 758.034 20.7C758.034 19.46 757.841 18.5467 757.454 17.96C757.081 17.36 756.521 17.06 755.774 17.06ZM766.474 15.12C767.9 15.12 769.154 15.54 770.234 16.38L769.234 17.88C768.327 17.3067 767.44 17.02 766.574 17.02C766.067 17.02 765.674 17.12 765.394 17.32C765.114 17.5067 764.974 17.76 764.974 18.08C764.974 18.32 765.034 18.52 765.154 18.68C765.274 18.84 765.487 18.9933 765.794 19.14C766.114 19.2733 766.58 19.4267 767.194 19.6C768.34 19.9067 769.187 20.3133 769.734 20.82C770.294 21.3267 770.574 22.0333 770.574 22.94C770.574 23.9933 770.147 24.82 769.294 25.42C768.44 26.0067 767.38 26.3 766.114 26.3C765.247 26.3 764.454 26.1667 763.734 25.9C763.027 25.6333 762.414 25.2667 761.894 24.8L763.174 23.36C764.094 24.0533 765.054 24.4 766.054 24.4C766.627 24.4 767.08 24.2867 767.414 24.06C767.76 23.8333 767.934 23.52 767.934 23.12C767.934 22.8133 767.867 22.5733 767.734 22.4C767.614 22.2133 767.387 22.0533 767.054 21.92C766.734 21.7733 766.227 21.6 765.534 21.4C764.454 21.1067 763.66 20.7 763.154 20.18C762.647 19.6467 762.394 18.9867 762.394 18.2C762.394 17.6133 762.56 17.0867 762.894 16.62C763.24 16.1533 763.72 15.7867 764.334 15.52C764.96 15.2533 765.674 15.12 766.474 15.12ZM775.205 15.42V26H772.645V15.42H775.205ZM773.905 10.06C774.385 10.06 774.772 10.2133 775.065 10.52C775.372 10.8133 775.525 11.18 775.525 11.62C775.525 12.06 775.372 12.4267 775.065 12.72C774.772 13.0133 774.385 13.16 773.905 13.16C773.439 13.16 773.052 13.0133 772.745 12.72C772.452 12.4267 772.305 12.06 772.305 11.62C772.305 11.18 772.452 10.8133 772.745 10.52C773.052 10.2133 773.439 10.06 773.905 10.06ZM784.35 25.5C783.977 25.7667 783.557 25.9667 783.09 26.1C782.637 26.2333 782.17 26.3 781.69 26.3C780.65 26.2867 779.857 25.9933 779.31 25.42C778.777 24.8333 778.51 23.9733 778.51 22.84V17.26H776.85V15.42H778.51V13.08L781.07 12.78V15.42H783.53L783.27 17.26H781.07V22.78C781.07 23.3 781.157 23.6733 781.33 23.9C781.517 24.1267 781.803 24.24 782.19 24.24C782.577 24.24 782.997 24.1133 783.45 23.86L784.35 25.5ZM788.35 15.42V26H785.79V15.42H788.35ZM787.05 10.06C787.53 10.06 787.917 10.2133 788.21 10.52C788.517 10.8133 788.67 11.18 788.67 11.62C788.67 12.06 788.517 12.4267 788.21 12.72C787.917 13.0133 787.53 13.16 787.05 13.16C786.583 13.16 786.197 13.0133 785.89 12.72C785.597 12.4267 785.45 12.06 785.45 11.62C785.45 11.18 785.597 10.8133 785.89 10.52C786.197 10.2133 786.583 10.06 787.05 10.06ZM795.755 15.12C797.315 15.12 798.528 15.62 799.395 16.62C800.275 17.6067 800.715 18.9667 800.715 20.7C800.715 21.8067 800.515 22.7867 800.115 23.64C799.715 24.48 799.141 25.1333 798.395 25.6C797.648 26.0667 796.761 26.3 795.735 26.3C794.175 26.3 792.955 25.8067 792.075 24.82C791.195 23.82 790.755 22.4467 790.755 20.7C790.755 19.5933 790.955 18.62 791.355 17.78C791.755 16.94 792.328 16.2867 793.075 15.82C793.835 15.3533 794.728 15.12 795.755 15.12ZM795.755 17.06C794.221 17.06 793.455 18.2733 793.455 20.7C793.455 21.9533 793.641 22.88 794.015 23.48C794.401 24.0667 794.975 24.36 795.735 24.36C796.495 24.36 797.061 24.06 797.435 23.46C797.821 22.86 798.015 21.94 798.015 20.7C798.015 19.46 797.821 18.5467 797.435 17.96C797.061 17.36 796.501 17.06 795.755 17.06ZM808.754 15.12C809.701 15.12 810.434 15.4067 810.954 15.98C811.488 16.54 811.754 17.3267 811.754 18.34V26H809.194V18.74C809.194 18.1133 809.081 17.6733 808.854 17.42C808.641 17.1667 808.321 17.04 807.894 17.04C807.454 17.04 807.054 17.18 806.694 17.46C806.348 17.7267 806.008 18.12 805.674 18.64V26H803.114V15.42H805.334L805.534 16.8C806.401 15.68 807.474 15.12 808.754 15.12ZM827.555 23.2C827.555 23.6133 827.615 23.92 827.735 24.12C827.869 24.3067 828.075 24.4533 828.355 24.56L827.815 26.26C827.215 26.2067 826.722 26.06 826.335 25.82C825.962 25.58 825.675 25.2133 825.475 24.72C825.115 25.2533 824.662 25.6533 824.115 25.92C823.582 26.1733 822.982 26.3 822.315 26.3C821.262 26.3 820.429 26 819.815 25.4C819.202 24.8 818.895 24.0133 818.895 23.04C818.895 21.8933 819.309 21.02 820.135 20.42C820.975 19.8067 822.169 19.5 823.715 19.5H825.035V18.9C825.035 18.22 824.875 17.7467 824.555 17.48C824.249 17.2 823.749 17.06 823.055 17.06C822.282 17.06 821.349 17.2467 820.255 17.62L819.655 15.88C820.975 15.3733 822.255 15.12 823.495 15.12C826.202 15.12 827.555 16.3333 827.555 18.76V23.2ZM822.995 24.44C823.862 24.44 824.542 24.0067 825.035 23.14V21H823.975C822.322 21 821.495 21.6133 821.495 22.84C821.495 23.3467 821.622 23.74 821.875 24.02C822.129 24.3 822.502 24.44 822.995 24.44ZM836.713 25.5C836.34 25.7667 835.92 25.9667 835.453 26.1C835 26.2333 834.533 26.3 834.053 26.3C833.013 26.2867 832.22 25.9933 831.673 25.42C831.14 24.8333 830.873 23.9733 830.873 22.84V17.26H829.213V15.42H830.873V13.08L833.433 12.78V15.42H835.893L835.633 17.26H833.433V22.78C833.433 23.3 833.52 23.6733 833.693 23.9C833.88 24.1267 834.167 24.24 834.553 24.24C834.94 24.24 835.36 24.1133 835.813 23.86L836.713 25.5ZM849.213 25.5C848.84 25.7667 848.42 25.9667 847.953 26.1C847.5 26.2333 847.033 26.3 846.553 26.3C845.513 26.2867 844.72 25.9933 844.173 25.42C843.64 24.8333 843.373 23.9733 843.373 22.84V17.26H841.713V15.42H843.373V13.08L845.933 12.78V15.42H848.393L848.133 17.26H845.933V22.78C845.933 23.3 846.02 23.6733 846.193 23.9C846.38 24.1267 846.667 24.24 847.053 24.24C847.44 24.24 847.86 24.1133 848.313 23.86L849.213 25.5ZM853.213 15.42V26H850.653V15.42H853.213ZM851.913 10.06C852.393 10.06 852.78 10.2133 853.073 10.52C853.38 10.8133 853.533 11.18 853.533 11.62C853.533 12.06 853.38 12.4267 853.073 12.72C852.78 13.0133 852.393 13.16 851.913 13.16C851.447 13.16 851.06 13.0133 850.753 12.72C850.46 12.4267 850.313 12.06 850.313 11.62C850.313 11.18 850.46 10.8133 850.753 10.52C851.06 10.2133 851.447 10.06 851.913 10.06ZM867.518 15.12C868.371 15.12 869.051 15.4133 869.558 16C870.064 16.5733 870.318 17.3533 870.318 18.34V26H867.758V18.74C867.758 17.6067 867.371 17.04 866.598 17.04C866.184 17.04 865.824 17.1733 865.518 17.44C865.224 17.6933 864.918 18.0933 864.598 18.64V26H862.038V18.74C862.038 17.6067 861.651 17.04 860.878 17.04C860.451 17.04 860.084 17.1733 859.778 17.44C859.484 17.6933 859.178 18.0933 858.858 18.64V26H856.298V15.42H858.518L858.718 16.8C859.518 15.68 860.538 15.12 861.778 15.12C862.391 15.12 862.918 15.28 863.358 15.6C863.811 15.9067 864.138 16.34 864.338 16.9C864.764 16.3267 865.231 15.8867 865.738 15.58C866.258 15.2733 866.851 15.12 867.518 15.12ZM881.97 20.46C881.97 20.5933 881.95 20.94 881.91 21.5H875.27C875.35 22.5267 875.617 23.26 876.07 23.7C876.523 24.14 877.123 24.36 877.87 24.36C878.337 24.36 878.777 24.2867 879.19 24.14C879.603 23.98 880.043 23.74 880.51 23.42L881.57 24.88C880.397 25.8267 879.09 26.3 877.65 26.3C876.037 26.3 874.79 25.8067 873.91 24.82C873.043 23.8333 872.61 22.4867 872.61 20.78C872.61 19.7 872.797 18.7333 873.17 17.88C873.543 17.0133 874.083 16.34 874.79 15.86C875.497 15.3667 876.337 15.12 877.31 15.12C878.79 15.12 879.937 15.5933 880.75 16.54C881.563 17.4733 881.97 18.78 881.97 20.46ZM879.43 19.72C879.43 17.8667 878.743 16.94 877.37 16.94C876.743 16.94 876.25 17.1733 875.89 17.64C875.543 18.0933 875.337 18.8267 875.27 19.84H879.43V19.72ZM895.327 25.5C894.953 25.7667 894.533 25.9667 894.067 26.1C893.613 26.2333 893.147 26.3 892.667 26.3C891.627 26.2867 890.833 25.9933 890.287 25.42C889.753 24.8333 889.487 23.9733 889.487 22.84V17.26H887.827V15.42H889.487V13.08L892.047 12.78V15.42H894.507L894.247 17.26H892.047V22.78C892.047 23.3 892.133 23.6733 892.307 23.9C892.493 24.1267 892.78 24.24 893.167 24.24C893.553 24.24 893.973 24.1133 894.427 23.86L895.327 25.5ZM900.686 15.3V18.36H903.666V20.38H900.686V23.44H898.486V20.38H895.526V18.36H898.486V15.3H900.686ZM910.432 12.54V26H907.912V15.12L904.912 16.94L903.792 15.22L908.172 12.54H910.432Z" fill="black"/>
</g>
<g id="function_body">
<circle id="Ellipse 7" cx="478" cy="86" r="65" stroke="black" stroke-width="10"/>
<path id="f( x ; w )" d="M448.623 79.84C448.116 79.84 447.749 79.96 447.523 80.2C447.309 80.4267 447.203 80.7933 447.203 81.3V82.42H449.743L449.463 84.26H447.203V93H444.643V84.26H442.923V82.42H444.643V81.26C444.643 80.26 444.963 79.4533 445.603 78.84C446.256 78.2133 447.176 77.9 448.363 77.9C449.296 77.9 450.209 78.1067 451.103 78.52L450.363 80.24C449.789 79.9733 449.209 79.84 448.623 79.84ZM455.736 77.06C454.75 78.4733 454.03 79.8467 453.576 81.18C453.136 82.5 452.916 84.1067 452.916 86C452.916 87.88 453.136 89.4867 453.576 90.82C454.03 92.1533 454.75 93.5267 455.736 94.94L454.096 96.04C453.23 94.8267 452.543 93.8 452.036 92.96C451.543 92.1067 451.13 91.1067 450.796 89.96C450.463 88.8 450.296 87.48 450.296 86C450.296 84.52 450.463 83.2067 450.796 82.06C451.13 80.9 451.543 79.9 452.036 79.06C452.543 78.2067 453.23 77.1733 454.096 75.96L455.736 77.06ZM467.741 87.34L471.281 93H468.321L466.141 88.8L463.981 93H461.161L464.681 87.42L461.521 82.42H464.441L466.241 86.02L468.021 82.42H470.801L467.741 87.34ZM478.601 90.06C479.067 90.06 479.454 90.2133 479.761 90.52C480.081 90.8267 480.241 91.2133 480.241 91.68C480.241 91.9333 480.201 92.1933 480.121 92.46C480.041 92.7267 479.907 93.0667 479.721 93.48L478.421 96.44H476.861L477.681 93C477.227 92.6933 477.001 92.2467 477.001 91.66C477.001 91.2067 477.154 90.8267 477.461 90.52C477.767 90.2133 478.147 90.06 478.601 90.06ZM478.601 82.94C479.054 82.94 479.441 83.1 479.761 83.42C480.081 83.7267 480.241 84.1067 480.241 84.56C480.241 85 480.081 85.38 479.761 85.7C479.441 86.02 479.054 86.18 478.601 86.18C478.161 86.18 477.781 86.02 477.461 85.7C477.154 85.38 477.001 85 477.001 84.56C477.001 84.1067 477.154 83.7267 477.461 83.42C477.767 83.1 478.147 82.94 478.601 82.94ZM500.485 82.42L498.185 93H494.985L493.385 84.7L491.745 93H488.605L486.265 82.42H488.825L490.305 91.12L492.145 82.42H494.765L496.445 91.12L498.025 82.42H500.485ZM507.833 75.96C508.7 77.16 509.38 78.1867 509.873 79.04C510.38 79.8933 510.8 80.8933 511.133 82.04C511.466 83.1867 511.633 84.5067 511.633 86C511.633 87.4933 511.466 88.8133 511.133 89.96C510.8 91.1067 510.38 92.1067 509.873 92.96C509.38 93.8133 508.7 94.84 507.833 96.04L506.213 94.94C507.186 93.5267 507.9 92.1533 508.353 90.82C508.806 89.4867 509.033 87.88 509.033 86C509.033 84.12 508.806 82.52 508.353 81.2C507.9 79.8667 507.186 78.4867 506.213 77.06L507.833 75.96Z" fill="black"/>
<path id="Arrow 1" d="M407 86L392 77.3397V94.6603L407 86ZM317 87.5H393.5V84.5H317V87.5Z" fill="black"/>
<path id="Arrow 2" d="M638 86L623 77.3397V94.6603L638 86ZM548 87.5H624.5V84.5H548V87.5Z" fill="black"/>
</g>
</g>
</svg>
