<svg width="992" height="182" viewBox="0 0 992 182" fill="none" xmlns="http://www.w3.org/2000/svg">
<g id="input_output_nn">
<g id="map">
<g id="behaviour">
<path id="stimuli" d="M180.146 161.12C181.572 161.12 182.826 161.54 183.906 162.38L182.906 163.88C181.999 163.307 181.112 163.02 180.246 163.02C179.739 163.02 179.346 163.12 179.066 163.32C178.786 163.507 178.646 163.76 178.646 164.08C178.646 164.32 178.706 164.52 178.826 164.68C178.946 164.84 179.159 164.993 179.466 165.14C179.786 165.273 180.252 165.427 180.866 165.6C182.012 165.907 182.859 166.313 183.406 166.82C183.966 167.327 184.246 168.033 184.246 168.94C184.246 169.993 183.819 170.82 182.966 171.42C182.112 172.007 181.052 172.3 179.786 172.3C178.919 172.3 178.126 172.167 177.406 171.9C176.699 171.633 176.086 171.267 175.566 170.8L176.846 169.36C177.766 170.053 178.726 170.4 179.726 170.4C180.299 170.4 180.752 170.287 181.086 170.06C181.432 169.833 181.606 169.52 181.606 169.12C181.606 168.813 181.539 168.573 181.406 168.4C181.286 168.213 181.059 168.053 180.726 167.92C180.406 167.773 179.899 167.6 179.206 167.4C178.126 167.107 177.332 166.7 176.826 166.18C176.319 165.647 176.066 164.987 176.066 164.2C176.066 163.613 176.232 163.087 176.566 162.62C176.912 162.153 177.392 161.787 178.006 161.52C178.632 161.253 179.346 161.12 180.146 161.12ZM192.377 171.5C192.004 171.767 191.584 171.967 191.117 172.1C190.664 172.233 190.197 172.3 189.717 172.3C188.677 172.287 187.884 171.993 187.337 171.42C186.804 170.833 186.537 169.973 186.537 168.84V163.26H184.877V161.42H186.537V159.08L189.097 158.78V161.42H191.557L191.297 163.26H189.097V168.78C189.097 169.3 189.184 169.673 189.357 169.9C189.544 170.127 189.831 170.24 190.217 170.24C190.604 170.24 191.024 170.113 191.477 169.86L192.377 171.5ZM196.377 161.42V172H193.817V161.42H196.377ZM195.077 156.06C195.557 156.06 195.944 156.213 196.237 156.52C196.544 156.813 196.697 157.18 196.697 157.62C196.697 158.06 196.544 158.427 196.237 158.72C195.944 159.013 195.557 159.16 195.077 159.16C194.611 159.16 194.224 159.013 193.917 158.72C193.624 158.427 193.477 158.06 193.477 157.62C193.477 157.18 193.624 156.813 193.917 156.52C194.224 156.213 194.611 156.06 195.077 156.06ZM210.682 161.12C211.535 161.12 212.215 161.413 212.722 162C213.229 162.573 213.482 163.353 213.482 164.34V172H210.922V164.74C210.922 163.607 210.535 163.04 209.762 163.04C209.349 163.04 208.989 163.173 208.682 163.44C208.389 163.693 208.082 164.093 207.762 164.64V172H205.202V164.74C205.202 163.607 204.815 163.04 204.042 163.04C203.615 163.04 203.249 163.173 202.942 163.44C202.649 163.693 202.342 164.093 202.022 164.64V172H199.462V161.42H201.682L201.882 162.8C202.682 161.68 203.702 161.12 204.942 161.12C205.555 161.12 206.082 161.28 206.522 161.6C206.975 161.907 207.302 162.34 207.502 162.9C207.929 162.327 208.395 161.887 208.902 161.58C209.422 161.273 210.015 161.12 210.682 161.12ZM224.914 172H222.694L222.554 170.52C222.167 171.12 221.707 171.567 221.174 171.86C220.654 172.153 220.034 172.3 219.314 172.3C218.367 172.3 217.634 172.013 217.114 171.44C216.607 170.853 216.354 170.047 216.354 169.02V161.42H218.914V168.7C218.914 169.3 219.014 169.727 219.214 169.98C219.427 170.233 219.761 170.36 220.214 170.36C221.027 170.36 221.741 169.86 222.354 168.86V161.42H224.914V172ZM230.497 172.3C229.684 172.3 229.044 172.067 228.577 171.6C228.124 171.12 227.897 170.447 227.897 169.58V157.18L230.457 156.9V169.5C230.457 169.993 230.657 170.24 231.057 170.24C231.257 170.24 231.457 170.207 231.657 170.14L232.197 171.94C231.664 172.18 231.097 172.3 230.497 172.3ZM236.455 161.42V172H233.895V161.42H236.455ZM235.155 156.06C235.635 156.06 236.022 156.213 236.315 156.52C236.622 156.813 236.775 157.18 236.775 157.62C236.775 158.06 236.622 158.427 236.315 158.72C236.022 159.013 235.635 159.16 235.155 159.16C234.689 159.16 234.302 159.013 233.995 158.72C233.702 158.427 233.555 158.06 233.555 157.62C233.555 157.18 233.702 156.813 233.995 156.52C234.302 156.213 234.689 156.06 235.155 156.06Z" fill="black"/>
<path id="behaviour_2" d="M745.02 161.12C746.247 161.12 747.207 161.613 747.9 162.6C748.593 163.573 748.94 164.94 748.94 166.7C748.94 167.793 748.767 168.767 748.42 169.62C748.087 170.46 747.607 171.12 746.98 171.6C746.353 172.067 745.613 172.3 744.76 172.3C744.187 172.3 743.66 172.18 743.18 171.94C742.713 171.7 742.307 171.36 741.96 170.92L741.8 172H739.54V157.18L742.1 156.9V162.62C742.447 162.14 742.867 161.773 743.36 161.52C743.867 161.253 744.42 161.12 745.02 161.12ZM744.06 170.38C744.753 170.38 745.293 170.087 745.68 169.5C746.067 168.9 746.26 167.967 746.26 166.7C746.26 165.367 746.08 164.427 745.72 163.88C745.36 163.32 744.853 163.04 744.2 163.04C743.387 163.04 742.687 163.52 742.1 164.48V169.16C742.327 169.547 742.607 169.847 742.94 170.06C743.287 170.273 743.66 170.38 744.06 170.38ZM760.134 166.46C760.134 166.593 760.114 166.94 760.074 167.5H753.434C753.514 168.527 753.781 169.26 754.234 169.7C754.687 170.14 755.287 170.36 756.034 170.36C756.501 170.36 756.941 170.287 757.354 170.14C757.767 169.98 758.207 169.74 758.674 169.42L759.734 170.88C758.561 171.827 757.254 172.3 755.814 172.3C754.201 172.3 752.954 171.807 752.074 170.82C751.207 169.833 750.774 168.487 750.774 166.78C750.774 165.7 750.961 164.733 751.334 163.88C751.707 163.013 752.247 162.34 752.954 161.86C753.661 161.367 754.501 161.12 755.474 161.12C756.954 161.12 758.101 161.593 758.914 162.54C759.727 163.473 760.134 164.78 760.134 166.46ZM757.594 165.72C757.594 163.867 756.907 162.94 755.534 162.94C754.907 162.94 754.414 163.173 754.054 163.64C753.707 164.093 753.501 164.827 753.434 165.84H757.594V165.72ZM768.071 161.12C769.004 161.12 769.737 161.407 770.271 161.98C770.804 162.553 771.071 163.34 771.071 164.34V172H768.511V164.74C768.511 164.113 768.397 163.673 768.171 163.42C767.957 163.167 767.637 163.04 767.211 163.04C766.784 163.04 766.391 163.18 766.031 163.46C765.671 163.727 765.324 164.113 764.991 164.62V172H762.431V157.2L764.991 156.94V162.68C765.844 161.64 766.871 161.12 768.071 161.12ZM781.872 169.2C781.872 169.613 781.932 169.92 782.052 170.12C782.185 170.307 782.392 170.453 782.672 170.56L782.132 172.26C781.532 172.207 781.038 172.06 780.652 171.82C780.278 171.58 779.992 171.213 779.792 170.72C779.432 171.253 778.978 171.653 778.432 171.92C777.898 172.173 777.298 172.3 776.632 172.3C775.578 172.3 774.745 172 774.132 171.4C773.518 170.8 773.212 170.013 773.212 169.04C773.212 167.893 773.625 167.02 774.452 166.42C775.292 165.807 776.485 165.5 778.032 165.5H779.352V164.9C779.352 164.22 779.192 163.747 778.872 163.48C778.565 163.2 778.065 163.06 777.372 163.06C776.598 163.06 775.665 163.247 774.572 163.62L773.972 161.88C775.292 161.373 776.572 161.12 777.812 161.12C780.518 161.12 781.872 162.333 781.872 164.76V169.2ZM777.312 170.44C778.178 170.44 778.858 170.007 779.352 169.14V167H778.292C776.638 167 775.812 167.613 775.812 168.84C775.812 169.347 775.938 169.74 776.192 170.02C776.445 170.3 776.818 170.44 777.312 170.44ZM793.177 161.42L789.737 172H786.677L783.177 161.42H785.957L788.217 169.94L790.537 161.42H793.177ZM797.315 161.42V172H794.755V161.42H797.315ZM796.015 156.06C796.495 156.06 796.882 156.213 797.175 156.52C797.482 156.813 797.635 157.18 797.635 157.62C797.635 158.06 797.482 158.427 797.175 158.72C796.882 159.013 796.495 159.16 796.015 159.16C795.548 159.16 795.162 159.013 794.855 158.72C794.562 158.427 794.415 158.06 794.415 157.62C794.415 157.18 794.562 156.813 794.855 156.52C795.162 156.213 795.548 156.06 796.015 156.06ZM804.719 161.12C806.279 161.12 807.493 161.62 808.359 162.62C809.239 163.607 809.679 164.967 809.679 166.7C809.679 167.807 809.479 168.787 809.079 169.64C808.679 170.48 808.106 171.133 807.359 171.6C806.613 172.067 805.726 172.3 804.699 172.3C803.139 172.3 801.919 171.807 801.039 170.82C800.159 169.82 799.719 168.447 799.719 166.7C799.719 165.593 799.919 164.62 800.319 163.78C800.719 162.94 801.293 162.287 802.039 161.82C802.799 161.353 803.693 161.12 804.719 161.12ZM804.719 163.06C803.186 163.06 802.419 164.273 802.419 166.7C802.419 167.953 802.606 168.88 802.979 169.48C803.366 170.067 803.939 170.36 804.699 170.36C805.459 170.36 806.026 170.06 806.399 169.46C806.786 168.86 806.979 167.94 806.979 166.7C806.979 165.46 806.786 164.547 806.399 163.96C806.026 163.36 805.466 163.06 804.719 163.06ZM820.539 172H818.319L818.179 170.52C817.792 171.12 817.332 171.567 816.799 171.86C816.279 172.153 815.659 172.3 814.939 172.3C813.992 172.3 813.259 172.013 812.739 171.44C812.232 170.853 811.979 170.047 811.979 169.02V161.42H814.539V168.7C814.539 169.3 814.639 169.727 814.839 169.98C815.052 170.233 815.386 170.36 815.839 170.36C816.652 170.36 817.366 169.86 817.979 168.86V161.42H820.539V172ZM828.842 161.14C829.229 161.14 829.582 161.187 829.902 161.28L829.462 163.76C829.142 163.68 828.829 163.64 828.522 163.64C827.895 163.64 827.402 163.867 827.042 164.32C826.682 164.76 826.395 165.44 826.182 166.36V172H823.622V161.42H825.842L826.082 163.5C826.335 162.74 826.702 162.16 827.182 161.76C827.662 161.347 828.215 161.14 828.842 161.14Z" fill="black"/>
</g>
<g id="protein">
<path id="protein structure" d="M90.4888 114.12C91.8221 114.12 92.8088 114.607 93.4488 115.58C94.0888 116.553 94.4088 117.92 94.4088 119.68C94.4088 120.773 94.2421 121.747 93.9088 122.6C93.5888 123.44 93.1088 124.1 92.4688 124.58C91.8421 125.06 91.0954 125.3 90.2288 125.3C89.1088 125.3 88.2221 124.913 87.5688 124.14V129.08L85.0088 129.36V114.42H87.2488L87.3888 115.72C87.8021 115.187 88.2754 114.787 88.8088 114.52C89.3421 114.253 89.9021 114.12 90.4888 114.12ZM89.5088 123.34C90.9888 123.34 91.7288 122.127 91.7288 119.7C91.7288 118.407 91.5621 117.473 91.2288 116.9C90.8954 116.327 90.3954 116.04 89.7288 116.04C89.3021 116.04 88.9021 116.173 88.5288 116.44C88.1554 116.693 87.8354 117.04 87.5688 117.48V122.24C88.0621 122.973 88.7088 123.34 89.5088 123.34ZM102.143 114.14C102.529 114.14 102.883 114.187 103.203 114.28L102.763 116.76C102.443 116.68 102.129 116.64 101.823 116.64C101.196 116.64 100.703 116.867 100.343 117.32C99.9828 117.76 99.6961 118.44 99.4828 119.36V125H96.9228V114.42H99.1428L99.3828 116.5C99.6361 115.74 100.003 115.16 100.483 114.76C100.963 114.347 101.516 114.14 102.143 114.14ZM108.508 114.12C110.068 114.12 111.282 114.62 112.148 115.62C113.028 116.607 113.468 117.967 113.468 119.7C113.468 120.807 113.268 121.787 112.868 122.64C112.468 123.48 111.895 124.133 111.148 124.6C110.402 125.067 109.515 125.3 108.488 125.3C106.928 125.3 105.708 124.807 104.828 123.82C103.948 122.82 103.508 121.447 103.508 119.7C103.508 118.593 103.708 117.62 104.108 116.78C104.508 115.94 105.082 115.287 105.828 114.82C106.588 114.353 107.482 114.12 108.508 114.12ZM108.508 116.06C106.975 116.06 106.208 117.273 106.208 119.7C106.208 120.953 106.395 121.88 106.768 122.48C107.155 123.067 107.728 123.36 108.488 123.36C109.248 123.36 109.815 123.06 110.188 122.46C110.575 121.86 110.768 120.94 110.768 119.7C110.768 118.46 110.575 117.547 110.188 116.96C109.815 116.36 109.255 116.06 108.508 116.06ZM121.928 124.5C121.555 124.767 121.135 124.967 120.668 125.1C120.215 125.233 119.748 125.3 119.268 125.3C118.228 125.287 117.435 124.993 116.888 124.42C116.355 123.833 116.088 122.973 116.088 121.84V116.26H114.428V114.42H116.088V112.08L118.648 111.78V114.42H121.108L120.848 116.26H118.648V121.78C118.648 122.3 118.735 122.673 118.908 122.9C119.095 123.127 119.381 123.24 119.768 123.24C120.155 123.24 120.575 123.113 121.028 122.86L121.928 124.5ZM131.716 119.46C131.716 119.593 131.696 119.94 131.656 120.5H125.016C125.096 121.527 125.363 122.26 125.816 122.7C126.269 123.14 126.869 123.36 127.616 123.36C128.083 123.36 128.523 123.287 128.936 123.14C129.349 122.98 129.789 122.74 130.256 122.42L131.316 123.88C130.143 124.827 128.836 125.3 127.396 125.3C125.783 125.3 124.536 124.807 123.656 123.82C122.789 122.833 122.356 121.487 122.356 119.78C122.356 118.7 122.543 117.733 122.916 116.88C123.289 116.013 123.829 115.34 124.536 114.86C125.243 114.367 126.083 114.12 127.056 114.12C128.536 114.12 129.683 114.593 130.496 115.54C131.309 116.473 131.716 117.78 131.716 119.46ZM129.176 118.72C129.176 116.867 128.489 115.94 127.116 115.94C126.489 115.94 125.996 116.173 125.636 116.64C125.289 117.093 125.083 117.827 125.016 118.84H129.176V118.72ZM136.573 114.42V125H134.013V114.42H136.573ZM135.273 109.06C135.753 109.06 136.139 109.213 136.433 109.52C136.739 109.813 136.893 110.18 136.893 110.62C136.893 111.06 136.739 111.427 136.433 111.72C136.139 112.013 135.753 112.16 135.273 112.16C134.806 112.16 134.419 112.013 134.113 111.72C133.819 111.427 133.673 111.06 133.673 110.62C133.673 110.18 133.819 109.813 134.113 109.52C134.419 109.213 134.806 109.06 135.273 109.06ZM145.297 114.12C146.244 114.12 146.977 114.407 147.497 114.98C148.031 115.54 148.297 116.327 148.297 117.34V125H145.737V117.74C145.737 117.113 145.624 116.673 145.397 116.42C145.184 116.167 144.864 116.04 144.437 116.04C143.997 116.04 143.597 116.18 143.237 116.46C142.891 116.727 142.551 117.12 142.217 117.64V125H139.657V114.42H141.877L142.077 115.8C142.944 114.68 144.017 114.12 145.297 114.12ZM159.618 114.12C161.045 114.12 162.298 114.54 163.378 115.38L162.378 116.88C161.472 116.307 160.585 116.02 159.718 116.02C159.212 116.02 158.818 116.12 158.538 116.32C158.258 116.507 158.118 116.76 158.118 117.08C158.118 117.32 158.178 117.52 158.298 117.68C158.418 117.84 158.632 117.993 158.938 118.14C159.258 118.273 159.725 118.427 160.338 118.6C161.485 118.907 162.332 119.313 162.878 119.82C163.438 120.327 163.718 121.033 163.718 121.94C163.718 122.993 163.292 123.82 162.438 124.42C161.585 125.007 160.525 125.3 159.258 125.3C158.392 125.3 157.598 125.167 156.878 124.9C156.172 124.633 155.558 124.267 155.038 123.8L156.318 122.36C157.238 123.053 158.198 123.4 159.198 123.4C159.772 123.4 160.225 123.287 160.558 123.06C160.905 122.833 161.078 122.52 161.078 122.12C161.078 121.813 161.012 121.573 160.878 121.4C160.758 121.213 160.532 121.053 160.198 120.92C159.878 120.773 159.372 120.6 158.678 120.4C157.598 120.107 156.805 119.7 156.298 119.18C155.792 118.647 155.538 117.987 155.538 117.2C155.538 116.613 155.705 116.087 156.038 115.62C156.385 115.153 156.865 114.787 157.478 114.52C158.105 114.253 158.818 114.12 159.618 114.12ZM171.85 124.5C171.477 124.767 171.057 124.967 170.59 125.1C170.137 125.233 169.67 125.3 169.19 125.3C168.15 125.287 167.357 124.993 166.81 124.42C166.277 123.833 166.01 122.973 166.01 121.84V116.26H164.35V114.42H166.01V112.08L168.57 111.78V114.42H171.03L170.77 116.26H168.57V121.78C168.57 122.3 168.657 122.673 168.83 122.9C169.017 123.127 169.303 123.24 169.69 123.24C170.077 123.24 170.497 123.113 170.95 122.86L171.85 124.5ZM178.51 114.14C178.897 114.14 179.25 114.187 179.57 114.28L179.13 116.76C178.81 116.68 178.497 116.64 178.19 116.64C177.563 116.64 177.07 116.867 176.71 117.32C176.35 117.76 176.063 118.44 175.85 119.36V125H173.29V114.42H175.51L175.75 116.5C176.003 115.74 176.37 115.16 176.85 114.76C177.33 114.347 177.883 114.14 178.51 114.14ZM189.621 125H187.401L187.261 123.52C186.874 124.12 186.414 124.567 185.881 124.86C185.361 125.153 184.741 125.3 184.021 125.3C183.074 125.3 182.341 125.013 181.821 124.44C181.314 123.853 181.061 123.047 181.061 122.02V114.42H183.621V121.7C183.621 122.3 183.721 122.727 183.921 122.98C184.134 123.233 184.468 123.36 184.921 123.36C185.734 123.36 186.448 122.86 187.061 121.86V114.42H189.621V125ZM196.964 114.12C197.657 114.12 198.277 114.22 198.824 114.42C199.384 114.62 199.911 114.933 200.404 115.36L199.264 116.9C198.904 116.633 198.557 116.44 198.224 116.32C197.891 116.2 197.524 116.14 197.124 116.14C195.537 116.14 194.744 117.347 194.744 119.76C194.744 120.987 194.951 121.873 195.364 122.42C195.777 122.953 196.364 123.22 197.124 123.22C197.497 123.22 197.837 123.16 198.144 123.04C198.464 122.92 198.837 122.727 199.264 122.46L200.404 124.08C199.404 124.893 198.264 125.3 196.984 125.3C195.971 125.3 195.091 125.08 194.344 124.64C193.597 124.187 193.024 123.547 192.624 122.72C192.224 121.893 192.024 120.92 192.024 119.8C192.024 118.68 192.224 117.693 192.624 116.84C193.024 115.973 193.597 115.307 194.344 114.84C195.091 114.36 195.964 114.12 196.964 114.12ZM208.315 124.5C207.942 124.767 207.522 124.967 207.055 125.1C206.602 125.233 206.135 125.3 205.655 125.3C204.615 125.287 203.822 124.993 203.275 124.42C202.742 123.833 202.475 122.973 202.475 121.84V116.26H200.815V114.42H202.475V112.08L205.035 111.78V114.42H207.495L207.235 116.26H205.035V121.78C205.035 122.3 205.122 122.673 205.295 122.9C205.482 123.127 205.768 123.24 206.155 123.24C206.542 123.24 206.962 123.113 207.415 122.86L208.315 124.5ZM218.215 125H215.995L215.855 123.52C215.468 124.12 215.008 124.567 214.475 124.86C213.955 125.153 213.335 125.3 212.615 125.3C211.668 125.3 210.935 125.013 210.415 124.44C209.908 123.853 209.655 123.047 209.655 122.02V114.42H212.215V121.7C212.215 122.3 212.315 122.727 212.515 122.98C212.728 123.233 213.062 123.36 213.515 123.36C214.328 123.36 215.042 122.86 215.655 121.86V114.42H218.215V125ZM226.518 114.14C226.904 114.14 227.258 114.187 227.578 114.28L227.138 116.76C226.818 116.68 226.504 116.64 226.198 116.64C225.571 116.64 225.078 116.867 224.718 117.32C224.358 117.76 224.071 118.44 223.858 119.36V125H221.298V114.42H223.518L223.758 116.5C224.011 115.74 224.378 115.16 224.858 114.76C225.338 114.347 225.891 114.14 226.518 114.14ZM237.243 119.46C237.243 119.593 237.223 119.94 237.183 120.5H230.543C230.623 121.527 230.89 122.26 231.343 122.7C231.797 123.14 232.397 123.36 233.143 123.36C233.61 123.36 234.05 123.287 234.463 123.14C234.877 122.98 235.317 122.74 235.783 122.42L236.843 123.88C235.67 124.827 234.363 125.3 232.923 125.3C231.31 125.3 230.063 124.807 229.183 123.82C228.317 122.833 227.883 121.487 227.883 119.78C227.883 118.7 228.07 117.733 228.443 116.88C228.817 116.013 229.357 115.34 230.063 114.86C230.77 114.367 231.61 114.12 232.583 114.12C234.063 114.12 235.21 114.593 236.023 115.54C236.837 116.473 237.243 117.78 237.243 119.46ZM234.703 118.72C234.703 116.867 234.017 115.94 232.643 115.94C232.017 115.94 231.523 116.173 231.163 116.64C230.817 117.093 230.61 117.827 230.543 118.84H234.703V118.72Z" fill="black"/>
<path id="protein function" d="M745.02 114.12C746.353 114.12 747.34 114.607 747.98 115.58C748.62 116.553 748.94 117.92 748.94 119.68C748.94 120.773 748.773 121.747 748.44 122.6C748.12 123.44 747.64 124.1 747 124.58C746.373 125.06 745.627 125.3 744.76 125.3C743.64 125.3 742.753 124.913 742.1 124.14V129.08L739.54 129.36V114.42H741.78L741.92 115.72C742.333 115.187 742.807 114.787 743.34 114.52C743.873 114.253 744.433 114.12 745.02 114.12ZM744.04 123.34C745.52 123.34 746.26 122.127 746.26 119.7C746.26 118.407 746.093 117.473 745.76 116.9C745.427 116.327 744.927 116.04 744.26 116.04C743.833 116.04 743.433 116.173 743.06 116.44C742.687 116.693 742.367 117.04 742.1 117.48V122.24C742.593 122.973 743.24 123.34 744.04 123.34ZM756.674 114.14C757.061 114.14 757.414 114.187 757.734 114.28L757.294 116.76C756.974 116.68 756.661 116.64 756.354 116.64C755.727 116.64 755.234 116.867 754.874 117.32C754.514 117.76 754.227 118.44 754.014 119.36V125H751.454V114.42H753.674L753.914 116.5C754.167 115.74 754.534 115.16 755.014 114.76C755.494 114.347 756.047 114.14 756.674 114.14ZM763.04 114.12C764.6 114.12 765.813 114.62 766.68 115.62C767.56 116.607 768 117.967 768 119.7C768 120.807 767.8 121.787 767.4 122.64C767 123.48 766.426 124.133 765.68 124.6C764.933 125.067 764.046 125.3 763.02 125.3C761.46 125.3 760.24 124.807 759.36 123.82C758.48 122.82 758.04 121.447 758.04 119.7C758.04 118.593 758.24 117.62 758.64 116.78C759.04 115.94 759.613 115.287 760.36 114.82C761.12 114.353 762.013 114.12 763.04 114.12ZM763.04 116.06C761.506 116.06 760.74 117.273 760.74 119.7C760.74 120.953 760.926 121.88 761.3 122.48C761.686 123.067 762.26 123.36 763.02 123.36C763.78 123.36 764.346 123.06 764.72 122.46C765.106 121.86 765.3 120.94 765.3 119.7C765.3 118.46 765.106 117.547 764.72 116.96C764.346 116.36 763.786 116.06 763.04 116.06ZM776.459 124.5C776.086 124.767 775.666 124.967 775.199 125.1C774.746 125.233 774.279 125.3 773.799 125.3C772.759 125.287 771.966 124.993 771.419 124.42C770.886 123.833 770.619 122.973 770.619 121.84V116.26H768.959V114.42H770.619V112.08L773.179 111.78V114.42H775.639L775.379 116.26H773.179V121.78C773.179 122.3 773.266 122.673 773.439 122.9C773.626 123.127 773.913 123.24 774.299 123.24C774.686 123.24 775.106 123.113 775.559 122.86L776.459 124.5ZM786.247 119.46C786.247 119.593 786.227 119.94 786.187 120.5H779.547C779.627 121.527 779.894 122.26 780.347 122.7C780.801 123.14 781.401 123.36 782.147 123.36C782.614 123.36 783.054 123.287 783.467 123.14C783.881 122.98 784.321 122.74 784.787 122.42L785.847 123.88C784.674 124.827 783.367 125.3 781.927 125.3C780.314 125.3 779.067 124.807 778.187 123.82C777.321 122.833 776.887 121.487 776.887 119.78C776.887 118.7 777.074 117.733 777.447 116.88C777.821 116.013 778.361 115.34 779.067 114.86C779.774 114.367 780.614 114.12 781.587 114.12C783.067 114.12 784.214 114.593 785.027 115.54C785.841 116.473 786.247 117.78 786.247 119.46ZM783.707 118.72C783.707 116.867 783.021 115.94 781.647 115.94C781.021 115.94 780.527 116.173 780.167 116.64C779.821 117.093 779.614 117.827 779.547 118.84H783.707V118.72ZM791.104 114.42V125H788.544V114.42H791.104ZM789.804 109.06C790.284 109.06 790.671 109.213 790.964 109.52C791.271 109.813 791.424 110.18 791.424 110.62C791.424 111.06 791.271 111.427 790.964 111.72C790.671 112.013 790.284 112.16 789.804 112.16C789.337 112.16 788.951 112.013 788.644 111.72C788.351 111.427 788.204 111.06 788.204 110.62C788.204 110.18 788.351 109.813 788.644 109.52C788.951 109.213 789.337 109.06 789.804 109.06ZM799.828 114.12C800.775 114.12 801.508 114.407 802.028 114.98C802.562 115.54 802.828 116.327 802.828 117.34V125H800.268V117.74C800.268 117.113 800.155 116.673 799.928 116.42C799.715 116.167 799.395 116.04 798.968 116.04C798.528 116.04 798.128 116.18 797.768 116.46C797.422 116.727 797.082 117.12 796.748 117.64V125H794.188V114.42H796.408L796.608 115.8C797.475 114.68 798.548 114.12 799.828 114.12ZM815.09 111.84C814.583 111.84 814.216 111.96 813.99 112.2C813.776 112.427 813.67 112.793 813.67 113.3V114.42H816.21L815.93 116.26H813.67V125H811.11V116.26H809.39V114.42H811.11V113.26C811.11 112.26 811.43 111.453 812.07 110.84C812.723 110.213 813.643 109.9 814.83 109.9C815.763 109.9 816.676 110.107 817.57 110.52L816.83 112.24C816.256 111.973 815.676 111.84 815.09 111.84ZM826.203 125H823.983L823.843 123.52C823.456 124.12 822.996 124.567 822.463 124.86C821.943 125.153 821.323 125.3 820.603 125.3C819.656 125.3 818.923 125.013 818.403 124.44C817.896 123.853 817.643 123.047 817.643 122.02V114.42H820.203V121.7C820.203 122.3 820.303 122.727 820.503 122.98C820.716 123.233 821.05 123.36 821.503 123.36C822.316 123.36 823.03 122.86 823.643 121.86V114.42H826.203V125ZM834.926 114.12C835.873 114.12 836.606 114.407 837.126 114.98C837.659 115.54 837.926 116.327 837.926 117.34V125H835.366V117.74C835.366 117.113 835.253 116.673 835.026 116.42C834.813 116.167 834.493 116.04 834.066 116.04C833.626 116.04 833.226 116.18 832.866 116.46C832.519 116.727 832.179 117.12 831.846 117.64V125H829.286V114.42H831.506L831.706 115.8C832.573 114.68 833.646 114.12 834.926 114.12ZM845.167 114.12C845.861 114.12 846.481 114.22 847.027 114.42C847.587 114.62 848.114 114.933 848.607 115.36L847.467 116.9C847.107 116.633 846.761 116.44 846.427 116.32C846.094 116.2 845.727 116.14 845.327 116.14C843.741 116.14 842.947 117.347 842.947 119.76C842.947 120.987 843.154 121.873 843.567 122.42C843.981 122.953 844.567 123.22 845.327 123.22C845.701 123.22 846.041 123.16 846.347 123.04C846.667 122.92 847.041 122.727 847.467 122.46L848.607 124.08C847.607 124.893 846.467 125.3 845.187 125.3C844.174 125.3 843.294 125.08 842.547 124.64C841.801 124.187 841.227 123.547 840.827 122.72C840.427 121.893 840.227 120.92 840.227 119.8C840.227 118.68 840.427 117.693 840.827 116.84C841.227 115.973 841.801 115.307 842.547 114.84C843.294 114.36 844.167 114.12 845.167 114.12ZM856.518 124.5C856.145 124.767 855.725 124.967 855.258 125.1C854.805 125.233 854.338 125.3 853.858 125.3C852.818 125.287 852.025 124.993 851.478 124.42C850.945 123.833 850.678 122.973 850.678 121.84V116.26H849.018V114.42H850.678V112.08L853.238 111.78V114.42H855.698L855.438 116.26H853.238V121.78C853.238 122.3 853.325 122.673 853.498 122.9C853.685 123.127 853.971 123.24 854.358 123.24C854.745 123.24 855.165 123.113 855.618 122.86L856.518 124.5ZM860.518 114.42V125H857.958V114.42H860.518ZM859.218 109.06C859.698 109.06 860.085 109.213 860.378 109.52C860.685 109.813 860.838 110.18 860.838 110.62C860.838 111.06 860.685 111.427 860.378 111.72C860.085 112.013 859.698 112.16 859.218 112.16C858.751 112.16 858.365 112.013 858.058 111.72C857.765 111.427 857.618 111.06 857.618 110.62C857.618 110.18 857.765 109.813 858.058 109.52C858.365 109.213 858.751 109.06 859.218 109.06ZM867.923 114.12C869.483 114.12 870.696 114.62 871.563 115.62C872.443 116.607 872.883 117.967 872.883 119.7C872.883 120.807 872.683 121.787 872.283 122.64C871.883 123.48 871.309 124.133 870.563 124.6C869.816 125.067 868.929 125.3 867.903 125.3C866.343 125.3 865.123 124.807 864.243 123.82C863.363 122.82 862.923 121.447 862.923 119.7C862.923 118.593 863.123 117.62 863.523 116.78C863.923 115.94 864.496 115.287 865.243 114.82C866.003 114.353 866.896 114.12 867.923 114.12ZM867.923 116.06C866.389 116.06 865.623 117.273 865.623 119.7C865.623 120.953 865.809 121.88 866.183 122.48C866.569 123.067 867.143 123.36 867.903 123.36C868.663 123.36 869.229 123.06 869.603 122.46C869.989 121.86 870.183 120.94 870.183 119.7C870.183 118.46 869.989 117.547 869.603 116.96C869.229 116.36 868.669 116.06 867.923 116.06ZM880.922 114.12C881.869 114.12 882.602 114.407 883.122 114.98C883.656 115.54 883.922 116.327 883.922 117.34V125H881.362V117.74C881.362 117.113 881.249 116.673 881.022 116.42C880.809 116.167 880.489 116.04 880.062 116.04C879.622 116.04 879.222 116.18 878.862 116.46C878.516 116.727 878.176 117.12 877.842 117.64V125H875.282V114.42H877.502L877.702 115.8C878.569 114.68 879.642 114.12 880.922 114.12Z" fill="black"/>
</g>
<g id="population">
<path id="population size at time t" d="M22.813 67.12C24.1463 67.12 25.133 67.6067 25.773 68.58C26.413 69.5533 26.733 70.92 26.733 72.68C26.733 73.7733 26.5663 74.7467 26.233 75.6C25.913 76.44 25.433 77.1 24.793 77.58C24.1663 78.06 23.4196 78.3 22.553 78.3C21.433 78.3 20.5463 77.9133 19.893 77.14V82.08L17.333 82.36V67.42H19.573L19.713 68.72C20.1263 68.1867 20.5996 67.7867 21.133 67.52C21.6663 67.2533 22.2263 67.12 22.813 67.12ZM21.833 76.34C23.313 76.34 24.053 75.1267 24.053 72.7C24.053 71.4067 23.8863 70.4733 23.553 69.9C23.2196 69.3267 22.7196 69.04 22.053 69.04C21.6263 69.04 21.2263 69.1733 20.853 69.44C20.4796 69.6933 20.1596 70.04 19.893 70.48V75.24C20.3863 75.9733 21.033 76.34 21.833 76.34ZM33.567 67.12C35.127 67.12 36.3404 67.62 37.207 68.62C38.087 69.6067 38.527 70.9667 38.527 72.7C38.527 73.8067 38.327 74.7867 37.927 75.64C37.527 76.48 36.9537 77.1333 36.207 77.6C35.4604 78.0667 34.5737 78.3 33.547 78.3C31.987 78.3 30.767 77.8067 29.887 76.82C29.007 75.82 28.567 74.4467 28.567 72.7C28.567 71.5933 28.767 70.62 29.167 69.78C29.567 68.94 30.1404 68.2867 30.887 67.82C31.647 67.3533 32.5404 67.12 33.567 67.12ZM33.567 69.06C32.0337 69.06 31.267 70.2733 31.267 72.7C31.267 73.9533 31.4537 74.88 31.827 75.48C32.2137 76.0667 32.787 76.36 33.547 76.36C34.307 76.36 34.8737 76.06 35.247 75.46C35.6337 74.86 35.827 73.94 35.827 72.7C35.827 71.46 35.6337 70.5467 35.247 69.96C34.8737 69.36 34.3137 69.06 33.567 69.06ZM46.4067 67.12C47.7401 67.12 48.7267 67.6067 49.3667 68.58C50.0067 69.5533 50.3267 70.92 50.3267 72.68C50.3267 73.7733 50.1601 74.7467 49.8267 75.6C49.5067 76.44 49.0267 77.1 48.3867 77.58C47.7601 78.06 47.0134 78.3 46.1467 78.3C45.0267 78.3 44.1401 77.9133 43.4867 77.14V82.08L40.9267 82.36V67.42H43.1667L43.3067 68.72C43.7201 68.1867 44.1934 67.7867 44.7267 67.52C45.2601 67.2533 45.8201 67.12 46.4067 67.12ZM45.4267 76.34C46.9067 76.34 47.6467 75.1267 47.6467 72.7C47.6467 71.4067 47.4801 70.4733 47.1467 69.9C46.8134 69.3267 46.3134 69.04 45.6467 69.04C45.2201 69.04 44.8201 69.1733 44.4467 69.44C44.0734 69.6933 43.7534 70.04 43.4867 70.48V75.24C43.9801 75.9733 44.6267 76.34 45.4267 76.34ZM61.3008 78H59.0808L58.9408 76.52C58.5541 77.12 58.0941 77.5667 57.5608 77.86C57.0408 78.1533 56.4208 78.3 55.7008 78.3C54.7541 78.3 54.0208 78.0133 53.5008 77.44C52.9941 76.8533 52.7408 76.0467 52.7408 75.02V67.42H55.3008V74.7C55.3008 75.3 55.4008 75.7267 55.6008 75.98C55.8141 76.2333 56.1474 76.36 56.6008 76.36C57.4141 76.36 58.1274 75.86 58.7408 74.86V67.42H61.3008V78ZM66.8838 78.3C66.0704 78.3 65.4304 78.0667 64.9638 77.6C64.5104 77.12 64.2838 76.4467 64.2838 75.58V63.18L66.8438 62.9V75.5C66.8438 75.9933 67.0438 76.24 67.4438 76.24C67.6438 76.24 67.8438 76.2067 68.0438 76.14L68.5838 77.94C68.0504 78.18 67.4838 78.3 66.8838 78.3ZM78.0045 75.2C78.0045 75.6133 78.0645 75.92 78.1845 76.12C78.3179 76.3067 78.5245 76.4533 78.8045 76.56L78.2645 78.26C77.6645 78.2067 77.1712 78.06 76.7845 77.82C76.4112 77.58 76.1245 77.2133 75.9245 76.72C75.5645 77.2533 75.1112 77.6533 74.5645 77.92C74.0312 78.1733 73.4312 78.3 72.7645 78.3C71.7112 78.3 70.8779 78 70.2645 77.4C69.6512 76.8 69.3445 76.0133 69.3445 75.04C69.3445 73.8933 69.7579 73.02 70.5845 72.42C71.4245 71.8067 72.6179 71.5 74.1645 71.5H75.4845V70.9C75.4845 70.22 75.3245 69.7467 75.0045 69.48C74.6979 69.2 74.1979 69.06 73.5045 69.06C72.7312 69.06 71.7979 69.2467 70.7045 69.62L70.1045 67.88C71.4245 67.3733 72.7045 67.12 73.9445 67.12C76.6512 67.12 78.0045 68.3333 78.0045 70.76V75.2ZM73.4445 76.44C74.3112 76.44 74.9912 76.0067 75.4845 75.14V73H74.4245C72.7712 73 71.9445 73.6133 71.9445 74.84C71.9445 75.3467 72.0712 75.74 72.3245 76.02C72.5779 76.3 72.9512 76.44 73.4445 76.44ZM87.1625 77.5C86.7892 77.7667 86.3692 77.9667 85.9025 78.1C85.4492 78.2333 84.9825 78.3 84.5025 78.3C83.4625 78.2867 82.6692 77.9933 82.1225 77.42C81.5892 76.8333 81.3225 75.9733 81.3225 74.84V69.26H79.6625V67.42H81.3225V65.08L83.8825 64.78V67.42H86.3425L86.0825 69.26H83.8825V74.78C83.8825 75.3 83.9692 75.6733 84.1425 75.9C84.3292 76.1267 84.6158 76.24 85.0025 76.24C85.3892 76.24 85.8092 76.1133 86.2625 75.86L87.1625 77.5ZM91.1625 67.42V78H88.6025V67.42H91.1625ZM89.8625 62.06C90.3425 62.06 90.7292 62.2133 91.0225 62.52C91.3292 62.8133 91.4825 63.18 91.4825 63.62C91.4825 64.06 91.3292 64.4267 91.0225 64.72C90.7292 65.0133 90.3425 65.16 89.8625 65.16C89.3958 65.16 89.0092 65.0133 88.7025 64.72C88.4092 64.4267 88.2625 64.06 88.2625 63.62C88.2625 63.18 88.4092 62.8133 88.7025 62.52C89.0092 62.2133 89.3958 62.06 89.8625 62.06ZM98.567 67.12C100.127 67.12 101.34 67.62 102.207 68.62C103.087 69.6067 103.527 70.9667 103.527 72.7C103.527 73.8067 103.327 74.7867 102.927 75.64C102.527 76.48 101.954 77.1333 101.207 77.6C100.46 78.0667 99.5737 78.3 98.547 78.3C96.987 78.3 95.767 77.8067 94.887 76.82C94.007 75.82 93.567 74.4467 93.567 72.7C93.567 71.5933 93.767 70.62 94.167 69.78C94.567 68.94 95.1404 68.2867 95.887 67.82C96.647 67.3533 97.5404 67.12 98.567 67.12ZM98.567 69.06C97.0337 69.06 96.267 70.2733 96.267 72.7C96.267 73.9533 96.4537 74.88 96.827 75.48C97.2137 76.0667 97.787 76.36 98.547 76.36C99.307 76.36 99.8737 76.06 100.247 75.46C100.634 74.86 100.827 73.94 100.827 72.7C100.827 71.46 100.634 70.5467 100.247 69.96C99.8737 69.36 99.3137 69.06 98.567 69.06ZM111.567 67.12C112.513 67.12 113.247 67.4067 113.767 67.98C114.3 68.54 114.567 69.3267 114.567 70.34V78H112.007V70.74C112.007 70.1133 111.893 69.6733 111.667 69.42C111.453 69.1667 111.133 69.04 110.707 69.04C110.267 69.04 109.867 69.18 109.507 69.46C109.16 69.7267 108.82 70.12 108.487 70.64V78H105.927V67.42H108.147L108.347 68.8C109.213 67.68 110.287 67.12 111.567 67.12ZM125.888 67.12C127.314 67.12 128.568 67.54 129.648 68.38L128.648 69.88C127.741 69.3067 126.854 69.02 125.988 69.02C125.481 69.02 125.088 69.12 124.808 69.32C124.528 69.5067 124.388 69.76 124.388 70.08C124.388 70.32 124.448 70.52 124.568 70.68C124.688 70.84 124.901 70.9933 125.208 71.14C125.528 71.2733 125.994 71.4267 126.608 71.6C127.754 71.9067 128.601 72.3133 129.148 72.82C129.708 73.3267 129.988 74.0333 129.988 74.94C129.988 75.9933 129.561 76.82 128.708 77.42C127.854 78.0067 126.794 78.3 125.528 78.3C124.661 78.3 123.868 78.1667 123.148 77.9C122.441 77.6333 121.828 77.2667 121.308 76.8L122.588 75.36C123.508 76.0533 124.468 76.4 125.468 76.4C126.041 76.4 126.494 76.2867 126.828 76.06C127.174 75.8333 127.348 75.52 127.348 75.12C127.348 74.8133 127.281 74.5733 127.148 74.4C127.028 74.2133 126.801 74.0533 126.468 73.92C126.148 73.7733 125.641 73.6 124.948 73.4C123.868 73.1067 123.074 72.7 122.568 72.18C122.061 71.6467 121.808 70.9867 121.808 70.2C121.808 69.6133 121.974 69.0867 122.308 68.62C122.654 68.1533 123.134 67.7867 123.748 67.52C124.374 67.2533 125.088 67.12 125.888 67.12ZM134.62 67.42V78H132.06V67.42H134.62ZM133.32 62.06C133.8 62.06 134.186 62.2133 134.48 62.52C134.786 62.8133 134.94 63.18 134.94 63.62C134.94 64.06 134.786 64.4267 134.48 64.72C134.186 65.0133 133.8 65.16 133.32 65.16C132.853 65.16 132.466 65.0133 132.16 64.72C131.866 64.4267 131.72 64.06 131.72 63.62C131.72 63.18 131.866 62.8133 132.16 62.52C132.466 62.2133 132.853 62.06 133.32 62.06ZM144.584 67.42V69.26L139.464 76H144.684L144.424 78H136.524V76.16L141.664 69.42H136.964V67.42H144.584ZM155.212 72.46C155.212 72.5933 155.192 72.94 155.152 73.5H148.512C148.592 74.5267 148.859 75.26 149.312 75.7C149.766 76.14 150.366 76.36 151.112 76.36C151.579 76.36 152.019 76.2867 152.432 76.14C152.846 75.98 153.286 75.74 153.752 75.42L154.812 76.88C153.639 77.8267 152.332 78.3 150.892 78.3C149.279 78.3 148.032 77.8067 147.152 76.82C146.286 75.8333 145.852 74.4867 145.852 72.78C145.852 71.7 146.039 70.7333 146.412 69.88C146.786 69.0133 147.326 68.34 148.032 67.86C148.739 67.3667 149.579 67.12 150.552 67.12C152.032 67.12 153.179 67.5933 153.992 68.54C154.806 69.4733 155.212 70.78 155.212 72.46ZM152.672 71.72C152.672 69.8667 151.986 68.94 150.612 68.94C149.986 68.94 149.492 69.1733 149.132 69.64C148.786 70.0933 148.579 70.8267 148.512 71.84H152.672V71.72ZM170.329 75.2C170.329 75.6133 170.389 75.92 170.509 76.12C170.642 76.3067 170.849 76.4533 171.129 76.56L170.589 78.26C169.989 78.2067 169.495 78.06 169.109 77.82C168.735 77.58 168.449 77.2133 168.249 76.72C167.889 77.2533 167.435 77.6533 166.889 77.92C166.355 78.1733 165.755 78.3 165.089 78.3C164.035 78.3 163.202 78 162.589 77.4C161.975 76.8 161.669 76.0133 161.669 75.04C161.669 73.8933 162.082 73.02 162.909 72.42C163.749 71.8067 164.942 71.5 166.489 71.5H167.809V70.9C167.809 70.22 167.649 69.7467 167.329 69.48C167.022 69.2 166.522 69.06 165.829 69.06C165.055 69.06 164.122 69.2467 163.029 69.62L162.429 67.88C163.749 67.3733 165.029 67.12 166.269 67.12C168.975 67.12 170.329 68.3333 170.329 70.76V75.2ZM165.769 76.44C166.635 76.44 167.315 76.0067 167.809 75.14V73H166.749C165.095 73 164.269 73.6133 164.269 74.84C164.269 75.3467 164.395 75.74 164.649 76.02C164.902 76.3 165.275 76.44 165.769 76.44ZM179.487 77.5C179.113 77.7667 178.693 77.9667 178.227 78.1C177.773 78.2333 177.307 78.3 176.827 78.3C175.787 78.2867 174.993 77.9933 174.447 77.42C173.913 76.8333 173.647 75.9733 173.647 74.84V69.26H171.987V67.42H173.647V65.08L176.207 64.78V67.42H178.667L178.407 69.26H176.207V74.78C176.207 75.3 176.293 75.6733 176.467 75.9C176.653 76.1267 176.94 76.24 177.327 76.24C177.713 76.24 178.133 76.1133 178.587 75.86L179.487 77.5ZM191.987 77.5C191.613 77.7667 191.193 77.9667 190.727 78.1C190.273 78.2333 189.807 78.3 189.327 78.3C188.287 78.2867 187.493 77.9933 186.947 77.42C186.413 76.8333 186.147 75.9733 186.147 74.84V69.26H184.487V67.42H186.147V65.08L188.707 64.78V67.42H191.167L190.907 69.26H188.707V74.78C188.707 75.3 188.793 75.6733 188.967 75.9C189.153 76.1267 189.44 76.24 189.827 76.24C190.213 76.24 190.633 76.1133 191.087 75.86L191.987 77.5ZM195.987 67.42V78H193.427V67.42H195.987ZM194.687 62.06C195.167 62.06 195.553 62.2133 195.847 62.52C196.153 62.8133 196.307 63.18 196.307 63.62C196.307 64.06 196.153 64.4267 195.847 64.72C195.553 65.0133 195.167 65.16 194.687 65.16C194.22 65.16 193.833 65.0133 193.527 64.72C193.233 64.4267 193.087 64.06 193.087 63.62C193.087 63.18 193.233 62.8133 193.527 62.52C193.833 62.2133 194.22 62.06 194.687 62.06ZM210.291 67.12C211.145 67.12 211.825 67.4133 212.331 68C212.838 68.5733 213.091 69.3533 213.091 70.34V78H210.531V70.74C210.531 69.6067 210.145 69.04 209.371 69.04C208.958 69.04 208.598 69.1733 208.291 69.44C207.998 69.6933 207.691 70.0933 207.371 70.64V78H204.811V70.74C204.811 69.6067 204.425 69.04 203.651 69.04C203.225 69.04 202.858 69.1733 202.551 69.44C202.258 69.6933 201.951 70.0933 201.631 70.64V78H199.071V67.42H201.291L201.491 68.8C202.291 67.68 203.311 67.12 204.551 67.12C205.165 67.12 205.691 67.28 206.131 67.6C206.585 67.9067 206.911 68.34 207.111 68.9C207.538 68.3267 208.005 67.8867 208.511 67.58C209.031 67.2733 209.625 67.12 210.291 67.12ZM224.743 72.46C224.743 72.5933 224.723 72.94 224.683 73.5H218.043C218.123 74.5267 218.39 75.26 218.843 75.7C219.297 76.14 219.897 76.36 220.643 76.36C221.11 76.36 221.55 76.2867 221.963 76.14C222.377 75.98 222.817 75.74 223.283 75.42L224.343 76.88C223.17 77.8267 221.863 78.3 220.423 78.3C218.81 78.3 217.563 77.8067 216.683 76.82C215.817 75.8333 215.383 74.4867 215.383 72.78C215.383 71.7 215.57 70.7333 215.943 69.88C216.317 69.0133 216.857 68.34 217.563 67.86C218.27 67.3667 219.11 67.12 220.083 67.12C221.563 67.12 222.71 67.5933 223.523 68.54C224.337 69.4733 224.743 70.78 224.743 72.46ZM222.203 71.72C222.203 69.8667 221.517 68.94 220.143 68.94C219.517 68.94 219.023 69.1733 218.663 69.64C218.317 70.0933 218.11 70.8267 218.043 71.84H222.203V71.72ZM238.1 77.5C237.727 77.7667 237.307 77.9667 236.84 78.1C236.387 78.2333 235.92 78.3 235.44 78.3C234.4 78.2867 233.607 77.9933 233.06 77.42C232.527 76.8333 232.26 75.9733 232.26 74.84V69.26H230.6V67.42H232.26V65.08L234.82 64.78V67.42H237.28L237.02 69.26H234.82V74.78C234.82 75.3 234.907 75.6733 235.08 75.9C235.267 76.1267 235.553 76.24 235.94 76.24C236.327 76.24 236.747 76.1133 237.2 75.86L238.1 77.5Z" fill="black"/>
<path id="population size at time t+1" d="M745.02 67.12C746.353 67.12 747.34 67.6067 747.98 68.58C748.62 69.5533 748.94 70.92 748.94 72.68C748.94 73.7733 748.773 74.7467 748.44 75.6C748.12 76.44 747.64 77.1 747 77.58C746.373 78.06 745.627 78.3 744.76 78.3C743.64 78.3 742.753 77.9133 742.1 77.14V82.08L739.54 82.36V67.42H741.78L741.92 68.72C742.333 68.1867 742.807 67.7867 743.34 67.52C743.873 67.2533 744.433 67.12 745.02 67.12ZM744.04 76.34C745.52 76.34 746.26 75.1267 746.26 72.7C746.26 71.4067 746.093 70.4733 745.76 69.9C745.427 69.3267 744.927 69.04 744.26 69.04C743.833 69.04 743.433 69.1733 743.06 69.44C742.687 69.6933 742.367 70.04 742.1 70.48V75.24C742.593 75.9733 743.24 76.34 744.04 76.34ZM755.774 67.12C757.334 67.12 758.547 67.62 759.414 68.62C760.294 69.6067 760.734 70.9667 760.734 72.7C760.734 73.8067 760.534 74.7867 760.134 75.64C759.734 76.48 759.161 77.1333 758.414 77.6C757.667 78.0667 756.781 78.3 755.754 78.3C754.194 78.3 752.974 77.8067 752.094 76.82C751.214 75.82 750.774 74.4467 750.774 72.7C750.774 71.5933 750.974 70.62 751.374 69.78C751.774 68.94 752.347 68.2867 753.094 67.82C753.854 67.3533 754.747 67.12 755.774 67.12ZM755.774 69.06C754.241 69.06 753.474 70.2733 753.474 72.7C753.474 73.9533 753.661 74.88 754.034 75.48C754.421 76.0667 754.994 76.36 755.754 76.36C756.514 76.36 757.081 76.06 757.454 75.46C757.841 74.86 758.034 73.94 758.034 72.7C758.034 71.46 757.841 70.5467 757.454 69.96C757.081 69.36 756.521 69.06 755.774 69.06ZM768.614 67.12C769.947 67.12 770.934 67.6067 771.574 68.58C772.214 69.5533 772.534 70.92 772.534 72.68C772.534 73.7733 772.367 74.7467 772.034 75.6C771.714 76.44 771.234 77.1 770.594 77.58C769.967 78.06 769.22 78.3 768.354 78.3C767.234 78.3 766.347 77.9133 765.694 77.14V82.08L763.134 82.36V67.42H765.374L765.514 68.72C765.927 68.1867 766.4 67.7867 766.934 67.52C767.467 67.2533 768.027 67.12 768.614 67.12ZM767.634 76.34C769.114 76.34 769.854 75.1267 769.854 72.7C769.854 71.4067 769.687 70.4733 769.354 69.9C769.02 69.3267 768.52 69.04 767.854 69.04C767.427 69.04 767.027 69.1733 766.654 69.44C766.28 69.6933 765.96 70.04 765.694 70.48V75.24C766.187 75.9733 766.834 76.34 767.634 76.34ZM783.508 78H781.288L781.148 76.52C780.761 77.12 780.301 77.5667 779.768 77.86C779.248 78.1533 778.628 78.3 777.908 78.3C776.961 78.3 776.228 78.0133 775.708 77.44C775.201 76.8533 774.948 76.0467 774.948 75.02V67.42H777.508V74.7C777.508 75.3 777.608 75.7267 777.808 75.98C778.021 76.2333 778.354 76.36 778.808 76.36C779.621 76.36 780.334 75.86 780.948 74.86V67.42H783.508V78ZM789.091 78.3C788.277 78.3 787.637 78.0667 787.171 77.6C786.717 77.12 786.491 76.4467 786.491 75.58V63.18L789.051 62.9V75.5C789.051 75.9933 789.251 76.24 789.651 76.24C789.851 76.24 790.051 76.2067 790.251 76.14L790.791 77.94C790.257 78.18 789.691 78.3 789.091 78.3ZM800.212 75.2C800.212 75.6133 800.272 75.92 800.392 76.12C800.525 76.3067 800.732 76.4533 801.012 76.56L800.472 78.26C799.872 78.2067 799.378 78.06 798.992 77.82C798.618 77.58 798.332 77.2133 798.132 76.72C797.772 77.2533 797.318 77.6533 796.772 77.92C796.238 78.1733 795.638 78.3 794.972 78.3C793.918 78.3 793.085 78 792.472 77.4C791.858 76.8 791.552 76.0133 791.552 75.04C791.552 73.8933 791.965 73.02 792.792 72.42C793.632 71.8067 794.825 71.5 796.372 71.5H797.692V70.9C797.692 70.22 797.532 69.7467 797.212 69.48C796.905 69.2 796.405 69.06 795.712 69.06C794.938 69.06 794.005 69.2467 792.912 69.62L792.312 67.88C793.632 67.3733 794.912 67.12 796.152 67.12C798.858 67.12 800.212 68.3333 800.212 70.76V75.2ZM795.652 76.44C796.518 76.44 797.198 76.0067 797.692 75.14V73H796.632C794.978 73 794.152 73.6133 794.152 74.84C794.152 75.3467 794.278 75.74 794.532 76.02C794.785 76.3 795.158 76.44 795.652 76.44ZM809.37 77.5C808.996 77.7667 808.576 77.9667 808.11 78.1C807.656 78.2333 807.19 78.3 806.71 78.3C805.67 78.2867 804.876 77.9933 804.33 77.42C803.796 76.8333 803.53 75.9733 803.53 74.84V69.26H801.87V67.42H803.53V65.08L806.09 64.78V67.42H808.55L808.29 69.26H806.09V74.78C806.09 75.3 806.176 75.6733 806.35 75.9C806.536 76.1267 806.823 76.24 807.21 76.24C807.596 76.24 808.016 76.1133 808.47 75.86L809.37 77.5ZM813.37 67.42V78H810.81V67.42H813.37ZM812.07 62.06C812.55 62.06 812.936 62.2133 813.23 62.52C813.536 62.8133 813.69 63.18 813.69 63.62C813.69 64.06 813.536 64.4267 813.23 64.72C812.936 65.0133 812.55 65.16 812.07 65.16C811.603 65.16 811.216 65.0133 810.91 64.72C810.616 64.4267 810.47 64.06 810.47 63.62C810.47 63.18 810.616 62.8133 810.91 62.52C811.216 62.2133 811.603 62.06 812.07 62.06ZM820.774 67.12C822.334 67.12 823.547 67.62 824.414 68.62C825.294 69.6067 825.734 70.9667 825.734 72.7C825.734 73.8067 825.534 74.7867 825.134 75.64C824.734 76.48 824.161 77.1333 823.414 77.6C822.667 78.0667 821.781 78.3 820.754 78.3C819.194 78.3 817.974 77.8067 817.094 76.82C816.214 75.82 815.774 74.4467 815.774 72.7C815.774 71.5933 815.974 70.62 816.374 69.78C816.774 68.94 817.347 68.2867 818.094 67.82C818.854 67.3533 819.747 67.12 820.774 67.12ZM820.774 69.06C819.241 69.06 818.474 70.2733 818.474 72.7C818.474 73.9533 818.661 74.88 819.034 75.48C819.421 76.0667 819.994 76.36 820.754 76.36C821.514 76.36 822.081 76.06 822.454 75.46C822.841 74.86 823.034 73.94 823.034 72.7C823.034 71.46 822.841 70.5467 822.454 69.96C822.081 69.36 821.521 69.06 820.774 69.06ZM833.774 67.12C834.72 67.12 835.454 67.4067 835.974 67.98C836.507 68.54 836.774 69.3267 836.774 70.34V78H834.214V70.74C834.214 70.1133 834.1 69.6733 833.874 69.42C833.66 69.1667 833.34 69.04 832.914 69.04C832.474 69.04 832.074 69.18 831.714 69.46C831.367 69.7267 831.027 70.12 830.694 70.64V78H828.134V67.42H830.354L830.554 68.8C831.42 67.68 832.494 67.12 833.774 67.12ZM848.095 67.12C849.522 67.12 850.775 67.54 851.855 68.38L850.855 69.88C849.948 69.3067 849.062 69.02 848.195 69.02C847.688 69.02 847.295 69.12 847.015 69.32C846.735 69.5067 846.595 69.76 846.595 70.08C846.595 70.32 846.655 70.52 846.775 70.68C846.895 70.84 847.108 70.9933 847.415 71.14C847.735 71.2733 848.202 71.4267 848.815 71.6C849.962 71.9067 850.808 72.3133 851.355 72.82C851.915 73.3267 852.195 74.0333 852.195 74.94C852.195 75.9933 851.768 76.82 850.915 77.42C850.062 78.0067 849.002 78.3 847.735 78.3C846.868 78.3 846.075 78.1667 845.355 77.9C844.648 77.6333 844.035 77.2667 843.515 76.8L844.795 75.36C845.715 76.0533 846.675 76.4 847.675 76.4C848.248 76.4 848.702 76.2867 849.035 76.06C849.382 75.8333 849.555 75.52 849.555 75.12C849.555 74.8133 849.488 74.5733 849.355 74.4C849.235 74.2133 849.008 74.0533 848.675 73.92C848.355 73.7733 847.848 73.6 847.155 73.4C846.075 73.1067 845.282 72.7 844.775 72.18C844.268 71.6467 844.015 70.9867 844.015 70.2C844.015 69.6133 844.182 69.0867 844.515 68.62C844.862 68.1533 845.342 67.7867 845.955 67.52C846.582 67.2533 847.295 67.12 848.095 67.12ZM856.827 67.42V78H854.267V67.42H856.827ZM855.527 62.06C856.007 62.06 856.393 62.2133 856.687 62.52C856.993 62.8133 857.147 63.18 857.147 63.62C857.147 64.06 856.993 64.4267 856.687 64.72C856.393 65.0133 856.007 65.16 855.527 65.16C855.06 65.16 854.673 65.0133 854.367 64.72C854.073 64.4267 853.927 64.06 853.927 63.62C853.927 63.18 854.073 62.8133 854.367 62.52C854.673 62.2133 855.06 62.06 855.527 62.06ZM866.791 67.42V69.26L861.671 76H866.891L866.631 78H858.731V76.16L863.871 69.42H859.171V67.42H866.791ZM877.419 72.46C877.419 72.5933 877.399 72.94 877.359 73.5H870.719C870.799 74.5267 871.066 75.26 871.519 75.7C871.973 76.14 872.573 76.36 873.319 76.36C873.786 76.36 874.226 76.2867 874.639 76.14C875.053 75.98 875.493 75.74 875.959 75.42L877.019 76.88C875.846 77.8267 874.539 78.3 873.099 78.3C871.486 78.3 870.239 77.8067 869.359 76.82C868.493 75.8333 868.059 74.4867 868.059 72.78C868.059 71.7 868.246 70.7333 868.619 69.88C868.993 69.0133 869.533 68.34 870.239 67.86C870.946 67.3667 871.786 67.12 872.759 67.12C874.239 67.12 875.386 67.5933 876.199 68.54C877.013 69.4733 877.419 70.78 877.419 72.46ZM874.879 71.72C874.879 69.8667 874.193 68.94 872.819 68.94C872.193 68.94 871.699 69.1733 871.339 69.64C870.993 70.0933 870.786 70.8267 870.719 71.84H874.879V71.72ZM892.536 75.2C892.536 75.6133 892.596 75.92 892.716 76.12C892.849 76.3067 893.056 76.4533 893.336 76.56L892.796 78.26C892.196 78.2067 891.702 78.06 891.316 77.82C890.942 77.58 890.656 77.2133 890.456 76.72C890.096 77.2533 889.642 77.6533 889.096 77.92C888.562 78.1733 887.962 78.3 887.296 78.3C886.242 78.3 885.409 78 884.796 77.4C884.182 76.8 883.876 76.0133 883.876 75.04C883.876 73.8933 884.289 73.02 885.116 72.42C885.956 71.8067 887.149 71.5 888.696 71.5H890.016V70.9C890.016 70.22 889.856 69.7467 889.536 69.48C889.229 69.2 888.729 69.06 888.036 69.06C887.262 69.06 886.329 69.2467 885.236 69.62L884.636 67.88C885.956 67.3733 887.236 67.12 888.476 67.12C891.182 67.12 892.536 68.3333 892.536 70.76V75.2ZM887.976 76.44C888.842 76.44 889.522 76.0067 890.016 75.14V73H888.956C887.302 73 886.476 73.6133 886.476 74.84C886.476 75.3467 886.602 75.74 886.856 76.02C887.109 76.3 887.482 76.44 887.976 76.44ZM901.694 77.5C901.32 77.7667 900.9 77.9667 900.434 78.1C899.98 78.2333 899.514 78.3 899.034 78.3C897.994 78.2867 897.2 77.9933 896.654 77.42C896.12 76.8333 895.854 75.9733 895.854 74.84V69.26H894.194V67.42H895.854V65.08L898.414 64.78V67.42H900.874L900.614 69.26H898.414V74.78C898.414 75.3 898.5 75.6733 898.674 75.9C898.86 76.1267 899.147 76.24 899.534 76.24C899.92 76.24 900.34 76.1133 900.794 75.86L901.694 77.5ZM914.194 77.5C913.82 77.7667 913.4 77.9667 912.934 78.1C912.48 78.2333 912.014 78.3 911.534 78.3C910.494 78.2867 909.7 77.9933 909.154 77.42C908.62 76.8333 908.354 75.9733 908.354 74.84V69.26H906.694V67.42H908.354V65.08L910.914 64.78V67.42H913.374L913.114 69.26H910.914V74.78C910.914 75.3 911 75.6733 911.174 75.9C911.36 76.1267 911.647 76.24 912.034 76.24C912.42 76.24 912.84 76.1133 913.294 75.86L914.194 77.5ZM918.194 67.42V78H915.634V67.42H918.194ZM916.894 62.06C917.374 62.06 917.76 62.2133 918.054 62.52C918.36 62.8133 918.514 63.18 918.514 63.62C918.514 64.06 918.36 64.4267 918.054 64.72C917.76 65.0133 917.374 65.16 916.894 65.16C916.427 65.16 916.04 65.0133 915.734 64.72C915.44 64.4267 915.294 64.06 915.294 63.62C915.294 63.18 915.44 62.8133 915.734 62.52C916.04 62.2133 916.427 62.06 916.894 62.06ZM932.498 67.12C933.352 67.12 934.032 67.4133 934.538 68C935.045 68.5733 935.298 69.3533 935.298 70.34V78H932.738V70.74C932.738 69.6067 932.352 69.04 931.578 69.04C931.165 69.04 930.805 69.1733 930.498 69.44C930.205 69.6933 929.898 70.0933 929.578 70.64V78H927.018V70.74C927.018 69.6067 926.632 69.04 925.858 69.04C925.432 69.04 925.065 69.1733 924.758 69.44C924.465 69.6933 924.158 70.0933 923.838 70.64V78H921.278V67.42H923.498L923.698 68.8C924.498 67.68 925.518 67.12 926.758 67.12C927.372 67.12 927.898 67.28 928.338 67.6C928.792 67.9067 929.118 68.34 929.318 68.9C929.745 68.3267 930.212 67.8867 930.718 67.58C931.238 67.2733 931.832 67.12 932.498 67.12ZM946.95 72.46C946.95 72.5933 946.93 72.94 946.89 73.5H940.25C940.33 74.5267 940.597 75.26 941.05 75.7C941.504 76.14 942.104 76.36 942.85 76.36C943.317 76.36 943.757 76.2867 944.17 76.14C944.584 75.98 945.024 75.74 945.49 75.42L946.55 76.88C945.377 77.8267 944.07 78.3 942.63 78.3C941.017 78.3 939.77 77.8067 938.89 76.82C938.024 75.8333 937.59 74.4867 937.59 72.78C937.59 71.7 937.777 70.7333 938.15 69.88C938.524 69.0133 939.064 68.34 939.77 67.86C940.477 67.3667 941.317 67.12 942.29 67.12C943.77 67.12 944.917 67.5933 945.73 68.54C946.544 69.4733 946.95 70.78 946.95 72.46ZM944.41 71.72C944.41 69.8667 943.724 68.94 942.35 68.94C941.724 68.94 941.23 69.1733 940.87 69.64C940.524 70.0933 940.317 70.8267 940.25 71.84H944.41V71.72ZM960.307 77.5C959.934 77.7667 959.514 77.9667 959.047 78.1C958.594 78.2333 958.127 78.3 957.647 78.3C956.607 78.2867 955.814 77.9933 955.267 77.42C954.734 76.8333 954.467 75.9733 954.467 74.84V69.26H952.807V67.42H954.467V65.08L957.027 64.78V67.42H959.487L959.227 69.26H957.027V74.78C957.027 75.3 957.114 75.6733 957.287 75.9C957.474 76.1267 957.76 76.24 958.147 76.24C958.534 76.24 958.954 76.1133 959.407 75.86L960.307 77.5ZM965.666 67.3V70.36H968.646V72.38H965.666V75.44H963.466V72.38H960.506V70.36H963.466V67.3H965.666ZM975.413 64.54V78H972.893V67.12L969.893 68.94L968.773 67.22L973.153 64.54H975.413Z" fill="black"/>
</g>
<g id="position">
<path id="position at time t" d="M87.7934 20.12C89.1268 20.12 90.1134 20.6067 90.7534 21.58C91.3934 22.5533 91.7134 23.92 91.7134 25.68C91.7134 26.7733 91.5468 27.7467 91.2134 28.6C90.8934 29.44 90.4134 30.1 89.7734 30.58C89.1468 31.06 88.4001 31.3 87.5334 31.3C86.4134 31.3 85.5268 30.9133 84.8734 30.14V35.08L82.3134 35.36V20.42H84.5534L84.6934 21.72C85.1068 21.1867 85.5801 20.7867 86.1134 20.52C86.6468 20.2533 87.2068 20.12 87.7934 20.12ZM86.8134 29.34C88.2934 29.34 89.0334 28.1267 89.0334 25.7C89.0334 24.4067 88.8668 23.4733 88.5334 22.9C88.2001 22.3267 87.7001 22.04 87.0334 22.04C86.6068 22.04 86.2068 22.1733 85.8334 22.44C85.4601 22.6933 85.1401 23.04 84.8734 23.48V28.24C85.3668 28.9733 86.0134 29.34 86.8134 29.34ZM98.5475 20.12C100.108 20.12 101.321 20.62 102.188 21.62C103.068 22.6067 103.508 23.9667 103.508 25.7C103.508 26.8067 103.308 27.7867 102.908 28.64C102.508 29.48 101.934 30.1333 101.188 30.6C100.441 31.0667 99.5542 31.3 98.5275 31.3C96.9675 31.3 95.7475 30.8067 94.8675 29.82C93.9875 28.82 93.5475 27.4467 93.5475 25.7C93.5475 24.5933 93.7475 23.62 94.1475 22.78C94.5475 21.94 95.1208 21.2867 95.8675 20.82C96.6275 20.3533 97.5208 20.12 98.5475 20.12ZM98.5475 22.06C97.0142 22.06 96.2475 23.2733 96.2475 25.7C96.2475 26.9533 96.4342 27.88 96.8075 28.48C97.1942 29.0667 97.7675 29.36 98.5275 29.36C99.2875 29.36 99.8542 29.06 100.228 28.46C100.614 27.86 100.808 26.94 100.808 25.7C100.808 24.46 100.614 23.5467 100.228 22.96C99.8542 22.36 99.2942 22.06 98.5475 22.06ZM109.247 20.12C110.674 20.12 111.927 20.54 113.007 21.38L112.007 22.88C111.101 22.3067 110.214 22.02 109.347 22.02C108.841 22.02 108.447 22.12 108.167 22.32C107.887 22.5067 107.747 22.76 107.747 23.08C107.747 23.32 107.807 23.52 107.927 23.68C108.047 23.84 108.261 23.9933 108.567 24.14C108.887 24.2733 109.354 24.4267 109.967 24.6C111.114 24.9067 111.961 25.3133 112.507 25.82C113.067 26.3267 113.347 27.0333 113.347 27.94C113.347 28.9933 112.921 29.82 112.067 30.42C111.214 31.0067 110.154 31.3 108.887 31.3C108.021 31.3 107.227 31.1667 106.507 30.9C105.801 30.6333 105.187 30.2667 104.667 29.8L105.947 28.36C106.867 29.0533 107.827 29.4 108.827 29.4C109.401 29.4 109.854 29.2867 110.187 29.06C110.534 28.8333 110.707 28.52 110.707 28.12C110.707 27.8133 110.641 27.5733 110.507 27.4C110.387 27.2133 110.161 27.0533 109.827 26.92C109.507 26.7733 109.001 26.6 108.307 26.4C107.227 26.1067 106.434 25.7 105.927 25.18C105.421 24.6467 105.167 23.9867 105.167 23.2C105.167 22.6133 105.334 22.0867 105.667 21.62C106.014 21.1533 106.494 20.7867 107.107 20.52C107.734 20.2533 108.447 20.12 109.247 20.12ZM117.979 20.42V31H115.419V20.42H117.979ZM116.679 15.06C117.159 15.06 117.546 15.2133 117.839 15.52C118.146 15.8133 118.299 16.18 118.299 16.62C118.299 17.06 118.146 17.4267 117.839 17.72C117.546 18.0133 117.159 18.16 116.679 18.16C116.212 18.16 115.826 18.0133 115.519 17.72C115.226 17.4267 115.079 17.06 115.079 16.62C115.079 16.18 115.226 15.8133 115.519 15.52C115.826 15.2133 116.212 15.06 116.679 15.06ZM127.123 30.5C126.75 30.7667 126.33 30.9667 125.863 31.1C125.41 31.2333 124.943 31.3 124.463 31.3C123.423 31.2867 122.63 30.9933 122.083 30.42C121.55 29.8333 121.283 28.9733 121.283 27.84V22.26H119.623V20.42H121.283V18.08L123.843 17.78V20.42H126.303L126.043 22.26H123.843V27.78C123.843 28.3 123.93 28.6733 124.103 28.9C124.29 29.1267 124.577 29.24 124.963 29.24C125.35 29.24 125.77 29.1133 126.223 28.86L127.123 30.5ZM131.123 20.42V31H128.563V20.42H131.123ZM129.823 15.06C130.303 15.06 130.69 15.2133 130.983 15.52C131.29 15.8133 131.443 16.18 131.443 16.62C131.443 17.06 131.29 17.4267 130.983 17.72C130.69 18.0133 130.303 18.16 129.823 18.16C129.357 18.16 128.97 18.0133 128.663 17.72C128.37 17.4267 128.223 17.06 128.223 16.62C128.223 16.18 128.37 15.8133 128.663 15.52C128.97 15.2133 129.357 15.06 129.823 15.06ZM138.528 20.12C140.088 20.12 141.301 20.62 142.168 21.62C143.048 22.6067 143.488 23.9667 143.488 25.7C143.488 26.8067 143.288 27.7867 142.888 28.64C142.488 29.48 141.915 30.1333 141.168 30.6C140.421 31.0667 139.535 31.3 138.508 31.3C136.948 31.3 135.728 30.8067 134.848 29.82C133.968 28.82 133.528 27.4467 133.528 25.7C133.528 24.5933 133.728 23.62 134.128 22.78C134.528 21.94 135.101 21.2867 135.848 20.82C136.608 20.3533 137.501 20.12 138.528 20.12ZM138.528 22.06C136.995 22.06 136.228 23.2733 136.228 25.7C136.228 26.9533 136.415 27.88 136.788 28.48C137.175 29.0667 137.748 29.36 138.508 29.36C139.268 29.36 139.835 29.06 140.208 28.46C140.595 27.86 140.788 26.94 140.788 25.7C140.788 24.46 140.595 23.5467 140.208 22.96C139.835 22.36 139.275 22.06 138.528 22.06ZM151.528 20.12C152.474 20.12 153.208 20.4067 153.728 20.98C154.261 21.54 154.528 22.3267 154.528 23.34V31H151.968V23.74C151.968 23.1133 151.854 22.6733 151.628 22.42C151.414 22.1667 151.094 22.04 150.668 22.04C150.228 22.04 149.828 22.18 149.468 22.46C149.121 22.7267 148.781 23.12 148.448 23.64V31H145.888V20.42H148.108L148.308 21.8C149.174 20.68 150.248 20.12 151.528 20.12ZM170.329 28.2C170.329 28.6133 170.389 28.92 170.509 29.12C170.642 29.3067 170.849 29.4533 171.129 29.56L170.589 31.26C169.989 31.2067 169.495 31.06 169.109 30.82C168.735 30.58 168.449 30.2133 168.249 29.72C167.889 30.2533 167.435 30.6533 166.889 30.92C166.355 31.1733 165.755 31.3 165.089 31.3C164.035 31.3 163.202 31 162.589 30.4C161.975 29.8 161.669 29.0133 161.669 28.04C161.669 26.8933 162.082 26.02 162.909 25.42C163.749 24.8067 164.942 24.5 166.489 24.5H167.809V23.9C167.809 23.22 167.649 22.7467 167.329 22.48C167.022 22.2 166.522 22.06 165.829 22.06C165.055 22.06 164.122 22.2467 163.029 22.62L162.429 20.88C163.749 20.3733 165.029 20.12 166.269 20.12C168.975 20.12 170.329 21.3333 170.329 23.76V28.2ZM165.769 29.44C166.635 29.44 167.315 29.0067 167.809 28.14V26H166.749C165.095 26 164.269 26.6133 164.269 27.84C164.269 28.3467 164.395 28.74 164.649 29.02C164.902 29.3 165.275 29.44 165.769 29.44ZM179.487 30.5C179.113 30.7667 178.693 30.9667 178.227 31.1C177.773 31.2333 177.307 31.3 176.827 31.3C175.787 31.2867 174.993 30.9933 174.447 30.42C173.913 29.8333 173.647 28.9733 173.647 27.84V22.26H171.987V20.42H173.647V18.08L176.207 17.78V20.42H178.667L178.407 22.26H176.207V27.78C176.207 28.3 176.293 28.6733 176.467 28.9C176.653 29.1267 176.94 29.24 177.327 29.24C177.713 29.24 178.133 29.1133 178.587 28.86L179.487 30.5ZM191.987 30.5C191.613 30.7667 191.193 30.9667 190.727 31.1C190.273 31.2333 189.807 31.3 189.327 31.3C188.287 31.2867 187.493 30.9933 186.947 30.42C186.413 29.8333 186.147 28.9733 186.147 27.84V22.26H184.487V20.42H186.147V18.08L188.707 17.78V20.42H191.167L190.907 22.26H188.707V27.78C188.707 28.3 188.793 28.6733 188.967 28.9C189.153 29.1267 189.44 29.24 189.827 29.24C190.213 29.24 190.633 29.1133 191.087 28.86L191.987 30.5ZM195.987 20.42V31H193.427V20.42H195.987ZM194.687 15.06C195.167 15.06 195.553 15.2133 195.847 15.52C196.153 15.8133 196.307 16.18 196.307 16.62C196.307 17.06 196.153 17.4267 195.847 17.72C195.553 18.0133 195.167 18.16 194.687 18.16C194.22 18.16 193.833 18.0133 193.527 17.72C193.233 17.4267 193.087 17.06 193.087 16.62C193.087 16.18 193.233 15.8133 193.527 15.52C193.833 15.2133 194.22 15.06 194.687 15.06ZM210.291 20.12C211.145 20.12 211.825 20.4133 212.331 21C212.838 21.5733 213.091 22.3533 213.091 23.34V31H210.531V23.74C210.531 22.6067 210.145 22.04 209.371 22.04C208.958 22.04 208.598 22.1733 208.291 22.44C207.998 22.6933 207.691 23.0933 207.371 23.64V31H204.811V23.74C204.811 22.6067 204.425 22.04 203.651 22.04C203.225 22.04 202.858 22.1733 202.551 22.44C202.258 22.6933 201.951 23.0933 201.631 23.64V31H199.071V20.42H201.291L201.491 21.8C202.291 20.68 203.311 20.12 204.551 20.12C205.165 20.12 205.691 20.28 206.131 20.6C206.585 20.9067 206.911 21.34 207.111 21.9C207.538 21.3267 208.005 20.8867 208.511 20.58C209.031 20.2733 209.625 20.12 210.291 20.12ZM224.743 25.46C224.743 25.5933 224.723 25.94 224.683 26.5H218.043C218.123 27.5267 218.39 28.26 218.843 28.7C219.297 29.14 219.897 29.36 220.643 29.36C221.11 29.36 221.55 29.2867 221.963 29.14C222.377 28.98 222.817 28.74 223.283 28.42L224.343 29.88C223.17 30.8267 221.863 31.3 220.423 31.3C218.81 31.3 217.563 30.8067 216.683 29.82C215.817 28.8333 215.383 27.4867 215.383 25.78C215.383 24.7 215.57 23.7333 215.943 22.88C216.317 22.0133 216.857 21.34 217.563 20.86C218.27 20.3667 219.11 20.12 220.083 20.12C221.563 20.12 222.71 20.5933 223.523 21.54C224.337 22.4733 224.743 23.78 224.743 25.46ZM222.203 24.72C222.203 22.8667 221.517 21.94 220.143 21.94C219.517 21.94 219.023 22.1733 218.663 22.64C218.317 23.0933 218.11 23.8267 218.043 24.84H222.203V24.72ZM238.1 30.5C237.727 30.7667 237.307 30.9667 236.84 31.1C236.387 31.2333 235.92 31.3 235.44 31.3C234.4 31.2867 233.607 30.9933 233.06 30.42C232.527 29.8333 232.26 28.9733 232.26 27.84V22.26H230.6V20.42H232.26V18.08L234.82 17.78V20.42H237.28L237.02 22.26H234.82V27.78C234.82 28.3 234.907 28.6733 235.08 28.9C235.267 29.1267 235.553 29.24 235.94 29.24C236.327 29.24 236.747 29.1133 237.2 28.86L238.1 30.5Z" fill="black"/>
<path id="position at time t+1" d="M745.02 20.12C746.353 20.12 747.34 20.6067 747.98 21.58C748.62 22.5533 748.94 23.92 748.94 25.68C748.94 26.7733 748.773 27.7467 748.44 28.6C748.12 29.44 747.64 30.1 747 30.58C746.373 31.06 745.627 31.3 744.76 31.3C743.64 31.3 742.753 30.9133 742.1 30.14V35.08L739.54 35.36V20.42H741.78L741.92 21.72C742.333 21.1867 742.807 20.7867 743.34 20.52C743.873 20.2533 744.433 20.12 745.02 20.12ZM744.04 29.34C745.52 29.34 746.26 28.1267 746.26 25.7C746.26 24.4067 746.093 23.4733 745.76 22.9C745.427 22.3267 744.927 22.04 744.26 22.04C743.833 22.04 743.433 22.1733 743.06 22.44C742.687 22.6933 742.367 23.04 742.1 23.48V28.24C742.593 28.9733 743.24 29.34 744.04 29.34ZM755.774 20.12C757.334 20.12 758.547 20.62 759.414 21.62C760.294 22.6067 760.734 23.9667 760.734 25.7C760.734 26.8067 760.534 27.7867 760.134 28.64C759.734 29.48 759.161 30.1333 758.414 30.6C757.667 31.0667 756.781 31.3 755.754 31.3C754.194 31.3 752.974 30.8067 752.094 29.82C751.214 28.82 750.774 27.4467 750.774 25.7C750.774 24.5933 750.974 23.62 751.374 22.78C751.774 21.94 752.347 21.2867 753.094 20.82C753.854 20.3533 754.747 20.12 755.774 20.12ZM755.774 22.06C754.241 22.06 753.474 23.2733 753.474 25.7C753.474 26.9533 753.661 27.88 754.034 28.48C754.421 29.0667 754.994 29.36 755.754 29.36C756.514 29.36 757.081 29.06 757.454 28.46C757.841 27.86 758.034 26.94 758.034 25.7C758.034 24.46 757.841 23.5467 757.454 22.96C757.081 22.36 756.521 22.06 755.774 22.06ZM766.474 20.12C767.9 20.12 769.154 20.54 770.234 21.38L769.234 22.88C768.327 22.3067 767.44 22.02 766.574 22.02C766.067 22.02 765.674 22.12 765.394 22.32C765.114 22.5067 764.974 22.76 764.974 23.08C764.974 23.32 765.034 23.52 765.154 23.68C765.274 23.84 765.487 23.9933 765.794 24.14C766.114 24.2733 766.58 24.4267 767.194 24.6C768.34 24.9067 769.187 25.3133 769.734 25.82C770.294 26.3267 770.574 27.0333 770.574 27.94C770.574 28.9933 770.147 29.82 769.294 30.42C768.44 31.0067 767.38 31.3 766.114 31.3C765.247 31.3 764.454 31.1667 763.734 30.9C763.027 30.6333 762.414 30.2667 761.894 29.8L763.174 28.36C764.094 29.0533 765.054 29.4 766.054 29.4C766.627 29.4 767.08 29.2867 767.414 29.06C767.76 28.8333 767.934 28.52 767.934 28.12C767.934 27.8133 767.867 27.5733 767.734 27.4C767.614 27.2133 767.387 27.0533 767.054 26.92C766.734 26.7733 766.227 26.6 765.534 26.4C764.454 26.1067 763.66 25.7 763.154 25.18C762.647 24.6467 762.394 23.9867 762.394 23.2C762.394 22.6133 762.56 22.0867 762.894 21.62C763.24 21.1533 763.72 20.7867 764.334 20.52C764.96 20.2533 765.674 20.12 766.474 20.12ZM775.205 20.42V31H772.645V20.42H775.205ZM773.905 15.06C774.385 15.06 774.772 15.2133 775.065 15.52C775.372 15.8133 775.525 16.18 775.525 16.62C775.525 17.06 775.372 17.4267 775.065 17.72C774.772 18.0133 774.385 18.16 773.905 18.16C773.439 18.16 773.052 18.0133 772.745 17.72C772.452 17.4267 772.305 17.06 772.305 16.62C772.305 16.18 772.452 15.8133 772.745 15.52C773.052 15.2133 773.439 15.06 773.905 15.06ZM784.35 30.5C783.977 30.7667 783.557 30.9667 783.09 31.1C782.637 31.2333 782.17 31.3 781.69 31.3C780.65 31.2867 779.857 30.9933 779.31 30.42C778.777 29.8333 778.51 28.9733 778.51 27.84V22.26H776.85V20.42H778.51V18.08L781.07 17.78V20.42H783.53L783.27 22.26H781.07V27.78C781.07 28.3 781.157 28.6733 781.33 28.9C781.517 29.1267 781.803 29.24 782.19 29.24C782.577 29.24 782.997 29.1133 783.45 28.86L784.35 30.5ZM788.35 20.42V31H785.79V20.42H788.35ZM787.05 15.06C787.53 15.06 787.917 15.2133 788.21 15.52C788.517 15.8133 788.67 16.18 788.67 16.62C788.67 17.06 788.517 17.4267 788.21 17.72C787.917 18.0133 787.53 18.16 787.05 18.16C786.583 18.16 786.197 18.0133 785.89 17.72C785.597 17.4267 785.45 17.06 785.45 16.62C785.45 16.18 785.597 15.8133 785.89 15.52C786.197 15.2133 786.583 15.06 787.05 15.06ZM795.755 20.12C797.315 20.12 798.528 20.62 799.395 21.62C800.275 22.6067 800.715 23.9667 800.715 25.7C800.715 26.8067 800.515 27.7867 800.115 28.64C799.715 29.48 799.141 30.1333 798.395 30.6C797.648 31.0667 796.761 31.3 795.735 31.3C794.175 31.3 792.955 30.8067 792.075 29.82C791.195 28.82 790.755 27.4467 790.755 25.7C790.755 24.5933 790.955 23.62 791.355 22.78C791.755 21.94 792.328 21.2867 793.075 20.82C793.835 20.3533 794.728 20.12 795.755 20.12ZM795.755 22.06C794.221 22.06 793.455 23.2733 793.455 25.7C793.455 26.9533 793.641 27.88 794.015 28.48C794.401 29.0667 794.975 29.36 795.735 29.36C796.495 29.36 797.061 29.06 797.435 28.46C797.821 27.86 798.015 26.94 798.015 25.7C798.015 24.46 797.821 23.5467 797.435 22.96C797.061 22.36 796.501 22.06 795.755 22.06ZM808.754 20.12C809.701 20.12 810.434 20.4067 810.954 20.98C811.488 21.54 811.754 22.3267 811.754 23.34V31H809.194V23.74C809.194 23.1133 809.081 22.6733 808.854 22.42C808.641 22.1667 808.321 22.04 807.894 22.04C807.454 22.04 807.054 22.18 806.694 22.46C806.348 22.7267 806.008 23.12 805.674 23.64V31H803.114V20.42H805.334L805.534 21.8C806.401 20.68 807.474 20.12 808.754 20.12ZM827.555 28.2C827.555 28.6133 827.615 28.92 827.735 29.12C827.869 29.3067 828.075 29.4533 828.355 29.56L827.815 31.26C827.215 31.2067 826.722 31.06 826.335 30.82C825.962 30.58 825.675 30.2133 825.475 29.72C825.115 30.2533 824.662 30.6533 824.115 30.92C823.582 31.1733 822.982 31.3 822.315 31.3C821.262 31.3 820.429 31 819.815 30.4C819.202 29.8 818.895 29.0133 818.895 28.04C818.895 26.8933 819.309 26.02 820.135 25.42C820.975 24.8067 822.169 24.5 823.715 24.5H825.035V23.9C825.035 23.22 824.875 22.7467 824.555 22.48C824.249 22.2 823.749 22.06 823.055 22.06C822.282 22.06 821.349 22.2467 820.255 22.62L819.655 20.88C820.975 20.3733 822.255 20.12 823.495 20.12C826.202 20.12 827.555 21.3333 827.555 23.76V28.2ZM822.995 29.44C823.862 29.44 824.542 29.0067 825.035 28.14V26H823.975C822.322 26 821.495 26.6133 821.495 27.84C821.495 28.3467 821.622 28.74 821.875 29.02C822.129 29.3 822.502 29.44 822.995 29.44ZM836.713 30.5C836.34 30.7667 835.92 30.9667 835.453 31.1C835 31.2333 834.533 31.3 834.053 31.3C833.013 31.2867 832.22 30.9933 831.673 30.42C831.14 29.8333 830.873 28.9733 830.873 27.84V22.26H829.213V20.42H830.873V18.08L833.433 17.78V20.42H835.893L835.633 22.26H833.433V27.78C833.433 28.3 833.52 28.6733 833.693 28.9C833.88 29.1267 834.167 29.24 834.553 29.24C834.94 29.24 835.36 29.1133 835.813 28.86L836.713 30.5ZM849.213 30.5C848.84 30.7667 848.42 30.9667 847.953 31.1C847.5 31.2333 847.033 31.3 846.553 31.3C845.513 31.2867 844.72 30.9933 844.173 30.42C843.64 29.8333 843.373 28.9733 843.373 27.84V22.26H841.713V20.42H843.373V18.08L845.933 17.78V20.42H848.393L848.133 22.26H845.933V27.78C845.933 28.3 846.02 28.6733 846.193 28.9C846.38 29.1267 846.667 29.24 847.053 29.24C847.44 29.24 847.86 29.1133 848.313 28.86L849.213 30.5ZM853.213 20.42V31H850.653V20.42H853.213ZM851.913 15.06C852.393 15.06 852.78 15.2133 853.073 15.52C853.38 15.8133 853.533 16.18 853.533 16.62C853.533 17.06 853.38 17.4267 853.073 17.72C852.78 18.0133 852.393 18.16 851.913 18.16C851.447 18.16 851.06 18.0133 850.753 17.72C850.46 17.4267 850.313 17.06 850.313 16.62C850.313 16.18 850.46 15.8133 850.753 15.52C851.06 15.2133 851.447 15.06 851.913 15.06ZM867.518 20.12C868.371 20.12 869.051 20.4133 869.558 21C870.064 21.5733 870.318 22.3533 870.318 23.34V31H867.758V23.74C867.758 22.6067 867.371 22.04 866.598 22.04C866.184 22.04 865.824 22.1733 865.518 22.44C865.224 22.6933 864.918 23.0933 864.598 23.64V31H862.038V23.74C862.038 22.6067 861.651 22.04 860.878 22.04C860.451 22.04 860.084 22.1733 859.778 22.44C859.484 22.6933 859.178 23.0933 858.858 23.64V31H856.298V20.42H858.518L858.718 21.8C859.518 20.68 860.538 20.12 861.778 20.12C862.391 20.12 862.918 20.28 863.358 20.6C863.811 20.9067 864.138 21.34 864.338 21.9C864.764 21.3267 865.231 20.8867 865.738 20.58C866.258 20.2733 866.851 20.12 867.518 20.12ZM881.97 25.46C881.97 25.5933 881.95 25.94 881.91 26.5H875.27C875.35 27.5267 875.617 28.26 876.07 28.7C876.523 29.14 877.123 29.36 877.87 29.36C878.337 29.36 878.777 29.2867 879.19 29.14C879.603 28.98 880.043 28.74 880.51 28.42L881.57 29.88C880.397 30.8267 879.09 31.3 877.65 31.3C876.037 31.3 874.79 30.8067 873.91 29.82C873.043 28.8333 872.61 27.4867 872.61 25.78C872.61 24.7 872.797 23.7333 873.17 22.88C873.543 22.0133 874.083 21.34 874.79 20.86C875.497 20.3667 876.337 20.12 877.31 20.12C878.79 20.12 879.937 20.5933 880.75 21.54C881.563 22.4733 881.97 23.78 881.97 25.46ZM879.43 24.72C879.43 22.8667 878.743 21.94 877.37 21.94C876.743 21.94 876.25 22.1733 875.89 22.64C875.543 23.0933 875.337 23.8267 875.27 24.84H879.43V24.72ZM895.327 30.5C894.953 30.7667 894.533 30.9667 894.067 31.1C893.613 31.2333 893.147 31.3 892.667 31.3C891.627 31.2867 890.833 30.9933 890.287 30.42C889.753 29.8333 889.487 28.9733 889.487 27.84V22.26H887.827V20.42H889.487V18.08L892.047 17.78V20.42H894.507L894.247 22.26H892.047V27.78C892.047 28.3 892.133 28.6733 892.307 28.9C892.493 29.1267 892.78 29.24 893.167 29.24C893.553 29.24 893.973 29.1133 894.427 28.86L895.327 30.5ZM900.686 20.3V23.36H903.666V25.38H900.686V28.44H898.486V25.38H895.526V23.36H898.486V20.3H900.686ZM910.432 17.54V31H907.912V20.12L904.912 21.94L903.792 20.22L908.172 17.54H910.432Z" fill="black"/>
</g>
</g>
<circle id="output" cx="685" cy="90" r="17" stroke="black" stroke-width="6"/>
<g id="input">
<circle id="Ellipse 9" cx="291" cy="56" r="17" stroke="black" stroke-width="6"/>
<circle id="Ellipse 10" cx="291" cy="126" r="17" stroke="black" stroke-width="6"/>
</g>
<g id="layer">
<circle id="Ellipse 10_2" cx="586" cy="90" r="17" stroke="black" stroke-width="6"/>
<circle id="Ellipse 11" cx="586" cy="160" r="17" stroke="black" stroke-width="6"/>
<circle id="Ellipse 9_2" cx="586" cy="20" r="17" stroke="black" stroke-width="6"/>
</g>
<g id="layer_2">
<circle id="Ellipse 10_3" cx="487" cy="91" r="17" stroke="black" stroke-width="6"/>
<circle id="Ellipse 11_2" cx="487" cy="161" r="17" stroke="black" stroke-width="6"/>
<circle id="Ellipse 9_3" cx="487" cy="21" r="17" stroke="black" stroke-width="6"/>
</g>
<g id="layer_3">
<circle id="Ellipse 10_4" cx="389" cy="92" r="17" stroke="black" stroke-width="6"/>
<circle id="Ellipse 11_3" cx="389" cy="162" r="17" stroke="black" stroke-width="6"/>
<circle id="Ellipse 9_4" cx="389" cy="22" r="17" stroke="black" stroke-width="6"/>
</g>
<g id="wlayer4">
<path id="con15" d="M605 20L665 90" stroke="black" stroke-width="2"/>
<path id="con14" d="M606 90H665" stroke="black" stroke-width="2"/>
<path id="con09" d="M605 160L665 90" stroke="black" stroke-width="2"/>
<circle id="weight17" cx="633" cy="52" r="5" fill="black"/>
<circle id="weight14" cx="633" cy="126" r="5" fill="black"/>
<circle id="weight13" cx="633" cy="90" r="5" fill="black"/>
</g>
<g id="wlayer3">
<path id="con17" d="M507 160H566" stroke="black" stroke-width="2"/>
<path id="con16" d="M507 20H566" stroke="black" stroke-width="2"/>
<path id="con13" d="M507 90L566 160" stroke="black" stroke-width="2"/>
<path id="con12" d="M507 20L566 90" stroke="black" stroke-width="2"/>
<path id="con11" d="M507 90L566 20" stroke="black" stroke-width="2"/>
<path id="con10" d="M507 160L566 90" stroke="black" stroke-width="2"/>
<circle id="weight18" cx="536" cy="20" r="5" fill="black"/>
<circle id="weight16" cx="524" cy="70" r="5" fill="black"/>
<circle id="weight15" cx="524" cy="111" r="5" fill="black"/>
<circle id="weight12" cx="536" cy="160" r="5" fill="black"/>
<circle id="weight10" cx="524" cy="40" r="5" fill="black"/>
<circle id="weight09" cx="553" cy="106" r="5" fill="black"/>
</g>
<g id="wlayer2">
<path id="con20" d="M409 20H467" stroke="black" stroke-width="2"/>
<path id="con19" d="M409 90H467" stroke="black" stroke-width="2"/>
<path id="con18" d="M409 160H467" stroke="black" stroke-width="2"/>
<path id="con08" d="M408 162L467 20" stroke="black" stroke-width="2"/>
<path id="con07" d="M407 92L467 20" stroke="black" stroke-width="2"/>
<path id="con06" d="M409 21L467 92" stroke="black" stroke-width="2"/>
<path id="con05" d="M409 22L467 160" stroke="black" stroke-width="2"/>
<circle id="weight19" cx="438" cy="20" r="5" fill="black"/>
<circle id="weight11" cx="454" cy="52" r="5" fill="black"/>
<circle id="weight08" cx="449" cy="117" r="5" fill="black"/>
<circle id="weight07" cx="427" cy="118" r="5" fill="black"/>
<circle id="weight06" cx="427" cy="90" r="5" fill="black"/>
<circle id="weight05" cx="427" cy="42" r="5" fill="black"/>
<circle id="weight04" cx="438" cy="160" r="5" fill="black"/>
</g>
<g id="wlayer1">
<path id="con21" d="M311 55L370 21" stroke="black" stroke-width="2"/>
<path id="con04" d="M307 122L369 92" stroke="black" stroke-width="2"/>
<path id="con03" d="M307 122L369 22" stroke="black" stroke-width="2"/>
<path id="con02" d="M311 56L370 160" stroke="black" stroke-width="2"/>
<path id="con01" d="M310 55L369 92" stroke="black" stroke-width="2"/>
<circle id="weight21" cx="328" cy="46" r="5" fill="black"/>
<circle id="weight20" cx="351" cy="51" r="5" fill="black"/>
<circle id="weight03" cx="351" cy="81" r="5" fill="black"/>
<circle id="weight02" cx="352" cy="128" r="5" fill="black"/>
<circle id="weight01" cx="328" cy="112" r="5" fill="black"/>
</g>
</g>
</svg>
