<svg width="700" height="182" viewBox="0 0 700 182" fill="none" xmlns="http://www.w3.org/2000/svg">
<g id="language_model">
<circle id="output" cx="547" cy="90" r="17" stroke="black" stroke-width="6"/>
<g id="input">
<circle id="Ellipse 9" cx="153" cy="56" r="17" stroke="black" stroke-width="6"/>
<circle id="Ellipse 10" cx="153" cy="126" r="17" stroke="black" stroke-width="6"/>
</g>
<g id="layer">
<circle id="Ellipse 10_2" cx="448" cy="90" r="17" stroke="black" stroke-width="6"/>
<circle id="Ellipse 11" cx="448" cy="160" r="17" stroke="black" stroke-width="6"/>
<circle id="Ellipse 9_2" cx="448" cy="20" r="17" stroke="black" stroke-width="6"/>
</g>
<g id="layer_2">
<circle id="Ellipse 10_3" cx="349" cy="91" r="17" stroke="black" stroke-width="6"/>
<circle id="Ellipse 11_2" cx="349" cy="161" r="17" stroke="black" stroke-width="6"/>
<circle id="Ellipse 9_3" cx="349" cy="21" r="17" stroke="black" stroke-width="6"/>
</g>
<g id="layer_3">
<circle id="Ellipse 10_4" cx="251" cy="92" r="17" stroke="black" stroke-width="6"/>
<circle id="Ellipse 11_3" cx="251" cy="162" r="17" stroke="black" stroke-width="6"/>
<circle id="Ellipse 9_4" cx="251" cy="22" r="17" stroke="black" stroke-width="6"/>
</g>
<g id="wlayer4">
<path id="con15" d="M467 20L527 90" stroke="black" stroke-width="2"/>
<path id="con14" d="M468 90H527" stroke="black" stroke-width="2"/>
<path id="con09" d="M467 160L527 90" stroke="black" stroke-width="2"/>
<circle id="weight17" cx="495" cy="52" r="5" fill="black"/>
<circle id="weight14" cx="495" cy="126" r="5" fill="black"/>
<circle id="weight13" cx="495" cy="90" r="5" fill="black"/>
</g>
<g id="wlayer3">
<path id="con17" d="M369 160H428" stroke="black" stroke-width="2"/>
<path id="con16" d="M369 20H428" stroke="black" stroke-width="2"/>
<path id="con13" d="M369 90L428 160" stroke="black" stroke-width="2"/>
<path id="con12" d="M369 20L428 90" stroke="black" stroke-width="2"/>
<path id="con11" d="M369 90L428 20" stroke="black" stroke-width="2"/>
<path id="con10" d="M369 160L428 90" stroke="black" stroke-width="2"/>
<circle id="weight18" cx="398" cy="20" r="5" fill="black"/>
<circle id="weight16" cx="386" cy="70" r="5" fill="black"/>
<circle id="weight15" cx="386" cy="111" r="5" fill="black"/>
<circle id="weight12" cx="398" cy="160" r="5" fill="black"/>
<circle id="weight10" cx="386" cy="40" r="5" fill="black"/>
<circle id="weight09" cx="415" cy="106" r="5" fill="black"/>
</g>
<g id="wlayer2">
<path id="con20" d="M271 20H329" stroke="black" stroke-width="2"/>
<path id="con19" d="M271 90H329" stroke="black" stroke-width="2"/>
<path id="con18" d="M271 160H329" stroke="black" stroke-width="2"/>
<path id="con08" d="M270 162L329 20" stroke="black" stroke-width="2"/>
<path id="con07" d="M269 92L329 20" stroke="black" stroke-width="2"/>
<path id="con06" d="M271 21L329 92" stroke="black" stroke-width="2"/>
<path id="con05" d="M271 22L329 160" stroke="black" stroke-width="2"/>
<circle id="weight19" cx="300" cy="20" r="5" fill="black"/>
<circle id="weight11" cx="316" cy="52" r="5" fill="black"/>
<circle id="weight08" cx="311" cy="117" r="5" fill="black"/>
<circle id="weight07" cx="289" cy="118" r="5" fill="black"/>
<circle id="weight06" cx="289" cy="90" r="5" fill="black"/>
<circle id="weight05" cx="289" cy="42" r="5" fill="black"/>
<circle id="weight04" cx="300" cy="160" r="5" fill="black"/>
</g>
<g id="wlayer1">
<path id="con21" d="M173 55L232 21" stroke="black" stroke-width="2"/>
<path id="con04" d="M169 122L231 92" stroke="black" stroke-width="2"/>
<path id="con03" d="M169 122L231 22" stroke="black" stroke-width="2"/>
<path id="con02" d="M173 56L232 160" stroke="black" stroke-width="2"/>
<path id="con01" d="M172 55L231 92" stroke="black" stroke-width="2"/>
<circle id="weight21" cx="190" cy="46" r="5" fill="black"/>
<circle id="weight20" cx="213" cy="51" r="5" fill="black"/>
<circle id="weight03" cx="213" cy="81" r="5" fill="black"/>
<circle id="weight02" cx="214" cy="128" r="5" fill="black"/>
<circle id="weight01" cx="190" cy="112" r="5" fill="black"/>
</g>
<g id="input_2">
<path id="sleep" d="M55.7003 160.12C57.127 160.12 58.3803 160.54 59.4603 161.38L58.4603 162.88C57.5536 162.307 56.667 162.02 55.8003 162.02C55.2936 162.02 54.9003 162.12 54.6203 162.32C54.3403 162.507 54.2003 162.76 54.2003 163.08C54.2003 163.32 54.2603 163.52 54.3803 163.68C54.5003 163.84 54.7136 163.993 55.0203 164.14C55.3403 164.273 55.807 164.427 56.4203 164.6C57.567 164.907 58.4136 165.313 58.9603 165.82C59.5203 166.327 59.8003 167.033 59.8003 167.94C59.8003 168.993 59.3736 169.82 58.5203 170.42C57.667 171.007 56.607 171.3 55.3403 171.3C54.4736 171.3 53.6803 171.167 52.9603 170.9C52.2536 170.633 51.6403 170.267 51.1203 169.8L52.4003 168.36C53.3203 169.053 54.2803 169.4 55.2803 169.4C55.8536 169.4 56.307 169.287 56.6403 169.06C56.987 168.833 57.1603 168.52 57.1603 168.12C57.1603 167.813 57.0936 167.573 56.9603 167.4C56.8403 167.213 56.6136 167.053 56.2803 166.92C55.9603 166.773 55.4536 166.6 54.7603 166.4C53.6803 166.107 52.887 165.7 52.3803 165.18C51.8736 164.647 51.6203 163.987 51.6203 163.2C51.6203 162.613 51.787 162.087 52.1203 161.62C52.467 161.153 52.947 160.787 53.5603 160.52C54.187 160.253 54.9003 160.12 55.7003 160.12ZM64.372 171.3C63.5587 171.3 62.9187 171.067 62.452 170.6C61.9987 170.12 61.772 169.447 61.772 168.58V156.18L64.332 155.9V168.5C64.332 168.993 64.532 169.24 64.932 169.24C65.132 169.24 65.332 169.207 65.532 169.14L66.072 170.94C65.5387 171.18 64.972 171.3 64.372 171.3ZM76.3528 165.46C76.3528 165.593 76.3328 165.94 76.2928 166.5H69.6528C69.7328 167.527 69.9995 168.26 70.4528 168.7C70.9061 169.14 71.5061 169.36 72.2528 169.36C72.7195 169.36 73.1595 169.287 73.5728 169.14C73.9861 168.98 74.4261 168.74 74.8928 168.42L75.9528 169.88C74.7795 170.827 73.4728 171.3 72.0328 171.3C70.4195 171.3 69.1728 170.807 68.2928 169.82C67.4261 168.833 66.9928 167.487 66.9928 165.78C66.9928 164.7 67.1795 163.733 67.5528 162.88C67.9261 162.013 68.4661 161.34 69.1728 160.86C69.8795 160.367 70.7195 160.12 71.6928 160.12C73.1728 160.12 74.3195 160.593 75.1328 161.54C75.9461 162.473 76.3528 163.78 76.3528 165.46ZM73.8128 164.72C73.8128 162.867 73.1261 161.94 71.7528 161.94C71.1261 161.94 70.6328 162.173 70.2728 162.64C69.9261 163.093 69.7195 163.827 69.6528 164.84H73.8128V164.72ZM87.3294 165.46C87.3294 165.593 87.3094 165.94 87.2694 166.5H80.6294C80.7094 167.527 80.976 168.26 81.4294 168.7C81.8827 169.14 82.4827 169.36 83.2294 169.36C83.696 169.36 84.136 169.287 84.5494 169.14C84.9627 168.98 85.4027 168.74 85.8694 168.42L86.9294 169.88C85.756 170.827 84.4494 171.3 83.0094 171.3C81.396 171.3 80.1494 170.807 79.2694 169.82C78.4027 168.833 77.9694 167.487 77.9694 165.78C77.9694 164.7 78.156 163.733 78.5294 162.88C78.9027 162.013 79.4427 161.34 80.1494 160.86C80.856 160.367 81.696 160.12 82.6694 160.12C84.1494 160.12 85.296 160.593 86.1094 161.54C86.9227 162.473 87.3294 163.78 87.3294 165.46ZM84.7894 164.72C84.7894 162.867 84.1027 161.94 82.7294 161.94C82.1027 161.94 81.6094 162.173 81.2494 162.64C80.9027 163.093 80.696 163.827 80.6294 164.84H84.7894V164.72ZM95.1059 160.12C96.4393 160.12 97.4259 160.607 98.0659 161.58C98.7059 162.553 99.0259 163.92 99.0259 165.68C99.0259 166.773 98.8593 167.747 98.5259 168.6C98.2059 169.44 97.7259 170.1 97.0859 170.58C96.4593 171.06 95.7126 171.3 94.8459 171.3C93.7259 171.3 92.8393 170.913 92.1859 170.14V175.08L89.6259 175.36V160.42H91.8659L92.0059 161.72C92.4193 161.187 92.8926 160.787 93.4259 160.52C93.9593 160.253 94.5193 160.12 95.1059 160.12ZM94.1259 169.34C95.6059 169.34 96.3459 168.127 96.3459 165.7C96.3459 164.407 96.1793 163.473 95.8459 162.9C95.5126 162.327 95.0126 162.04 94.3459 162.04C93.9193 162.04 93.5193 162.173 93.1459 162.44C92.7726 162.693 92.4526 163.04 92.1859 163.48V168.24C92.6793 168.973 93.3259 169.34 94.1259 169.34Z" fill="black"/>
<path id="ideas" d="M55.4672 113.42V124H52.9072V113.42H55.4672ZM54.1672 108.06C54.6472 108.06 55.0339 108.213 55.3272 108.52C55.6339 108.813 55.7872 109.18 55.7872 109.62C55.7872 110.06 55.6339 110.427 55.3272 110.72C55.0339 111.013 54.6472 111.16 54.1672 111.16C53.7005 111.16 53.3139 111.013 53.0072 110.72C52.7139 110.427 52.5672 110.06 52.5672 109.62C52.5672 109.18 52.7139 108.813 53.0072 108.52C53.3139 108.213 53.7005 108.06 54.1672 108.06ZM67.4517 109.18V124H65.1917L65.0117 122.66C64.6784 123.167 64.2517 123.567 63.7317 123.86C63.2251 124.153 62.6451 124.3 61.9917 124.3C60.6984 124.3 59.7051 123.8 59.0117 122.8C58.3184 121.8 57.9717 120.44 57.9717 118.72C57.9717 117.64 58.1451 116.68 58.4917 115.84C58.8384 114.987 59.3317 114.32 59.9717 113.84C60.6251 113.36 61.3784 113.12 62.2317 113.12C63.2451 113.12 64.1317 113.5 64.8917 114.26V108.9L67.4517 109.18ZM62.7117 122.36C63.1651 122.36 63.5651 122.253 63.9117 122.04C64.2584 121.813 64.5851 121.467 64.8917 121V116.16C64.5851 115.787 64.2717 115.507 63.9517 115.32C63.6451 115.133 63.2851 115.04 62.8717 115.04C62.1917 115.04 61.6517 115.347 61.2517 115.96C60.8651 116.56 60.6717 117.473 60.6717 118.7C60.6717 120.007 60.8451 120.947 61.1917 121.52C61.5384 122.08 62.0451 122.36 62.7117 122.36ZM79.2044 118.46C79.2044 118.593 79.1844 118.94 79.1444 119.5H72.5044C72.5844 120.527 72.851 121.26 73.3044 121.7C73.7577 122.14 74.3577 122.36 75.1044 122.36C75.571 122.36 76.011 122.287 76.4244 122.14C76.8377 121.98 77.2777 121.74 77.7444 121.42L78.8044 122.88C77.631 123.827 76.3244 124.3 74.8844 124.3C73.271 124.3 72.0244 123.807 71.1444 122.82C70.2777 121.833 69.8444 120.487 69.8444 118.78C69.8444 117.7 70.031 116.733 70.4044 115.88C70.7777 115.013 71.3177 114.34 72.0244 113.86C72.731 113.367 73.571 113.12 74.5444 113.12C76.0244 113.12 77.171 113.593 77.9844 114.54C78.7977 115.473 79.2044 116.78 79.2044 118.46ZM76.6644 117.72C76.6644 115.867 75.9777 114.94 74.6044 114.94C73.9777 114.94 73.4844 115.173 73.1244 115.64C72.7777 116.093 72.571 116.827 72.5044 117.84H76.6644V117.72ZM89.1256 121.2C89.1256 121.613 89.1856 121.92 89.3056 122.12C89.439 122.307 89.6456 122.453 89.9256 122.56L89.3856 124.26C88.7856 124.207 88.2923 124.06 87.9056 123.82C87.5323 123.58 87.2456 123.213 87.0456 122.72C86.6856 123.253 86.2323 123.653 85.6856 123.92C85.1523 124.173 84.5523 124.3 83.8856 124.3C82.8323 124.3 81.999 124 81.3856 123.4C80.7723 122.8 80.4656 122.013 80.4656 121.04C80.4656 119.893 80.879 119.02 81.7056 118.42C82.5456 117.807 83.739 117.5 85.2856 117.5H86.6056V116.9C86.6056 116.22 86.4456 115.747 86.1256 115.48C85.819 115.2 85.319 115.06 84.6256 115.06C83.8523 115.06 82.919 115.247 81.8256 115.62L81.2256 113.88C82.5456 113.373 83.8256 113.12 85.0656 113.12C87.7723 113.12 89.1256 114.333 89.1256 116.76V121.2ZM84.5656 122.44C85.4323 122.44 86.1123 122.007 86.6056 121.14V119H85.5456C83.8923 119 83.0656 119.613 83.0656 120.84C83.0656 121.347 83.1923 121.74 83.4456 122.02C83.699 122.3 84.0723 122.44 84.5656 122.44ZM95.3683 113.12C96.7949 113.12 98.0483 113.54 99.1283 114.38L98.1283 115.88C97.2216 115.307 96.3349 115.02 95.4683 115.02C94.9616 115.02 94.5683 115.12 94.2883 115.32C94.0083 115.507 93.8683 115.76 93.8683 116.08C93.8683 116.32 93.9283 116.52 94.0483 116.68C94.1683 116.84 94.3816 116.993 94.6883 117.14C95.0083 117.273 95.4749 117.427 96.0883 117.6C97.2349 117.907 98.0816 118.313 98.6283 118.82C99.1883 119.327 99.4683 120.033 99.4683 120.94C99.4683 121.993 99.0416 122.82 98.1883 123.42C97.3349 124.007 96.2749 124.3 95.0083 124.3C94.1416 124.3 93.3483 124.167 92.6283 123.9C91.9216 123.633 91.3083 123.267 90.7883 122.8L92.0683 121.36C92.9883 122.053 93.9483 122.4 94.9483 122.4C95.5216 122.4 95.9749 122.287 96.3083 122.06C96.6549 121.833 96.8283 121.52 96.8283 121.12C96.8283 120.813 96.7616 120.573 96.6283 120.4C96.5083 120.213 96.2816 120.053 95.9483 119.92C95.6283 119.773 95.1216 119.6 94.4283 119.4C93.3483 119.107 92.5549 118.7 92.0483 118.18C91.5416 117.647 91.2883 116.987 91.2883 116.2C91.2883 115.613 91.4549 115.087 91.7883 114.62C92.1349 114.153 92.6149 113.787 93.2283 113.52C93.8549 113.253 94.5683 113.12 95.3683 113.12Z" fill="black"/>
<path id="green" d="M59.158 66.98C58.478 67.22 57.458 67.34 56.098 67.34C56.7513 67.6333 57.2313 68 57.538 68.44C57.858 68.8667 58.018 69.4067 58.018 70.06C58.018 70.7533 57.8446 71.3667 57.498 71.9C57.1646 72.4333 56.6713 72.8533 56.018 73.16C55.378 73.4667 54.6246 73.62 53.758 73.62C53.278 73.62 52.858 73.5667 52.498 73.46C52.2046 73.66 52.058 73.92 52.058 74.24C52.058 74.7333 52.4846 74.98 53.338 74.98H54.958C55.7313 74.98 56.4046 75.1067 56.978 75.36C57.5646 75.6133 58.018 75.9733 58.338 76.44C58.658 76.8933 58.818 77.4067 58.818 77.98C58.818 79.0467 58.3646 79.8733 57.458 80.46C56.5513 81.06 55.2446 81.36 53.538 81.36C52.3113 81.36 51.3446 81.2333 50.638 80.98C49.9446 80.7267 49.4513 80.36 49.158 79.88C48.8646 79.4 48.718 78.7867 48.718 78.04H51.018C51.018 78.4133 51.0846 78.7067 51.218 78.92C51.3646 79.1333 51.618 79.2933 51.978 79.4C52.3513 79.5067 52.8846 79.56 53.578 79.56C54.5513 79.56 55.238 79.44 55.638 79.2C56.038 78.96 56.238 78.6133 56.238 78.16C56.238 77.76 56.0846 77.4467 55.778 77.22C55.4713 77.0067 55.0246 76.9 54.438 76.9H52.838C51.838 76.9 51.0846 76.7067 50.578 76.32C50.0713 75.9333 49.818 75.4467 49.818 74.86C49.818 74.4867 49.9246 74.1267 50.138 73.78C50.3646 73.4333 50.6713 73.14 51.058 72.9C50.418 72.5667 49.9446 72.16 49.638 71.68C49.3446 71.1867 49.198 70.6 49.198 69.92C49.198 69.16 49.3846 68.4933 49.758 67.92C50.1313 67.3467 50.6446 66.9067 51.298 66.6C51.9646 66.28 52.7246 66.12 53.578 66.12C54.698 66.1467 55.598 66.0667 56.278 65.88C56.9713 65.68 57.718 65.3667 58.518 64.94L59.158 66.98ZM53.618 67.86C53.0446 67.86 52.5913 68.0467 52.258 68.42C51.938 68.78 51.778 69.2667 51.778 69.88C51.778 70.52 51.9446 71.0267 52.278 71.4C52.6113 71.7733 53.0713 71.96 53.658 71.96C54.2713 71.96 54.738 71.78 55.058 71.42C55.378 71.0467 55.538 70.5267 55.538 69.86C55.538 68.5267 54.898 67.86 53.618 67.86ZM65.9202 66.14C66.3068 66.14 66.6602 66.1867 66.9802 66.28L66.5402 68.76C66.2202 68.68 65.9068 68.64 65.6002 68.64C64.9735 68.64 64.4802 68.8667 64.1202 69.32C63.7602 69.76 63.4735 70.44 63.2602 71.36V77H60.7002V66.42H62.9202L63.1602 68.5C63.4135 67.74 63.7802 67.16 64.2602 66.76C64.7402 66.3467 65.2935 66.14 65.9202 66.14ZM76.6458 71.46C76.6458 71.5933 76.6258 71.94 76.5858 72.5H69.9458C70.0258 73.5267 70.2924 74.26 70.7458 74.7C71.1991 75.14 71.7991 75.36 72.5458 75.36C73.0124 75.36 73.4524 75.2867 73.8658 75.14C74.2791 74.98 74.7191 74.74 75.1858 74.42L76.2458 75.88C75.0724 76.8267 73.7658 77.3 72.3258 77.3C70.7124 77.3 69.4658 76.8067 68.5858 75.82C67.7191 74.8333 67.2858 73.4867 67.2858 71.78C67.2858 70.7 67.4724 69.7333 67.8458 68.88C68.2191 68.0133 68.7591 67.34 69.4658 66.86C70.1724 66.3667 71.0124 66.12 71.9858 66.12C73.4658 66.12 74.6124 66.5933 75.4258 67.54C76.2391 68.4733 76.6458 69.78 76.6458 71.46ZM74.1058 70.72C74.1058 68.8667 73.4191 67.94 72.0458 67.94C71.4191 67.94 70.9258 68.1733 70.5658 68.64C70.2191 69.0933 70.0124 69.8267 69.9458 70.84H74.1058V70.72ZM87.6223 71.46C87.6223 71.5933 87.6023 71.94 87.5623 72.5H80.9223C81.0023 73.5267 81.269 74.26 81.7223 74.7C82.1757 75.14 82.7757 75.36 83.5223 75.36C83.989 75.36 84.429 75.2867 84.8423 75.14C85.2557 74.98 85.6957 74.74 86.1623 74.42L87.2223 75.88C86.049 76.8267 84.7423 77.3 83.3023 77.3C81.689 77.3 80.4423 76.8067 79.5623 75.82C78.6957 74.8333 78.2623 73.4867 78.2623 71.78C78.2623 70.7 78.449 69.7333 78.8223 68.88C79.1957 68.0133 79.7357 67.34 80.4423 66.86C81.149 66.3667 81.989 66.12 82.9623 66.12C84.4423 66.12 85.589 66.5933 86.4023 67.54C87.2157 68.4733 87.6223 69.78 87.6223 71.46ZM85.0823 70.72C85.0823 68.8667 84.3957 67.94 83.0223 67.94C82.3957 67.94 81.9023 68.1733 81.5423 68.64C81.1957 69.0933 80.989 69.8267 80.9223 70.84H85.0823V70.72ZM95.5589 66.12C96.5056 66.12 97.2389 66.4067 97.7589 66.98C98.2922 67.54 98.5589 68.3267 98.5589 69.34V77H95.9989V69.74C95.9989 69.1133 95.8856 68.6733 95.6589 68.42C95.4456 68.1667 95.1256 68.04 94.6989 68.04C94.2589 68.04 93.8589 68.18 93.4989 68.46C93.1522 68.7267 92.8122 69.12 92.4789 69.64V77H89.9189V66.42H92.1389L92.3389 67.8C93.2056 66.68 94.2789 66.12 95.5589 66.12Z" fill="black"/>
<path id="colorless" d="M23.9641 19.12C24.6574 19.12 25.2774 19.22 25.8241 19.42C26.3841 19.62 26.9107 19.9333 27.4041 20.36L26.2641 21.9C25.9041 21.6333 25.5574 21.44 25.2241 21.32C24.8907 21.2 24.5241 21.14 24.1241 21.14C22.5374 21.14 21.7441 22.3467 21.7441 24.76C21.7441 25.9867 21.9507 26.8733 22.3641 27.42C22.7774 27.9533 23.3641 28.22 24.1241 28.22C24.4974 28.22 24.8374 28.16 25.1441 28.04C25.4641 27.92 25.8374 27.7267 26.2641 27.46L27.4041 29.08C26.4041 29.8933 25.2641 30.3 23.9841 30.3C22.9707 30.3 22.0907 30.08 21.3441 29.64C20.5974 29.1867 20.0241 28.5467 19.6241 27.72C19.2241 26.8933 19.0241 25.92 19.0241 24.8C19.0241 23.68 19.2241 22.6933 19.6241 21.84C20.0241 20.9733 20.5974 20.3067 21.3441 19.84C22.0907 19.36 22.9641 19.12 23.9641 19.12ZM33.1842 19.12C34.7442 19.12 35.9576 19.62 36.8242 20.62C37.7042 21.6067 38.1442 22.9667 38.1442 24.7C38.1442 25.8067 37.9442 26.7867 37.5442 27.64C37.1442 28.48 36.5709 29.1333 35.8242 29.6C35.0776 30.0667 34.1909 30.3 33.1642 30.3C31.6042 30.3 30.3842 29.8067 29.5042 28.82C28.6242 27.82 28.1842 26.4467 28.1842 24.7C28.1842 23.5933 28.3842 22.62 28.7842 21.78C29.1842 20.94 29.7576 20.2867 30.5042 19.82C31.2642 19.3533 32.1576 19.12 33.1842 19.12ZM33.1842 21.06C31.6509 21.06 30.8842 22.2733 30.8842 24.7C30.8842 25.9533 31.0709 26.88 31.4442 27.48C31.8309 28.0667 32.4042 28.36 33.1642 28.36C33.9242 28.36 34.4909 28.06 34.8642 27.46C35.2509 26.86 35.4442 25.94 35.4442 24.7C35.4442 23.46 35.2509 22.5467 34.8642 21.96C34.4909 21.36 33.9309 21.06 33.1842 21.06ZM43.0439 30.3C42.2306 30.3 41.5906 30.0667 41.1239 29.6C40.6706 29.12 40.4439 28.4467 40.4439 27.58V15.18L43.0039 14.9V27.5C43.0039 27.9933 43.2039 28.24 43.6039 28.24C43.8039 28.24 44.0039 28.2067 44.2039 28.14L44.7439 29.94C44.2106 30.18 43.6439 30.3 43.0439 30.3ZM50.6647 19.12C52.2247 19.12 53.438 19.62 54.3047 20.62C55.1847 21.6067 55.6247 22.9667 55.6247 24.7C55.6247 25.8067 55.4247 26.7867 55.0247 27.64C54.6247 28.48 54.0514 29.1333 53.3047 29.6C52.558 30.0667 51.6714 30.3 50.6447 30.3C49.0847 30.3 47.8647 29.8067 46.9847 28.82C46.1047 27.82 45.6647 26.4467 45.6647 24.7C45.6647 23.5933 45.8647 22.62 46.2647 21.78C46.6647 20.94 47.238 20.2867 47.9847 19.82C48.7447 19.3533 49.638 19.12 50.6647 19.12ZM50.6647 21.06C49.1314 21.06 48.3647 22.2733 48.3647 24.7C48.3647 25.9533 48.5514 26.88 48.9247 27.48C49.3114 28.0667 49.8847 28.36 50.6447 28.36C51.4047 28.36 51.9714 28.06 52.3447 27.46C52.7314 26.86 52.9247 25.94 52.9247 24.7C52.9247 23.46 52.7314 22.5467 52.3447 21.96C51.9714 21.36 51.4114 21.06 50.6647 21.06ZM63.2444 19.14C63.631 19.14 63.9844 19.1867 64.3044 19.28L63.8644 21.76C63.5444 21.68 63.231 21.64 62.9244 21.64C62.2977 21.64 61.8044 21.8667 61.4444 22.32C61.0844 22.76 60.7977 23.44 60.5844 24.36V30H58.0244V19.42H60.2444L60.4844 21.5C60.7377 20.74 61.1044 20.16 61.5844 19.76C62.0644 19.3467 62.6177 19.14 63.2444 19.14ZM68.3955 30.3C67.5821 30.3 66.9421 30.0667 66.4755 29.6C66.0221 29.12 65.7955 28.4467 65.7955 27.58V15.18L68.3555 14.9V27.5C68.3555 27.9933 68.5555 28.24 68.9555 28.24C69.1555 28.24 69.3555 28.2067 69.5555 28.14L70.0955 29.94C69.5621 30.18 68.9955 30.3 68.3955 30.3ZM80.3763 24.46C80.3763 24.5933 80.3563 24.94 80.3163 25.5H73.6763C73.7563 26.5267 74.0229 27.26 74.4763 27.7C74.9296 28.14 75.5296 28.36 76.2763 28.36C76.7429 28.36 77.1829 28.2867 77.5963 28.14C78.0096 27.98 78.4496 27.74 78.9163 27.42L79.9763 28.88C78.8029 29.8267 77.4963 30.3 76.0563 30.3C74.4429 30.3 73.1963 29.8067 72.3163 28.82C71.4496 27.8333 71.0163 26.4867 71.0163 24.78C71.0163 23.7 71.2029 22.7333 71.5763 21.88C71.9496 21.0133 72.4896 20.34 73.1963 19.86C73.9029 19.3667 74.7429 19.12 75.7163 19.12C77.1963 19.12 78.3429 19.5933 79.1563 20.54C79.9696 21.4733 80.3763 22.78 80.3763 24.46ZM77.8363 23.72C77.8363 21.8667 77.1496 20.94 75.7763 20.94C75.1496 20.94 74.6563 21.1733 74.2963 21.64C73.9496 22.0933 73.7429 22.8267 73.6763 23.84H77.8363V23.72ZM86.0128 19.12C87.4395 19.12 88.6928 19.54 89.7728 20.38L88.7728 21.88C87.8661 21.3067 86.9795 21.02 86.1128 21.02C85.6061 21.02 85.2128 21.12 84.9328 21.32C84.6528 21.5067 84.5128 21.76 84.5128 22.08C84.5128 22.32 84.5728 22.52 84.6928 22.68C84.8128 22.84 85.0261 22.9933 85.3328 23.14C85.6528 23.2733 86.1195 23.4267 86.7328 23.6C87.8795 23.9067 88.7261 24.3133 89.2728 24.82C89.8328 25.3267 90.1128 26.0333 90.1128 26.94C90.1128 27.9933 89.6861 28.82 88.8328 29.42C87.9795 30.0067 86.9195 30.3 85.6528 30.3C84.7861 30.3 83.9928 30.1667 83.2728 29.9C82.5661 29.6333 81.9528 29.2667 81.4328 28.8L82.7128 27.36C83.6328 28.0533 84.5928 28.4 85.5928 28.4C86.1661 28.4 86.6195 28.2867 86.9528 28.06C87.2995 27.8333 87.4728 27.52 87.4728 27.12C87.4728 26.8133 87.4061 26.5733 87.2728 26.4C87.1528 26.2133 86.9261 26.0533 86.5928 25.92C86.2728 25.7733 85.7661 25.6 85.0728 25.4C83.9928 25.1067 83.1995 24.7 82.6928 24.18C82.1861 23.6467 81.9328 22.9867 81.9328 22.2C81.9328 21.6133 82.0995 21.0867 82.4328 20.62C82.7795 20.1533 83.2595 19.7867 83.8728 19.52C84.4995 19.2533 85.2128 19.12 86.0128 19.12ZM95.3683 19.12C96.7949 19.12 98.0483 19.54 99.1283 20.38L98.1283 21.88C97.2216 21.3067 96.3349 21.02 95.4683 21.02C94.9616 21.02 94.5683 21.12 94.2883 21.32C94.0083 21.5067 93.8683 21.76 93.8683 22.08C93.8683 22.32 93.9283 22.52 94.0483 22.68C94.1683 22.84 94.3816 22.9933 94.6883 23.14C95.0083 23.2733 95.4749 23.4267 96.0883 23.6C97.2349 23.9067 98.0816 24.3133 98.6283 24.82C99.1883 25.3267 99.4683 26.0333 99.4683 26.94C99.4683 27.9933 99.0416 28.82 98.1883 29.42C97.3349 30.0067 96.2749 30.3 95.0083 30.3C94.1416 30.3 93.3483 30.1667 92.6283 29.9C91.9216 29.6333 91.3083 29.2667 90.7883 28.8L92.0683 27.36C92.9883 28.0533 93.9483 28.4 94.9483 28.4C95.5216 28.4 95.9749 28.2867 96.3083 28.06C96.6549 27.8333 96.8283 27.52 96.8283 27.12C96.8283 26.8133 96.7616 26.5733 96.6283 26.4C96.5083 26.2133 96.2816 26.0533 95.9483 25.92C95.6283 25.7733 95.1216 25.6 94.4283 25.4C93.3483 25.1067 92.5549 24.7 92.0483 24.18C91.5416 23.6467 91.2883 22.9867 91.2883 22.2C91.2883 21.6133 91.4549 21.0867 91.7883 20.62C92.1349 20.1533 92.6149 19.7867 93.2283 19.52C93.8549 19.2533 94.5683 19.12 95.3683 19.12Z" fill="black"/>
</g>
<path id="furiously" d="M605.82 83.84C605.313 83.84 604.947 83.96 604.72 84.2C604.507 84.4267 604.4 84.7933 604.4 85.3V86.42H606.94L606.66 88.26H604.4V97H601.84V88.26H600.12V86.42H601.84V85.26C601.84 84.26 602.16 83.4533 602.8 82.84C603.453 82.2133 604.373 81.9 605.56 81.9C606.493 81.9 607.407 82.1067 608.3 82.52L607.56 84.24C606.987 83.9733 606.407 83.84 605.82 83.84ZM616.934 97H614.714L614.574 95.52C614.187 96.12 613.727 96.5667 613.194 96.86C612.674 97.1533 612.054 97.3 611.334 97.3C610.387 97.3 609.654 97.0133 609.134 96.44C608.627 95.8533 608.374 95.0467 608.374 94.02V86.42H610.934V93.7C610.934 94.3 611.034 94.7267 611.234 94.98C611.447 95.2333 611.78 95.36 612.234 95.36C613.047 95.36 613.76 94.86 614.374 93.86V86.42H616.934V97ZM625.237 86.14C625.623 86.14 625.977 86.1867 626.297 86.28L625.857 88.76C625.537 88.68 625.223 88.64 624.917 88.64C624.29 88.64 623.797 88.8667 623.437 89.32C623.077 89.76 622.79 90.44 622.577 91.36V97H620.017V86.42H622.237L622.477 88.5C622.73 87.74 623.097 87.16 623.577 86.76C624.057 86.3467 624.61 86.14 625.237 86.14ZM630.448 86.42V97H627.888V86.42H630.448ZM629.148 81.06C629.628 81.06 630.014 81.2133 630.308 81.52C630.614 81.8133 630.768 82.18 630.768 82.62C630.768 83.06 630.614 83.4267 630.308 83.72C630.014 84.0133 629.628 84.16 629.148 84.16C628.681 84.16 628.294 84.0133 627.988 83.72C627.694 83.4267 627.548 83.06 627.548 82.62C627.548 82.18 627.694 81.8133 627.988 81.52C628.294 81.2133 628.681 81.06 629.148 81.06ZM637.852 86.12C639.412 86.12 640.626 86.62 641.492 87.62C642.372 88.6067 642.812 89.9667 642.812 91.7C642.812 92.8067 642.612 93.7867 642.212 94.64C641.812 95.48 641.239 96.1333 640.492 96.6C639.746 97.0667 638.859 97.3 637.832 97.3C636.272 97.3 635.052 96.8067 634.172 95.82C633.292 94.82 632.852 93.4467 632.852 91.7C632.852 90.5933 633.052 89.62 633.452 88.78C633.852 87.94 634.426 87.2867 635.172 86.82C635.932 86.3533 636.826 86.12 637.852 86.12ZM637.852 88.06C636.319 88.06 635.552 89.2733 635.552 91.7C635.552 92.9533 635.739 93.88 636.112 94.48C636.499 95.0667 637.072 95.36 637.832 95.36C638.592 95.36 639.159 95.06 639.532 94.46C639.919 93.86 640.112 92.94 640.112 91.7C640.112 90.46 639.919 89.5467 639.532 88.96C639.159 88.36 638.599 88.06 637.852 88.06ZM653.672 97H651.452L651.312 95.52C650.925 96.12 650.465 96.5667 649.932 96.86C649.412 97.1533 648.792 97.3 648.072 97.3C647.125 97.3 646.392 97.0133 645.872 96.44C645.365 95.8533 645.112 95.0467 645.112 94.02V86.42H647.672V93.7C647.672 94.3 647.772 94.7267 647.972 94.98C648.185 95.2333 648.519 95.36 648.972 95.36C649.785 95.36 650.499 94.86 651.112 93.86V86.42H653.672V97ZM660.095 86.12C661.522 86.12 662.775 86.54 663.855 87.38L662.855 88.88C661.948 88.3067 661.062 88.02 660.195 88.02C659.688 88.02 659.295 88.12 659.015 88.32C658.735 88.5067 658.595 88.76 658.595 89.08C658.595 89.32 658.655 89.52 658.775 89.68C658.895 89.84 659.108 89.9933 659.415 90.14C659.735 90.2733 660.202 90.4267 660.815 90.6C661.962 90.9067 662.808 91.3133 663.355 91.82C663.915 92.3267 664.195 93.0333 664.195 93.94C664.195 94.9933 663.768 95.82 662.915 96.42C662.062 97.0067 661.002 97.3 659.735 97.3C658.868 97.3 658.075 97.1667 657.355 96.9C656.648 96.6333 656.035 96.2667 655.515 95.8L656.795 94.36C657.715 95.0533 658.675 95.4 659.675 95.4C660.248 95.4 660.702 95.2867 661.035 95.06C661.382 94.8333 661.555 94.52 661.555 94.12C661.555 93.8133 661.488 93.5733 661.355 93.4C661.235 93.2133 661.008 93.0533 660.675 92.92C660.355 92.7733 659.848 92.6 659.155 92.4C658.075 92.1067 657.282 91.7 656.775 91.18C656.268 90.6467 656.015 89.9867 656.015 89.2C656.015 88.6133 656.182 88.0867 656.515 87.62C656.862 87.1533 657.342 86.7867 657.955 86.52C658.582 86.2533 659.295 86.12 660.095 86.12ZM668.767 97.3C667.953 97.3 667.313 97.0667 666.847 96.6C666.393 96.12 666.167 95.4467 666.167 94.58V82.18L668.727 81.9V94.5C668.727 94.9933 668.927 95.24 669.327 95.24C669.527 95.24 669.727 95.2067 669.927 95.14L670.467 96.94C669.933 97.18 669.367 97.3 668.767 97.3ZM677.09 97.04C676.663 98.3467 676.016 99.36 675.15 100.08C674.283 100.813 673.096 101.24 671.59 101.36L671.33 99.5C672.023 99.3933 672.576 99.24 672.99 99.04C673.416 98.8533 673.756 98.6 674.01 98.28C674.263 97.96 674.496 97.5333 674.71 97H673.83L670.47 86.42H673.19L675.49 95.3L677.89 86.42H680.53L677.09 97.04Z" fill="black"/>
</g>
</svg>
