<svg width="437" height="448" viewBox="0 0 437 448" fill="none" xmlns="http://www.w3.org/2000/svg">
<circle cx="226.999" cy="200" r="200" fill="#12161E"/>
<circle cx="72.8021" cy="204.208" r="12" transform="rotate(131.249 72.8021 204.208)" fill="#006EFF"/>
<circle cx="144.621" cy="251.229" r="12" transform="rotate(131.249 144.621 251.229)" fill="#006EFF"/>
<circle cx="144.621" cy="251.229" r="12" transform="rotate(131.249 144.621 251.229)" fill="#006EFF"/>
<circle cx="144.621" cy="251.229" r="12" transform="rotate(131.249 144.621 251.229)" fill="#006EFF"/>
<circle cx="144.621" cy="251.229" r="12" transform="rotate(131.249 144.621 251.229)" fill="#006EFF"/>
<circle cx="161.16" cy="352.187" r="12" transform="rotate(131.249 161.16 352.187)" fill="#006EFF"/>
<circle cx="373.649" cy="285.819" r="12" transform="rotate(131.249 373.649 285.819)" fill="#006EFF"/>
<circle cx="267.764" cy="248.826" r="12" transform="rotate(131.249 267.764 248.826)" fill="#006EFF"/>
<circle cx="258.999" cy="93.5028" r="12" transform="rotate(131.249 258.999 93.5028)" fill="#006EFF"/>
<circle cx="232.945" cy="344.647" r="12" transform="rotate(131.249 232.945 344.647)" fill="#006EFF"/>
<circle cx="351.835" cy="190.876" r="12" transform="rotate(131.249 351.835 190.876)" fill="#006EFF"/>
<circle cx="162.344" cy="132.436" r="12" transform="rotate(131.249 162.344 132.436)" fill="#006EFF"/>
<path d="M221 362L205.546 369.821L220.046 379.294L221 362ZM173.256 437.82L214.872 374.122L212.36 372.481L170.744 436.18L173.256 437.82Z" fill="url(#paint0_linear_101_103)"/>
<path d="M221 362L205.546 369.821L220.046 379.294L221 362ZM173.256 437.82L214.872 374.122L212.36 372.481L170.744 436.18L173.256 437.82Z" fill="#D6C8AC"/>
<path d="M72.2516 432.944L72.0276 434.624H69.1476V444H67.0196V434.624H64.0436V432.944H72.2516ZM79.6369 439.568C79.6369 439.675 79.6209 439.952 79.5889 440.4H74.2769C74.3409 441.221 74.5543 441.808 74.9169 442.16C75.2796 442.512 75.7596 442.688 76.3569 442.688C76.7303 442.688 77.0823 442.629 77.4129 442.512C77.7436 442.384 78.0956 442.192 78.4689 441.936L79.3169 443.104C78.3783 443.861 77.3329 444.24 76.1809 444.24C74.8903 444.24 73.8929 443.845 73.1889 443.056C72.4956 442.267 72.1489 441.189 72.1489 439.824C72.1489 438.96 72.2983 438.187 72.5969 437.504C72.8956 436.811 73.3276 436.272 73.8929 435.888C74.4583 435.493 75.1303 435.296 75.9089 435.296C77.0929 435.296 78.0103 435.675 78.6609 436.432C79.3116 437.179 79.6369 438.224 79.6369 439.568ZM77.6049 438.976C77.6049 437.493 77.0556 436.752 75.9569 436.752C75.4556 436.752 75.0609 436.939 74.7729 437.312C74.4956 437.675 74.3303 438.261 74.2769 439.072H77.6049V438.976ZM84.1462 435.296C85.2875 435.296 86.2902 435.632 87.1542 436.304L86.3542 437.504C85.6289 437.045 84.9195 436.816 84.2262 436.816C83.8209 436.816 83.5062 436.896 83.2822 437.056C83.0582 437.205 82.9462 437.408 82.9462 437.664C82.9462 437.856 82.9942 438.016 83.0902 438.144C83.1862 438.272 83.3569 438.395 83.6022 438.512C83.8582 438.619 84.2315 438.741 84.7222 438.88C85.6395 439.125 86.3169 439.451 86.7542 439.856C87.2022 440.261 87.4262 440.827 87.4262 441.552C87.4262 442.395 87.0849 443.056 86.4022 443.536C85.7195 444.005 84.8715 444.24 83.8582 444.24C83.1649 444.24 82.5302 444.133 81.9542 443.92C81.3889 443.707 80.8982 443.413 80.4822 443.04L81.5062 441.888C82.2422 442.443 83.0102 442.72 83.8102 442.72C84.2689 442.72 84.6315 442.629 84.8982 442.448C85.1755 442.267 85.3142 442.016 85.3142 441.696C85.3142 441.451 85.2609 441.259 85.1542 441.12C85.0582 440.971 84.8769 440.843 84.6102 440.736C84.3542 440.619 83.9489 440.48 83.3942 440.32C82.5302 440.085 81.8955 439.76 81.4902 439.344C81.0849 438.917 80.8822 438.389 80.8822 437.76C80.8822 437.291 81.0155 436.869 81.2822 436.496C81.5595 436.123 81.9435 435.829 82.4342 435.616C82.9355 435.403 83.5062 435.296 84.1462 435.296ZM93.9316 443.6C93.6329 443.813 93.2969 443.973 92.9236 444.08C92.5609 444.187 92.1876 444.24 91.8036 444.24C90.9716 444.229 90.3369 443.995 89.8996 443.536C89.4729 443.067 89.2596 442.379 89.2596 441.472V437.008H87.9316V435.536H89.2596V433.664L91.3076 433.424V435.536H93.2756L93.0676 437.008H91.3076V441.424C91.3076 441.84 91.3769 442.139 91.5156 442.32C91.6649 442.501 91.8942 442.592 92.2036 442.592C92.5129 442.592 92.8489 442.491 93.2116 442.288L93.9316 443.6ZM97.1316 435.536V444H95.0836V435.536H97.1316ZM96.0916 431.248C96.4756 431.248 96.7849 431.371 97.0196 431.616C97.2649 431.851 97.3876 432.144 97.3876 432.496C97.3876 432.848 97.2649 433.141 97.0196 433.376C96.7849 433.611 96.4756 433.728 96.0916 433.728C95.7182 433.728 95.4089 433.611 95.1636 433.376C94.9289 433.141 94.8116 432.848 94.8116 432.496C94.8116 432.144 94.9289 431.851 95.1636 431.616C95.4089 431.371 95.7182 431.248 96.0916 431.248ZM104.111 435.296C104.869 435.296 105.455 435.525 105.871 435.984C106.298 436.432 106.511 437.061 106.511 437.872V444H104.463V438.192C104.463 437.691 104.373 437.339 104.191 437.136C104.021 436.933 103.765 436.832 103.423 436.832C103.071 436.832 102.751 436.944 102.463 437.168C102.186 437.381 101.914 437.696 101.647 438.112V444H99.5992V435.536H101.375L101.535 436.64C102.229 435.744 103.087 435.296 104.111 435.296ZM116.256 435.984C115.712 436.176 114.896 436.272 113.808 436.272C114.331 436.507 114.715 436.8 114.96 437.152C115.216 437.493 115.344 437.925 115.344 438.448C115.344 439.003 115.205 439.493 114.928 439.92C114.661 440.347 114.267 440.683 113.744 440.928C113.232 441.173 112.629 441.296 111.936 441.296C111.552 441.296 111.216 441.253 110.928 441.168C110.693 441.328 110.576 441.536 110.576 441.792C110.576 442.187 110.917 442.384 111.6 442.384H112.896C113.515 442.384 114.053 442.485 114.512 442.688C114.981 442.891 115.344 443.179 115.6 443.552C115.856 443.915 115.984 444.325 115.984 444.784C115.984 445.637 115.621 446.299 114.896 446.768C114.171 447.248 113.125 447.488 111.76 447.488C110.779 447.488 110.005 447.387 109.44 447.184C108.885 446.981 108.491 446.688 108.256 446.304C108.021 445.92 107.904 445.429 107.904 444.832H109.744C109.744 445.131 109.797 445.365 109.904 445.536C110.021 445.707 110.224 445.835 110.512 445.92C110.811 446.005 111.237 446.048 111.792 446.048C112.571 446.048 113.12 445.952 113.44 445.76C113.76 445.568 113.92 445.291 113.92 444.928C113.92 444.608 113.797 444.357 113.552 444.176C113.307 444.005 112.949 443.92 112.48 443.92H111.2C110.4 443.92 109.797 443.765 109.392 443.456C108.987 443.147 108.784 442.757 108.784 442.288C108.784 441.989 108.869 441.701 109.04 441.424C109.221 441.147 109.467 440.912 109.776 440.72C109.264 440.453 108.885 440.128 108.64 439.744C108.405 439.349 108.288 438.88 108.288 438.336C108.288 437.728 108.437 437.195 108.736 436.736C109.035 436.277 109.445 435.925 109.968 435.68C110.501 435.424 111.109 435.296 111.792 435.296C112.688 435.317 113.408 435.253 113.952 435.104C114.507 434.944 115.104 434.693 115.744 434.352L116.256 435.984ZM111.824 436.688C111.365 436.688 111.003 436.837 110.736 437.136C110.48 437.424 110.352 437.813 110.352 438.304C110.352 438.816 110.485 439.221 110.752 439.52C111.019 439.819 111.387 439.968 111.856 439.968C112.347 439.968 112.72 439.824 112.976 439.536C113.232 439.237 113.36 438.821 113.36 438.288C113.36 437.221 112.848 436.688 111.824 436.688ZM128.61 432.144V444H126.802L126.658 442.928C126.391 443.333 126.05 443.653 125.634 443.888C125.228 444.123 124.764 444.24 124.242 444.24C123.207 444.24 122.412 443.84 121.858 443.04C121.303 442.24 121.026 441.152 121.026 439.776C121.026 438.912 121.164 438.144 121.442 437.472C121.719 436.789 122.114 436.256 122.626 435.872C123.148 435.488 123.751 435.296 124.434 435.296C125.244 435.296 125.954 435.6 126.562 436.208V431.92L128.61 432.144ZM124.818 442.688C125.18 442.688 125.5 442.603 125.778 442.432C126.055 442.251 126.316 441.973 126.562 441.6V437.728C126.316 437.429 126.066 437.205 125.81 437.056C125.564 436.907 125.276 436.832 124.946 436.832C124.402 436.832 123.97 437.077 123.65 437.568C123.34 438.048 123.186 438.779 123.186 439.76C123.186 440.805 123.324 441.557 123.602 442.016C123.879 442.464 124.284 442.688 124.818 442.688ZM137.324 441.76C137.324 442.091 137.372 442.336 137.468 442.496C137.575 442.645 137.74 442.763 137.964 442.848L137.532 444.208C137.052 444.165 136.657 444.048 136.348 443.856C136.049 443.664 135.82 443.371 135.66 442.976C135.372 443.403 135.009 443.723 134.572 443.936C134.145 444.139 133.665 444.24 133.132 444.24C132.289 444.24 131.623 444 131.132 443.52C130.641 443.04 130.396 442.411 130.396 441.632C130.396 440.715 130.727 440.016 131.388 439.536C132.06 439.045 133.015 438.8 134.252 438.8H135.308V438.32C135.308 437.776 135.18 437.397 134.924 437.184C134.679 436.96 134.279 436.848 133.724 436.848C133.105 436.848 132.359 436.997 131.484 437.296L131.004 435.904C132.06 435.499 133.084 435.296 134.076 435.296C136.241 435.296 137.324 436.267 137.324 438.208V441.76ZM133.676 442.752C134.369 442.752 134.913 442.405 135.308 441.712V440H134.46C133.137 440 132.476 440.491 132.476 441.472C132.476 441.877 132.577 442.192 132.78 442.416C132.983 442.64 133.281 442.752 133.676 442.752ZM144.65 443.6C144.352 443.813 144.016 443.973 143.642 444.08C143.28 444.187 142.906 444.24 142.522 444.24C141.69 444.229 141.056 443.995 140.618 443.536C140.192 443.067 139.978 442.379 139.978 441.472V437.008H138.65V435.536H139.978V433.664L142.026 433.424V435.536H143.994L143.786 437.008H142.026V441.424C142.026 441.84 142.096 442.139 142.234 442.32C142.384 442.501 142.613 442.592 142.922 442.592C143.232 442.592 143.568 442.491 143.93 442.288L144.65 443.6ZM151.902 441.76C151.902 442.091 151.95 442.336 152.046 442.496C152.153 442.645 152.318 442.763 152.542 442.848L152.11 444.208C151.63 444.165 151.235 444.048 150.926 443.856C150.627 443.664 150.398 443.371 150.238 442.976C149.95 443.403 149.587 443.723 149.15 443.936C148.723 444.139 148.243 444.24 147.71 444.24C146.867 444.24 146.201 444 145.71 443.52C145.219 443.04 144.974 442.411 144.974 441.632C144.974 440.715 145.305 440.016 145.966 439.536C146.638 439.045 147.593 438.8 148.83 438.8H149.886V438.32C149.886 437.776 149.758 437.397 149.502 437.184C149.257 436.96 148.857 436.848 148.302 436.848C147.683 436.848 146.937 436.997 146.062 437.296L145.582 435.904C146.638 435.499 147.662 435.296 148.654 435.296C150.819 435.296 151.902 436.267 151.902 438.208V441.76ZM148.254 442.752C148.947 442.752 149.491 442.405 149.886 441.712V440H149.038C147.715 440 147.054 440.491 147.054 441.472C147.054 441.877 147.155 442.192 147.358 442.416C147.561 442.64 147.859 442.752 148.254 442.752Z" fill="black"/>
<circle cx="321.999" cy="335" r="12" fill="#F3A712"/>
<circle cx="309.999" cy="250" r="12" fill="#F3A712"/>
<circle cx="309.999" cy="250" r="12" fill="#F3A712"/>
<circle cx="309.999" cy="250" r="12" fill="#F3A712"/>
<circle cx="309.999" cy="250" r="12" fill="#F3A712"/>
<circle cx="374.999" cy="171" r="12" fill="#F3A712"/>
<circle cx="184.999" cy="55.0004" r="12" fill="#F3A712"/>
<circle cx="226.999" cy="159" r="12" fill="#F3A712"/>
<circle cx="115.999" cy="268" r="12" fill="#F3A712"/>
<circle cx="321.999" cy="122" r="12" fill="#F3A712"/>
<circle cx="127.999" cy="134" r="12" fill="#F3A712"/>
<circle cx="208.999" cy="315" r="12" fill="#F3A712"/>
<defs>
<linearGradient id="paint0_linear_101_103" x1="221" y1="362" x2="172" y2="437" gradientUnits="userSpaceOnUse">
<stop stop-color="#FFEDCB"/>
<stop offset="0.584914" stop-color="#FFEDCB"/>
<stop offset="0.593762" stop-color="#D6C7AC"/>
<stop offset="1" stop-color="#D6C7AC"/>
</linearGradient>
</defs>
</svg>
