<svg width="424" height="521" viewBox="0 0 424 521" fill="none" xmlns="http://www.w3.org/2000/svg">
<circle cx="224" cy="273" r="200" fill="#12161E"/>
<path d="M137 85L137.12 67.6799L122.06 76.2364L137 85ZM110.696 41.741L129.027 74.0034L131.635 72.5213L113.304 40.259L110.696 41.741Z" fill="url(#paint0_linear_101_102)"/>
<path d="M137 85L137.12 67.6799L122.06 76.2364L137 85ZM110.696 41.741L129.027 74.0034L131.635 72.5213L113.304 40.259L110.696 41.741Z" fill="#D6C8AC"/>
<path d="M8.4 10.944L8.176 12.624H5.296V22H3.168V12.624H0.192V10.944H8.4ZM14.2284 13.296C14.975 13.296 15.5617 13.5253 15.9884 13.984C16.415 14.4427 16.6284 15.072 16.6284 15.872V22H14.5804V16.192C14.5804 15.6907 14.4897 15.3387 14.3084 15.136C14.1377 14.9333 13.8817 14.832 13.5404 14.832C13.199 14.832 12.8844 14.944 12.5964 15.168C12.3084 15.3813 12.031 15.6907 11.7644 16.096V22H9.71638V10.16L11.7644 9.952V14.544C12.447 13.712 13.2684 13.296 14.2284 13.296ZM25.9573 17.568C25.9573 17.6747 25.9413 17.952 25.9093 18.4H20.5973C20.6613 19.2213 20.8746 19.808 21.2373 20.16C21.5999 20.512 22.0799 20.688 22.6773 20.688C23.0506 20.688 23.4026 20.6293 23.7333 20.512C24.0639 20.384 24.4159 20.192 24.7893 19.936L25.6373 21.104C24.6986 21.8613 23.6533 22.24 22.5013 22.24C21.2106 22.24 20.2133 21.8453 19.5093 21.056C18.8159 20.2667 18.4693 19.1893 18.4693 17.824C18.4693 16.96 18.6186 16.1867 18.9173 15.504C19.2159 14.8107 19.6479 14.272 20.2133 13.888C20.7786 13.4933 21.4506 13.296 22.2293 13.296C23.4133 13.296 24.3306 13.6747 24.9813 14.432C25.6319 15.1787 25.9573 16.224 25.9573 17.568ZM23.9253 16.976C23.9253 15.4933 23.3759 14.752 22.2773 14.752C21.7759 14.752 21.3813 14.9387 21.0933 15.312C20.8159 15.6747 20.6506 16.2613 20.5973 17.072H23.9253V16.976ZM38.5625 22H36.7865L36.6745 20.816C36.3652 21.296 35.9972 21.6533 35.5705 21.888C35.1545 22.1227 34.6585 22.24 34.0825 22.24C33.3252 22.24 32.7385 22.0107 32.3225 21.552C31.9172 21.0827 31.7145 20.4373 31.7145 19.616V13.536H33.7625V19.36C33.7625 19.84 33.8425 20.1813 34.0025 20.384C34.1732 20.5867 34.4398 20.688 34.8025 20.688C35.4532 20.688 36.0238 20.288 36.5145 19.488V13.536H38.5625V22ZM45.5409 13.296C46.2982 13.296 46.8849 13.5253 47.3009 13.984C47.7275 14.432 47.9409 15.0613 47.9409 15.872V22H45.8929V16.192C45.8929 15.6907 45.8022 15.3387 45.6209 15.136C45.4502 14.9333 45.1942 14.832 44.8529 14.832C44.5009 14.832 44.1809 14.944 43.8929 15.168C43.6155 15.3813 43.3435 15.696 43.0769 16.112V22H41.0289V13.536H42.8049L42.9649 14.64C43.6582 13.744 44.5169 13.296 45.5409 13.296ZM52.3738 13.536V22H50.3258V13.536H52.3738ZM51.3338 9.248C51.7178 9.248 52.0271 9.37067 52.2618 9.616C52.5071 9.85067 52.6298 10.144 52.6298 10.496C52.6298 10.848 52.5071 11.1413 52.2618 11.376C52.0271 11.6107 51.7178 11.728 51.3338 11.728C50.9604 11.728 50.6511 11.6107 50.4058 11.376C50.1711 11.1413 50.0538 10.848 50.0538 10.496C50.0538 10.144 50.1711 9.85067 50.4058 9.616C50.6511 9.37067 50.9604 9.248 51.3338 9.248ZM61.6414 13.536L58.8894 22H56.4414L53.6414 13.536H55.8654L57.6734 20.352L59.5294 13.536H61.6414ZM69.7541 17.568C69.7541 17.6747 69.7381 17.952 69.7061 18.4H64.3941C64.4581 19.2213 64.6715 19.808 65.0341 20.16C65.3968 20.512 65.8768 20.688 66.4741 20.688C66.8475 20.688 67.1995 20.6293 67.5301 20.512C67.8608 20.384 68.2128 20.192 68.5861 19.936L69.4341 21.104C68.4955 21.8613 67.4501 22.24 66.2981 22.24C65.0075 22.24 64.0101 21.8453 63.3061 21.056C62.6128 20.2667 62.2661 19.1893 62.2661 17.824C62.2661 16.96 62.4155 16.1867 62.7141 15.504C63.0128 14.8107 63.4448 14.272 64.0101 13.888C64.5755 13.4933 65.2475 13.296 66.0261 13.296C67.2101 13.296 68.1275 13.6747 68.7781 14.432C69.4288 15.1787 69.7541 16.224 69.7541 17.568ZM67.7221 16.976C67.7221 15.4933 67.1728 14.752 66.0741 14.752C65.5728 14.752 65.1781 14.9387 64.8901 15.312C64.6128 15.6747 64.4475 16.2613 64.3941 17.072H67.7221V16.976ZM75.7674 13.312C76.0767 13.312 76.3594 13.3493 76.6154 13.424L76.2634 15.408C76.0074 15.344 75.7567 15.312 75.5114 15.312C75.01 15.312 74.6154 15.4933 74.3274 15.856C74.0394 16.208 73.81 16.752 73.6394 17.488V22H71.5914V13.536H73.3674L73.5594 15.2C73.762 14.592 74.0554 14.128 74.4394 13.808C74.8234 13.4773 75.266 13.312 75.7674 13.312ZM80.3571 13.296C81.4985 13.296 82.5011 13.632 83.3651 14.304L82.5651 15.504C81.8398 15.0453 81.1305 14.816 80.4371 14.816C80.0318 14.816 79.7171 14.896 79.4931 15.056C79.2691 15.2053 79.1571 15.408 79.1571 15.664C79.1571 15.856 79.2051 16.016 79.3011 16.144C79.3971 16.272 79.5678 16.3947 79.8131 16.512C80.0691 16.6187 80.4425 16.7413 80.9331 16.88C81.8505 17.1253 82.5278 17.4507 82.9651 17.856C83.4131 18.2613 83.6371 18.8267 83.6371 19.552C83.6371 20.3947 83.2958 21.056 82.6131 21.536C81.9305 22.0053 81.0825 22.24 80.0691 22.24C79.3758 22.24 78.7411 22.1333 78.1651 21.92C77.5998 21.7067 77.1091 21.4133 76.6931 21.04L77.7171 19.888C78.4531 20.4427 79.2211 20.72 80.0211 20.72C80.4798 20.72 80.8425 20.6293 81.1091 20.448C81.3865 20.2667 81.5251 20.016 81.5251 19.696C81.5251 19.4507 81.4718 19.2587 81.3651 19.12C81.2691 18.9707 81.0878 18.8427 80.8211 18.736C80.5651 18.6187 80.1598 18.48 79.6051 18.32C78.7411 18.0853 78.1065 17.76 77.7011 17.344C77.2958 16.9173 77.0931 16.3893 77.0931 15.76C77.0931 15.2907 77.2265 14.8693 77.4931 14.496C77.7705 14.1227 78.1545 13.8293 78.6451 13.616C79.1465 13.4027 79.7171 13.296 80.3571 13.296ZM92.2385 17.568C92.2385 17.6747 92.2225 17.952 92.1905 18.4H86.8785C86.9425 19.2213 87.1558 19.808 87.5185 20.16C87.8812 20.512 88.3612 20.688 88.9585 20.688C89.3318 20.688 89.6838 20.6293 90.0145 20.512C90.3452 20.384 90.6972 20.192 91.0705 19.936L91.9185 21.104C90.9798 21.8613 89.9345 22.24 88.7825 22.24C87.4918 22.24 86.4945 21.8453 85.7905 21.056C85.0972 20.2667 84.7505 19.1893 84.7505 17.824C84.7505 16.96 84.8998 16.1867 85.1985 15.504C85.4972 14.8107 85.9292 14.272 86.4945 13.888C87.0598 13.4933 87.7318 13.296 88.5105 13.296C89.6945 13.296 90.6118 13.6747 91.2625 14.432C91.9132 15.1787 92.2385 16.224 92.2385 17.568ZM90.2065 16.976C90.2065 15.4933 89.6572 14.752 88.5585 14.752C88.0572 14.752 87.6625 14.9387 87.3745 15.312C87.0972 15.6747 86.9318 16.2613 86.8785 17.072H90.2065V16.976ZM108.412 13.536L106.572 22H104.012L102.732 15.36L101.42 22H98.9078L97.0358 13.536H99.0838L100.268 20.496L101.74 13.536H103.836L105.18 20.496L106.444 13.536H108.412ZM116.77 17.568C116.77 17.6747 116.754 17.952 116.722 18.4H111.41C111.474 19.2213 111.687 19.808 112.05 20.16C112.412 20.512 112.892 20.688 113.49 20.688C113.863 20.688 114.215 20.6293 114.546 20.512C114.876 20.384 115.228 20.192 115.602 19.936L116.45 21.104C115.511 21.8613 114.466 22.24 113.314 22.24C112.023 22.24 111.026 21.8453 110.322 21.056C109.628 20.2667 109.282 19.1893 109.282 17.824C109.282 16.96 109.431 16.1867 109.73 15.504C110.028 14.8107 110.46 14.272 111.026 13.888C111.591 13.4933 112.263 13.296 113.042 13.296C114.226 13.296 115.143 13.6747 115.794 14.432C116.444 15.1787 116.77 16.224 116.77 17.568ZM114.738 16.976C114.738 15.4933 114.188 14.752 113.09 14.752C112.588 14.752 112.194 14.9387 111.906 15.312C111.628 15.6747 111.463 16.2613 111.41 17.072H114.738V16.976ZM128.863 19.76C128.863 20.0907 128.911 20.336 129.007 20.496C129.114 20.6453 129.279 20.7627 129.503 20.848L129.071 22.208C128.591 22.1653 128.196 22.048 127.887 21.856C127.588 21.664 127.359 21.3707 127.199 20.976C126.911 21.4027 126.548 21.7227 126.111 21.936C125.684 22.1387 125.204 22.24 124.671 22.24C123.828 22.24 123.162 22 122.671 21.52C122.18 21.04 121.935 20.4107 121.935 19.632C121.935 18.7147 122.266 18.016 122.927 17.536C123.599 17.0453 124.554 16.8 125.791 16.8H126.847V16.32C126.847 15.776 126.719 15.3973 126.463 15.184C126.218 14.96 125.818 14.848 125.263 14.848C124.644 14.848 123.898 14.9973 123.023 15.296L122.543 13.904C123.599 13.4987 124.623 13.296 125.615 13.296C127.78 13.296 128.863 14.2667 128.863 16.208V19.76ZM125.215 20.752C125.908 20.752 126.452 20.4053 126.847 19.712V18H125.999C124.676 18 124.015 18.4907 124.015 19.472C124.015 19.8773 124.116 20.192 124.319 20.416C124.522 20.64 124.82 20.752 125.215 20.752ZM135.517 13.312C135.827 13.312 136.109 13.3493 136.365 13.424L136.013 15.408C135.757 15.344 135.507 15.312 135.261 15.312C134.76 15.312 134.365 15.4933 134.077 15.856C133.789 16.208 133.56 16.752 133.389 17.488V22H131.341V13.536H133.117L133.309 15.2C133.512 14.592 133.805 14.128 134.189 13.808C134.573 13.4773 135.016 13.312 135.517 13.312ZM144.098 17.568C144.098 17.6747 144.082 17.952 144.05 18.4H138.738C138.802 19.2213 139.015 19.808 139.378 20.16C139.741 20.512 140.221 20.688 140.818 20.688C141.191 20.688 141.543 20.6293 141.874 20.512C142.205 20.384 142.557 20.192 142.93 19.936L143.778 21.104C142.839 21.8613 141.794 22.24 140.642 22.24C139.351 22.24 138.354 21.8453 137.65 21.056C136.957 20.2667 136.61 19.1893 136.61 17.824C136.61 16.96 136.759 16.1867 137.058 15.504C137.357 14.8107 137.789 14.272 138.354 13.888C138.919 13.4933 139.591 13.296 140.37 13.296C141.554 13.296 142.471 13.6747 143.122 14.432C143.773 15.1787 144.098 16.224 144.098 17.568ZM142.066 16.976C142.066 15.4933 141.517 14.752 140.418 14.752C139.917 14.752 139.522 14.9387 139.234 15.312C138.957 15.6747 138.791 16.2613 138.738 17.072H142.066V16.976ZM3.28 32.536V41H1.232V32.536H3.28ZM2.24 28.248C2.624 28.248 2.93333 28.3707 3.168 28.616C3.41333 28.8507 3.536 29.144 3.536 29.496C3.536 29.848 3.41333 30.1413 3.168 30.376C2.93333 30.6107 2.624 30.728 2.24 30.728C1.86667 30.728 1.55733 30.6107 1.312 30.376C1.07733 30.1413 0.96 29.848 0.96 29.496C0.96 29.144 1.07733 28.8507 1.312 28.616C1.55733 28.3707 1.86667 28.248 2.24 28.248ZM10.2596 32.296C11.017 32.296 11.6036 32.5253 12.0196 32.984C12.4463 33.432 12.6596 34.0613 12.6596 34.872V41H10.6116V35.192C10.6116 34.6907 10.521 34.3387 10.3396 34.136C10.169 33.9333 9.91296 33.832 9.57163 33.832C9.21963 33.832 8.89963 33.944 8.61163 34.168C8.33429 34.3813 8.06229 34.696 7.79563 35.112V41H5.74763V32.536H7.52363L7.68363 33.64C8.37696 32.744 9.23563 32.296 10.2596 32.296ZM19.8925 40.6C19.5938 40.8133 19.2578 40.9733 18.8845 41.08C18.5218 41.1867 18.1485 41.24 17.7645 41.24C16.9325 41.2293 16.2978 40.9947 15.8605 40.536C15.4338 40.0667 15.2205 39.3787 15.2205 38.472V34.008H13.8925V32.536H15.2205V30.664L17.2685 30.424V32.536H19.2365L19.0285 34.008H17.2685V38.424C17.2685 38.84 17.3378 39.1387 17.4765 39.32C17.6258 39.5013 17.8552 39.592 18.1645 39.592C18.4738 39.592 18.8098 39.4907 19.1725 39.288L19.8925 40.6ZM27.7229 36.568C27.7229 36.6747 27.7069 36.952 27.6749 37.4H22.3629C22.4269 38.2213 22.6402 38.808 23.0029 39.16C23.3655 39.512 23.8455 39.688 24.4429 39.688C24.8162 39.688 25.1682 39.6293 25.4989 39.512C25.8295 39.384 26.1815 39.192 26.5549 38.936L27.4029 40.104C26.4642 40.8613 25.4189 41.24 24.2669 41.24C22.9762 41.24 21.9789 40.8453 21.2749 40.056C20.5815 39.2667 20.2349 38.1893 20.2349 36.824C20.2349 35.96 20.3842 35.1867 20.6829 34.504C20.9815 33.8107 21.4135 33.272 21.9789 32.888C22.5442 32.4933 23.2162 32.296 23.9949 32.296C25.1789 32.296 26.0962 32.6747 26.7469 33.432C27.3975 34.1787 27.7229 35.224 27.7229 36.568ZM25.6909 35.976C25.6909 34.4933 25.1415 33.752 24.0429 33.752C23.5415 33.752 23.1469 33.9387 22.8589 34.312C22.5815 34.6747 22.4162 35.2613 22.3629 36.072H25.6909V35.976ZM33.7361 32.312C34.0455 32.312 34.3281 32.3493 34.5841 32.424L34.2321 34.408C33.9761 34.344 33.7255 34.312 33.4801 34.312C32.9788 34.312 32.5841 34.4933 32.2961 34.856C32.0081 35.208 31.7788 35.752 31.6081 36.488V41H29.5601V32.536H31.3361L31.5281 34.2C31.7308 33.592 32.0241 33.128 32.4081 32.808C32.7921 32.4773 33.2348 32.312 33.7361 32.312ZM42.3166 36.568C42.3166 36.6747 42.3006 36.952 42.2686 37.4H36.9566C37.0206 38.2213 37.234 38.808 37.5966 39.16C37.9593 39.512 38.4393 39.688 39.0366 39.688C39.41 39.688 39.762 39.6293 40.0926 39.512C40.4233 39.384 40.7753 39.192 41.1486 38.936L41.9966 40.104C41.058 40.8613 40.0126 41.24 38.8606 41.24C37.57 41.24 36.5726 40.8453 35.8686 40.056C35.1753 39.2667 34.8286 38.1893 34.8286 36.824C34.8286 35.96 34.978 35.1867 35.2766 34.504C35.5753 33.8107 36.0073 33.272 36.5726 32.888C37.138 32.4933 37.81 32.296 38.5886 32.296C39.7726 32.296 40.69 32.6747 41.3406 33.432C41.9913 34.1787 42.3166 35.224 42.3166 36.568ZM40.2846 35.976C40.2846 34.4933 39.7353 33.752 38.6366 33.752C38.1353 33.752 37.7406 33.9387 37.4526 34.312C37.1753 34.6747 37.01 35.2613 36.9566 36.072H40.2846V35.976ZM46.8259 32.296C47.9672 32.296 48.9699 32.632 49.8339 33.304L49.0339 34.504C48.3085 34.0453 47.5992 33.816 46.9059 33.816C46.5005 33.816 46.1859 33.896 45.9619 34.056C45.7379 34.2053 45.6259 34.408 45.6259 34.664C45.6259 34.856 45.6739 35.016 45.7699 35.144C45.8659 35.272 46.0365 35.3947 46.2819 35.512C46.5379 35.6187 46.9112 35.7413 47.4019 35.88C48.3192 36.1253 48.9965 36.4507 49.4339 36.856C49.8819 37.2613 50.1059 37.8267 50.1059 38.552C50.1059 39.3947 49.7645 40.056 49.0819 40.536C48.3992 41.0053 47.5512 41.24 46.5379 41.24C45.8445 41.24 45.2099 41.1333 44.6339 40.92C44.0685 40.7067 43.5779 40.4133 43.1619 40.04L44.1859 38.888C44.9219 39.4427 45.6899 39.72 46.4899 39.72C46.9485 39.72 47.3112 39.6293 47.5779 39.448C47.8552 39.2667 47.9939 39.016 47.9939 38.696C47.9939 38.4507 47.9405 38.2587 47.8339 38.12C47.7379 37.9707 47.5565 37.8427 47.2899 37.736C47.0339 37.6187 46.6285 37.48 46.0739 37.32C45.2099 37.0853 44.5752 36.76 44.1699 36.344C43.7645 35.9173 43.5619 35.3893 43.5619 34.76C43.5619 34.2907 43.6952 33.8693 43.9619 33.496C44.2392 33.1227 44.6232 32.8293 45.1139 32.616C45.6152 32.4027 46.1859 32.296 46.8259 32.296ZM56.6113 40.6C56.3126 40.8133 55.9766 40.9733 55.6033 41.08C55.2406 41.1867 54.8673 41.24 54.4833 41.24C53.6513 41.2293 53.0166 40.9947 52.5793 40.536C52.1526 40.0667 51.9393 39.3787 51.9393 38.472V34.008H50.6113V32.536H51.9393V30.664L53.9873 30.424V32.536H55.9553L55.7473 34.008H53.9873V38.424C53.9873 38.84 54.0566 39.1387 54.1953 39.32C54.3446 39.5013 54.5739 39.592 54.8833 39.592C55.1926 39.592 55.5286 39.4907 55.8913 39.288L56.6113 40.6ZM64.4416 36.568C64.4416 36.6747 64.4256 36.952 64.3936 37.4H59.0816C59.1456 38.2213 59.359 38.808 59.7216 39.16C60.0843 39.512 60.5643 39.688 61.1616 39.688C61.535 39.688 61.887 39.6293 62.2176 39.512C62.5483 39.384 62.9003 39.192 63.2736 38.936L64.1216 40.104C63.183 40.8613 62.1376 41.24 60.9856 41.24C59.695 41.24 58.6976 40.8453 57.9936 40.056C57.3003 39.2667 56.9536 38.1893 56.9536 36.824C56.9536 35.96 57.103 35.1867 57.4016 34.504C57.7003 33.8107 58.1323 33.272 58.6976 32.888C59.263 32.4933 59.935 32.296 60.7136 32.296C61.8976 32.296 62.815 32.6747 63.4656 33.432C64.1163 34.1787 64.4416 35.224 64.4416 36.568ZM62.4096 35.976C62.4096 34.4933 61.8603 33.752 60.7616 33.752C60.2603 33.752 59.8656 33.9387 59.5776 34.312C59.3003 34.6747 59.135 35.2613 59.0816 36.072H62.4096V35.976ZM73.3989 29.144V41H71.5909L71.4469 39.928C71.1802 40.3333 70.8389 40.6533 70.4229 40.888C70.0175 41.1227 69.5535 41.24 69.0309 41.24C67.9962 41.24 67.2015 40.84 66.6469 40.04C66.0922 39.24 65.8149 38.152 65.8149 36.776C65.8149 35.912 65.9535 35.144 66.2309 34.472C66.5082 33.7893 66.9029 33.256 67.4149 32.872C67.9375 32.488 68.5402 32.296 69.2229 32.296C70.0335 32.296 70.7429 32.6 71.3509 33.208V28.92L73.3989 29.144ZM69.6069 39.688C69.9695 39.688 70.2895 39.6027 70.5669 39.432C70.8442 39.2507 71.1055 38.9733 71.3509 38.6V34.728C71.1055 34.4293 70.8549 34.2053 70.5989 34.056C70.3535 33.9067 70.0655 33.832 69.7349 33.832C69.1909 33.832 68.7589 34.0773 68.4389 34.568C68.1295 35.048 67.9749 35.7787 67.9749 36.76C67.9749 37.8053 68.1135 38.5573 68.3909 39.016C68.6682 39.464 69.0735 39.688 69.6069 39.688ZM81.905 32.536V41H79.857V32.536H81.905ZM80.865 28.248C81.249 28.248 81.5583 28.3707 81.793 28.616C82.0383 28.8507 82.161 29.144 82.161 29.496C82.161 29.848 82.0383 30.1413 81.793 30.376C81.5583 30.6107 81.249 30.728 80.865 30.728C80.4917 30.728 80.1823 30.6107 79.937 30.376C79.7023 30.1413 79.585 29.848 79.585 29.496C79.585 29.144 79.7023 28.8507 79.937 28.616C80.1823 28.3707 80.4917 28.248 80.865 28.248ZM88.8846 32.296C89.642 32.296 90.2286 32.5253 90.6446 32.984C91.0713 33.432 91.2846 34.0613 91.2846 34.872V41H89.2366V35.192C89.2366 34.6907 89.146 34.3387 88.9646 34.136C88.794 33.9333 88.538 33.832 88.1966 33.832C87.8446 33.832 87.5246 33.944 87.2366 34.168C86.9593 34.3813 86.6873 34.696 86.4206 35.112V41H84.3726V32.536H86.1486L86.3086 33.64C87.002 32.744 87.8606 32.296 88.8846 32.296Z" fill="black"/>
<circle cx="288.5" cy="377.5" r="42.5" fill="#F3A712"/>
<path d="M261 420L245.474 427.677L259.885 437.285L261 420ZM202.248 510.832L254.76 432.065L252.263 430.401L199.752 509.168L202.248 510.832Z" fill="url(#paint1_linear_101_102)"/>
<path d="M261 420L245.474 427.677L259.885 437.285L261 420ZM202.248 510.832L254.76 432.065L252.263 430.401L199.752 509.168L202.248 510.832Z" fill="#D6C8AC"/>
<path d="M98.1109 505.944L97.8869 507.624H95.0069V517H92.8789V507.624H89.9029V505.944H98.1109ZM103.119 508.312C103.428 508.312 103.711 508.349 103.967 508.424L103.615 510.408C103.359 510.344 103.108 510.312 102.863 510.312C102.362 510.312 101.967 510.493 101.679 510.856C101.391 511.208 101.162 511.752 100.991 512.488V517H98.9429V508.536H100.719L100.911 510.2C101.114 509.592 101.407 509.128 101.791 508.808C102.175 508.477 102.618 508.312 103.119 508.312ZM110.933 514.76C110.933 515.091 110.981 515.336 111.077 515.496C111.184 515.645 111.349 515.763 111.573 515.848L111.141 517.208C110.661 517.165 110.267 517.048 109.957 516.856C109.659 516.664 109.429 516.371 109.269 515.976C108.981 516.403 108.619 516.723 108.181 516.936C107.755 517.139 107.275 517.24 106.741 517.24C105.899 517.24 105.232 517 104.741 516.52C104.251 516.04 104.005 515.411 104.005 514.632C104.005 513.715 104.336 513.016 104.997 512.536C105.669 512.045 106.624 511.8 107.861 511.8H108.917V511.32C108.917 510.776 108.789 510.397 108.533 510.184C108.288 509.96 107.888 509.848 107.333 509.848C106.715 509.848 105.968 509.997 105.093 510.296L104.613 508.904C105.669 508.499 106.693 508.296 107.685 508.296C109.851 508.296 110.933 509.267 110.933 511.208V514.76ZM107.285 515.752C107.979 515.752 108.523 515.405 108.917 514.712V513H108.069C106.747 513 106.085 513.491 106.085 514.472C106.085 514.877 106.187 515.192 106.389 515.416C106.592 515.64 106.891 515.752 107.285 515.752ZM115.46 508.536V517H113.412V508.536H115.46ZM114.42 504.248C114.804 504.248 115.113 504.371 115.348 504.616C115.593 504.851 115.716 505.144 115.716 505.496C115.716 505.848 115.593 506.141 115.348 506.376C115.113 506.611 114.804 506.728 114.42 506.728C114.046 506.728 113.737 506.611 113.492 506.376C113.257 506.141 113.14 505.848 113.14 505.496C113.14 505.144 113.257 504.851 113.492 504.616C113.737 504.371 114.046 504.248 114.42 504.248ZM122.439 508.296C123.197 508.296 123.783 508.525 124.199 508.984C124.626 509.432 124.839 510.061 124.839 510.872V517H122.791V511.192C122.791 510.691 122.701 510.339 122.519 510.136C122.349 509.933 122.093 509.832 121.751 509.832C121.399 509.832 121.079 509.944 120.791 510.168C120.514 510.381 120.242 510.696 119.975 511.112V517H117.927V508.536H119.703L119.863 509.64C120.557 508.744 121.415 508.296 122.439 508.296ZM129.272 508.536V517H127.224V508.536H129.272ZM128.232 504.248C128.616 504.248 128.926 504.371 129.16 504.616C129.406 504.851 129.528 505.144 129.528 505.496C129.528 505.848 129.406 506.141 129.16 506.376C128.926 506.611 128.616 506.728 128.232 506.728C127.859 506.728 127.55 506.611 127.304 506.376C127.07 506.141 126.952 505.848 126.952 505.496C126.952 505.144 127.07 504.851 127.304 504.616C127.55 504.371 127.859 504.248 128.232 504.248ZM136.252 508.296C137.009 508.296 137.596 508.525 138.012 508.984C138.438 509.432 138.652 510.061 138.652 510.872V517H136.604V511.192C136.604 510.691 136.513 510.339 136.332 510.136C136.161 509.933 135.905 509.832 135.564 509.832C135.212 509.832 134.892 509.944 134.604 510.168C134.326 510.381 134.054 510.696 133.788 511.112V517H131.74V508.536H133.516L133.676 509.64C134.369 508.744 135.228 508.296 136.252 508.296ZM148.397 508.984C147.853 509.176 147.037 509.272 145.949 509.272C146.471 509.507 146.855 509.8 147.101 510.152C147.357 510.493 147.485 510.925 147.485 511.448C147.485 512.003 147.346 512.493 147.069 512.92C146.802 513.347 146.407 513.683 145.885 513.928C145.373 514.173 144.77 514.296 144.077 514.296C143.693 514.296 143.357 514.253 143.069 514.168C142.834 514.328 142.717 514.536 142.717 514.792C142.717 515.187 143.058 515.384 143.741 515.384H145.037C145.655 515.384 146.194 515.485 146.653 515.688C147.122 515.891 147.485 516.179 147.741 516.552C147.997 516.915 148.125 517.325 148.125 517.784C148.125 518.637 147.762 519.299 147.037 519.768C146.311 520.248 145.266 520.488 143.901 520.488C142.919 520.488 142.146 520.387 141.581 520.184C141.026 519.981 140.631 519.688 140.397 519.304C140.162 518.92 140.045 518.429 140.045 517.832H141.885C141.885 518.131 141.938 518.365 142.045 518.536C142.162 518.707 142.365 518.835 142.653 518.92C142.951 519.005 143.378 519.048 143.933 519.048C144.711 519.048 145.261 518.952 145.581 518.76C145.901 518.568 146.061 518.291 146.061 517.928C146.061 517.608 145.938 517.357 145.693 517.176C145.447 517.005 145.09 516.92 144.621 516.92H143.341C142.541 516.92 141.938 516.765 141.533 516.456C141.127 516.147 140.925 515.757 140.925 515.288C140.925 514.989 141.01 514.701 141.181 514.424C141.362 514.147 141.607 513.912 141.917 513.72C141.405 513.453 141.026 513.128 140.781 512.744C140.546 512.349 140.429 511.88 140.429 511.336C140.429 510.728 140.578 510.195 140.877 509.736C141.175 509.277 141.586 508.925 142.109 508.68C142.642 508.424 143.25 508.296 143.933 508.296C144.829 508.317 145.549 508.253 146.093 508.104C146.647 507.944 147.245 507.693 147.885 507.352L148.397 508.984ZM143.965 509.688C143.506 509.688 143.143 509.837 142.877 510.136C142.621 510.424 142.493 510.813 142.493 511.304C142.493 511.816 142.626 512.221 142.893 512.52C143.159 512.819 143.527 512.968 143.997 512.968C144.487 512.968 144.861 512.824 145.117 512.536C145.373 512.237 145.501 511.821 145.501 511.288C145.501 510.221 144.989 509.688 143.965 509.688ZM160.75 505.144V517H158.942L158.798 515.928C158.532 516.333 158.19 516.653 157.774 516.888C157.369 517.123 156.905 517.24 156.382 517.24C155.348 517.24 154.553 516.84 153.998 516.04C153.444 515.24 153.166 514.152 153.166 512.776C153.166 511.912 153.305 511.144 153.582 510.472C153.86 509.789 154.254 509.256 154.766 508.872C155.289 508.488 155.892 508.296 156.574 508.296C157.385 508.296 158.094 508.6 158.702 509.208V504.92L160.75 505.144ZM156.958 515.688C157.321 515.688 157.641 515.603 157.918 515.432C158.196 515.251 158.457 514.973 158.702 514.6V510.728C158.457 510.429 158.206 510.205 157.95 510.056C157.705 509.907 157.417 509.832 157.086 509.832C156.542 509.832 156.11 510.077 155.79 510.568C155.481 511.048 155.326 511.779 155.326 512.76C155.326 513.805 155.465 514.557 155.742 515.016C156.02 515.464 156.425 515.688 156.958 515.688ZM169.465 514.76C169.465 515.091 169.513 515.336 169.609 515.496C169.715 515.645 169.881 515.763 170.105 515.848L169.673 517.208C169.193 517.165 168.798 517.048 168.489 516.856C168.19 516.664 167.961 516.371 167.801 515.976C167.513 516.403 167.15 516.723 166.713 516.936C166.286 517.139 165.806 517.24 165.273 517.24C164.43 517.24 163.763 517 163.273 516.52C162.782 516.04 162.537 515.411 162.537 514.632C162.537 513.715 162.867 513.016 163.529 512.536C164.201 512.045 165.155 511.8 166.393 511.8H167.449V511.32C167.449 510.776 167.321 510.397 167.065 510.184C166.819 509.96 166.419 509.848 165.865 509.848C165.246 509.848 164.499 509.997 163.625 510.296L163.145 508.904C164.201 508.499 165.225 508.296 166.217 508.296C168.382 508.296 169.465 509.267 169.465 511.208V514.76ZM165.817 515.752C166.51 515.752 167.054 515.405 167.449 514.712V513H166.601C165.278 513 164.617 513.491 164.617 514.472C164.617 514.877 164.718 515.192 164.921 515.416C165.123 515.64 165.422 515.752 165.817 515.752ZM176.791 516.6C176.492 516.813 176.156 516.973 175.783 517.08C175.42 517.187 175.047 517.24 174.663 517.24C173.831 517.229 173.196 516.995 172.759 516.536C172.332 516.067 172.119 515.379 172.119 514.472V510.008H170.791V508.536H172.119V506.664L174.167 506.424V508.536H176.135L175.927 510.008H174.167V514.424C174.167 514.84 174.236 515.139 174.375 515.32C174.524 515.501 174.754 515.592 175.063 515.592C175.372 515.592 175.708 515.491 176.071 515.288L176.791 516.6ZM184.043 514.76C184.043 515.091 184.091 515.336 184.187 515.496C184.293 515.645 184.459 515.763 184.683 515.848L184.251 517.208C183.771 517.165 183.376 517.048 183.067 516.856C182.768 516.664 182.539 516.371 182.379 515.976C182.091 516.403 181.728 516.723 181.291 516.936C180.864 517.139 180.384 517.24 179.851 517.24C179.008 517.24 178.341 517 177.851 516.52C177.36 516.04 177.115 515.411 177.115 514.632C177.115 513.715 177.445 513.016 178.107 512.536C178.779 512.045 179.733 511.8 180.971 511.8H182.027V511.32C182.027 510.776 181.899 510.397 181.643 510.184C181.397 509.96 180.997 509.848 180.443 509.848C179.824 509.848 179.077 509.997 178.203 510.296L177.723 508.904C178.779 508.499 179.803 508.296 180.795 508.296C182.96 508.296 184.043 509.267 184.043 511.208V514.76ZM180.395 515.752C181.088 515.752 181.632 515.405 182.027 514.712V513H181.179C179.856 513 179.195 513.491 179.195 514.472C179.195 514.877 179.296 515.192 179.499 515.416C179.701 515.64 180 515.752 180.395 515.752Z" fill="black"/>
<defs>
<linearGradient id="paint0_linear_101_102" x1="137" y1="85" x2="112" y2="41" gradientUnits="userSpaceOnUse">
<stop stop-color="#FFEDCB"/>
<stop offset="0.584914" stop-color="#FFEDCB"/>
<stop offset="0.593762" stop-color="#D6C7AC"/>
<stop offset="1" stop-color="#D6C7AC"/>
</linearGradient>
<linearGradient id="paint1_linear_101_102" x1="261" y1="420" x2="201" y2="510" gradientUnits="userSpaceOnUse">
<stop stop-color="#FFEDCB"/>
<stop offset="0.584914" stop-color="#FFEDCB"/>
<stop offset="0.593762" stop-color="#D6C7AC"/>
<stop offset="1" stop-color="#D6C7AC"/>
</linearGradient>
</defs>
</svg>
